%TF.GenerationSoftware,KiCad,Pcbnew,(6.0.7)*%
%TF.CreationDate,2022-11-03T07:54:49+08:00*%
%TF.ProjectId,panelization,70616e65-6c69-47a6-9174-696f6e2e6b69,rev?*%
%TF.SameCoordinates,Original*%
%TF.FileFunction,Soldermask,Bot*%
%TF.FilePolarity,Negative*%
%FSLAX46Y46*%
G04 Gerber Fmt 4.6, Leading zero omitted, Abs format (unit mm)*
G04 Created by KiCad (PCBNEW (6.0.7)) date 2022-11-03 07:54:49*
%MOMM*%
%LPD*%
G01*
G04 APERTURE LIST*
%ADD10C,0.650000*%
%ADD11O,1.000000X1.600000*%
%ADD12O,1.000000X2.100000*%
%ADD13C,1.000000*%
%ADD14R,1.700000X1.700000*%
%ADD15O,1.700000X1.700000*%
G04 APERTURE END LIST*
D10*
%TO.C,J49*%
X135667000Y-98365000D03*
X141447000Y-98365000D03*
D11*
X142877000Y-102015000D03*
D12*
X142877000Y-97835000D03*
D11*
X134237000Y-102015000D03*
D12*
X134237000Y-97835000D03*
%TD*%
D13*
%TO.C,J74*%
X99239000Y-125548500D03*
X105739000Y-125548500D03*
D11*
X97594000Y-125448500D03*
X97594000Y-128448500D03*
X107384000Y-125448500D03*
X107384000Y-128448500D03*
%TD*%
D10*
%TO.C,J100*%
X171735000Y-137227000D03*
X177515000Y-137227000D03*
D12*
X170305000Y-136697000D03*
D11*
X170305000Y-140877000D03*
X178945000Y-140877000D03*
D12*
X178945000Y-136697000D03*
%TD*%
D10*
%TO.C,J7*%
X159481000Y-59503000D03*
X153701000Y-59503000D03*
D12*
X152271000Y-58973000D03*
D11*
X160911000Y-63153000D03*
D12*
X160911000Y-58973000D03*
D11*
X152271000Y-63153000D03*
%TD*%
D10*
%TO.C,J28*%
X117633000Y-85411000D03*
X123413000Y-85411000D03*
D11*
X124843000Y-89061000D03*
D12*
X116203000Y-84881000D03*
X124843000Y-84881000D03*
D11*
X116203000Y-89061000D03*
%TD*%
D10*
%TO.C,J19*%
X141447000Y-72457000D03*
X135667000Y-72457000D03*
D11*
X142877000Y-76107000D03*
D12*
X134237000Y-71927000D03*
D11*
X134237000Y-76107000D03*
D12*
X142877000Y-71927000D03*
%TD*%
D10*
%TO.C,J1*%
X123413000Y-59503000D03*
X117633000Y-59503000D03*
D12*
X116203000Y-58973000D03*
X124843000Y-58973000D03*
D11*
X124843000Y-63153000D03*
X116203000Y-63153000D03*
%TD*%
D10*
%TO.C,J94*%
X141447000Y-137227000D03*
X135667000Y-137227000D03*
D11*
X134237000Y-140877000D03*
X142877000Y-140877000D03*
D12*
X142877000Y-136697000D03*
X134237000Y-136697000D03*
%TD*%
D10*
%TO.C,J13*%
X117633000Y-72457000D03*
X123413000Y-72457000D03*
D11*
X116203000Y-76107000D03*
D12*
X116203000Y-71927000D03*
X124843000Y-71927000D03*
D11*
X124843000Y-76107000D03*
%TD*%
D10*
%TO.C,J55*%
X171735000Y-98365000D03*
X177515000Y-98365000D03*
D11*
X178945000Y-102015000D03*
D12*
X178945000Y-97835000D03*
X170305000Y-97835000D03*
D11*
X170305000Y-102015000D03*
%TD*%
D10*
%TO.C,J40*%
X177515000Y-85411000D03*
X171735000Y-85411000D03*
D11*
X170305000Y-89061000D03*
D12*
X178945000Y-84881000D03*
X170305000Y-84881000D03*
D11*
X178945000Y-89061000D03*
%TD*%
D10*
%TO.C,J88*%
X123413000Y-137227000D03*
X117633000Y-137227000D03*
D11*
X116203000Y-140877000D03*
D12*
X124843000Y-136697000D03*
X116203000Y-136697000D03*
D11*
X124843000Y-140877000D03*
%TD*%
D13*
%TO.C,J29*%
X105739000Y-86686500D03*
X99239000Y-86686500D03*
D11*
X97594000Y-89586500D03*
X107384000Y-89586500D03*
X107384000Y-86586500D03*
X97594000Y-86586500D03*
%TD*%
D13*
%TO.C,J14*%
X105739000Y-73732500D03*
X99239000Y-73732500D03*
D11*
X107384000Y-76632500D03*
X97594000Y-73632500D03*
X97594000Y-76632500D03*
X107384000Y-73632500D03*
%TD*%
D13*
%TO.C,J59*%
X99239000Y-112594500D03*
X105739000Y-112594500D03*
D11*
X97594000Y-115494500D03*
X107384000Y-115494500D03*
X107384000Y-112494500D03*
X97594000Y-112494500D03*
%TD*%
D10*
%TO.C,J52*%
X159481000Y-98365000D03*
X153701000Y-98365000D03*
D11*
X160911000Y-102015000D03*
D12*
X160911000Y-97835000D03*
D11*
X152271000Y-102015000D03*
D12*
X152271000Y-97835000D03*
%TD*%
D10*
%TO.C,J37*%
X153701000Y-85411000D03*
X159481000Y-85411000D03*
D11*
X152271000Y-89061000D03*
X160911000Y-89061000D03*
D12*
X160911000Y-84881000D03*
X152271000Y-84881000D03*
%TD*%
D13*
%TO.C,J1*%
X105739000Y-60778500D03*
X99239000Y-60778500D03*
D11*
X97594000Y-60678500D03*
X107384000Y-60678500D03*
X107384000Y-63678500D03*
X97594000Y-63678500D03*
%TD*%
D10*
%TO.C,J58*%
X123413000Y-111319000D03*
X117633000Y-111319000D03*
D11*
X124843000Y-114969000D03*
D12*
X116203000Y-110789000D03*
X124843000Y-110789000D03*
D11*
X116203000Y-114969000D03*
%TD*%
D10*
%TO.C,J79*%
X141447000Y-124273000D03*
X135667000Y-124273000D03*
D11*
X142877000Y-127923000D03*
D12*
X142877000Y-123743000D03*
D11*
X134237000Y-127923000D03*
D12*
X134237000Y-123743000D03*
%TD*%
D10*
%TO.C,J43*%
X117633000Y-98365000D03*
X123413000Y-98365000D03*
D12*
X116203000Y-97835000D03*
D11*
X124843000Y-102015000D03*
X116203000Y-102015000D03*
D12*
X124843000Y-97835000D03*
%TD*%
D10*
%TO.C,J4*%
X141447000Y-59503000D03*
X135667000Y-59503000D03*
D11*
X134237000Y-63153000D03*
D12*
X142877000Y-58973000D03*
X134237000Y-58973000D03*
D11*
X142877000Y-63153000D03*
%TD*%
D10*
%TO.C,J64*%
X141447000Y-111319000D03*
X135667000Y-111319000D03*
D12*
X142877000Y-110789000D03*
X134237000Y-110789000D03*
D11*
X142877000Y-114969000D03*
X134237000Y-114969000D03*
%TD*%
D10*
%TO.C,J22*%
X159481000Y-72457000D03*
X153701000Y-72457000D03*
D12*
X152271000Y-71927000D03*
D11*
X152271000Y-76107000D03*
X160911000Y-76107000D03*
D12*
X160911000Y-71927000D03*
%TD*%
D13*
%TO.C,J89*%
X105739000Y-138502500D03*
X99239000Y-138502500D03*
D11*
X97594000Y-138402500D03*
X107384000Y-138402500D03*
X107384000Y-141402500D03*
X97594000Y-141402500D03*
%TD*%
D10*
%TO.C,J10*%
X171735000Y-59503000D03*
X177515000Y-59503000D03*
D12*
X170305000Y-58973000D03*
D11*
X170305000Y-63153000D03*
D12*
X178945000Y-58973000D03*
D11*
X178945000Y-63153000D03*
%TD*%
D10*
%TO.C,J34*%
X135667000Y-85411000D03*
X141447000Y-85411000D03*
D11*
X142877000Y-89061000D03*
D12*
X134237000Y-84881000D03*
D11*
X134237000Y-89061000D03*
D12*
X142877000Y-84881000D03*
%TD*%
D10*
%TO.C,J25*%
X177515000Y-72457000D03*
X171735000Y-72457000D03*
D11*
X170305000Y-76107000D03*
D12*
X170305000Y-71927000D03*
X178945000Y-71927000D03*
D11*
X178945000Y-76107000D03*
%TD*%
D10*
%TO.C,J73*%
X117633000Y-124273000D03*
X123413000Y-124273000D03*
D12*
X124843000Y-123743000D03*
D11*
X116203000Y-127923000D03*
D12*
X116203000Y-123743000D03*
D11*
X124843000Y-127923000D03*
%TD*%
D10*
%TO.C,J97*%
X159481000Y-137227000D03*
X153701000Y-137227000D03*
D11*
X160911000Y-140877000D03*
D12*
X160911000Y-136697000D03*
X152271000Y-136697000D03*
D11*
X152271000Y-140877000D03*
%TD*%
D10*
%TO.C,J67*%
X153701000Y-111319000D03*
X159481000Y-111319000D03*
D12*
X160911000Y-110789000D03*
X152271000Y-110789000D03*
D11*
X152271000Y-114969000D03*
X160911000Y-114969000D03*
%TD*%
D13*
%TO.C,J44*%
X105739000Y-99640500D03*
X99239000Y-99640500D03*
D11*
X107384000Y-99540500D03*
X107384000Y-102540500D03*
X97594000Y-102540500D03*
X97594000Y-99540500D03*
%TD*%
D10*
%TO.C,J85*%
X177515000Y-124273000D03*
X171735000Y-124273000D03*
D11*
X170305000Y-127923000D03*
D12*
X178945000Y-123743000D03*
D11*
X178945000Y-127923000D03*
D12*
X170305000Y-123743000D03*
%TD*%
D10*
%TO.C,J82*%
X153701000Y-124273000D03*
X159481000Y-124273000D03*
D11*
X160911000Y-127923000D03*
D12*
X160911000Y-123743000D03*
X152271000Y-123743000D03*
D11*
X152271000Y-127923000D03*
%TD*%
D10*
%TO.C,J70*%
X171735000Y-111319000D03*
X177515000Y-111319000D03*
D11*
X170305000Y-114969000D03*
X178945000Y-114969000D03*
D12*
X178945000Y-110789000D03*
X170305000Y-110789000D03*
%TD*%
D14*
%TO.C,J92*%
X94869000Y-142621000D03*
D15*
X94869000Y-140081000D03*
X94869000Y-137541000D03*
X94869000Y-135001000D03*
X94869000Y-132461000D03*
%TD*%
D14*
%TO.C,J46*%
X128143000Y-103754000D03*
D15*
X128143000Y-101214000D03*
X128143000Y-98674000D03*
X128143000Y-96134000D03*
X128143000Y-93594000D03*
%TD*%
D14*
%TO.C,J42*%
X167005000Y-90805000D03*
D15*
X167005000Y-88265000D03*
X167005000Y-85725000D03*
X167005000Y-83185000D03*
X167005000Y-80645000D03*
%TD*%
D14*
%TO.C,J56*%
X182245000Y-103754000D03*
D15*
X182245000Y-101214000D03*
X182245000Y-98674000D03*
X182245000Y-96134000D03*
X182245000Y-93594000D03*
%TD*%
D14*
%TO.C,J30*%
X110109000Y-90800000D03*
D15*
X110109000Y-88260000D03*
X110109000Y-85720000D03*
X110109000Y-83180000D03*
X110109000Y-80640000D03*
%TD*%
D14*
%TO.C,J23*%
X164211000Y-77846000D03*
D15*
X164211000Y-75306000D03*
X164211000Y-72766000D03*
X164211000Y-70226000D03*
X164211000Y-67686000D03*
%TD*%
D14*
%TO.C,J38*%
X164211000Y-90800000D03*
D15*
X164211000Y-88260000D03*
X164211000Y-85720000D03*
X164211000Y-83180000D03*
X164211000Y-80640000D03*
%TD*%
D14*
%TO.C,J71*%
X182245000Y-116708000D03*
D15*
X182245000Y-114168000D03*
X182245000Y-111628000D03*
X182245000Y-109088000D03*
X182245000Y-106548000D03*
%TD*%
D14*
%TO.C,J5*%
X146177000Y-64892000D03*
D15*
X146177000Y-62352000D03*
X146177000Y-59812000D03*
X146177000Y-57272000D03*
X146177000Y-54732000D03*
%TD*%
D14*
%TO.C,J12*%
X167005000Y-64897000D03*
D15*
X167005000Y-62357000D03*
X167005000Y-59817000D03*
X167005000Y-57277000D03*
X167005000Y-54737000D03*
%TD*%
D14*
%TO.C,J26*%
X182245000Y-77846000D03*
D15*
X182245000Y-75306000D03*
X182245000Y-72766000D03*
X182245000Y-70226000D03*
X182245000Y-67686000D03*
%TD*%
D14*
%TO.C,J84*%
X148971000Y-129667000D03*
D15*
X148971000Y-127127000D03*
X148971000Y-124587000D03*
X148971000Y-122047000D03*
X148971000Y-119507000D03*
%TD*%
D14*
%TO.C,J80*%
X146177000Y-129662000D03*
D15*
X146177000Y-127122000D03*
X146177000Y-124582000D03*
X146177000Y-122042000D03*
X146177000Y-119502000D03*
%TD*%
D14*
%TO.C,J3*%
X112903000Y-64897000D03*
D15*
X112903000Y-62357000D03*
X112903000Y-59817000D03*
X112903000Y-57277000D03*
X112903000Y-54737000D03*
%TD*%
D14*
%TO.C,J102*%
X167005000Y-142621000D03*
D15*
X167005000Y-140081000D03*
X167005000Y-137541000D03*
X167005000Y-135001000D03*
X167005000Y-132461000D03*
%TD*%
D14*
%TO.C,J35*%
X146177000Y-90800000D03*
D15*
X146177000Y-88260000D03*
X146177000Y-85720000D03*
X146177000Y-83180000D03*
X146177000Y-80640000D03*
%TD*%
D14*
%TO.C,J31*%
X128143000Y-90800000D03*
D15*
X128143000Y-88260000D03*
X128143000Y-85720000D03*
X128143000Y-83180000D03*
X128143000Y-80640000D03*
%TD*%
D14*
%TO.C,J2*%
X110109000Y-64892000D03*
D15*
X110109000Y-62352000D03*
X110109000Y-59812000D03*
X110109000Y-57272000D03*
X110109000Y-54732000D03*
%TD*%
D14*
%TO.C,J66*%
X130937000Y-116713000D03*
D15*
X130937000Y-114173000D03*
X130937000Y-111633000D03*
X130937000Y-109093000D03*
X130937000Y-106553000D03*
%TD*%
D14*
%TO.C,J61*%
X128143000Y-116708000D03*
D15*
X128143000Y-114168000D03*
X128143000Y-111628000D03*
X128143000Y-109088000D03*
X128143000Y-106548000D03*
%TD*%
D14*
%TO.C,J69*%
X148971000Y-116713000D03*
D15*
X148971000Y-114173000D03*
X148971000Y-111633000D03*
X148971000Y-109093000D03*
X148971000Y-106553000D03*
%TD*%
D14*
%TO.C,J20*%
X146177000Y-77846000D03*
D15*
X146177000Y-75306000D03*
X146177000Y-72766000D03*
X146177000Y-70226000D03*
X146177000Y-67686000D03*
%TD*%
D14*
%TO.C,J75*%
X110109000Y-129662000D03*
D15*
X110109000Y-127122000D03*
X110109000Y-124582000D03*
X110109000Y-122042000D03*
X110109000Y-119502000D03*
%TD*%
D14*
%TO.C,J11*%
X182245000Y-64892000D03*
D15*
X182245000Y-62352000D03*
X182245000Y-59812000D03*
X182245000Y-57272000D03*
X182245000Y-54732000D03*
%TD*%
D14*
%TO.C,J45*%
X110109000Y-103754000D03*
D15*
X110109000Y-101214000D03*
X110109000Y-98674000D03*
X110109000Y-96134000D03*
X110109000Y-93594000D03*
%TD*%
D14*
%TO.C,J72*%
X167005000Y-116713000D03*
D15*
X167005000Y-114173000D03*
X167005000Y-111633000D03*
X167005000Y-109093000D03*
X167005000Y-106553000D03*
%TD*%
D14*
%TO.C,J24*%
X148971000Y-77851000D03*
D15*
X148971000Y-75311000D03*
X148971000Y-72771000D03*
X148971000Y-70231000D03*
X148971000Y-67691000D03*
%TD*%
D14*
%TO.C,J87*%
X167005000Y-129667000D03*
D15*
X167005000Y-127127000D03*
X167005000Y-124587000D03*
X167005000Y-122047000D03*
X167005000Y-119507000D03*
%TD*%
D14*
%TO.C,J95*%
X146177000Y-142616000D03*
D15*
X146177000Y-140076000D03*
X146177000Y-137536000D03*
X146177000Y-134996000D03*
X146177000Y-132456000D03*
%TD*%
D14*
%TO.C,J17*%
X94869000Y-77851000D03*
D15*
X94869000Y-75311000D03*
X94869000Y-72771000D03*
X94869000Y-70231000D03*
X94869000Y-67691000D03*
%TD*%
D14*
%TO.C,J48*%
X112903000Y-103759000D03*
D15*
X112903000Y-101219000D03*
X112903000Y-98679000D03*
X112903000Y-96139000D03*
X112903000Y-93599000D03*
%TD*%
D14*
%TO.C,J65*%
X146177000Y-116708000D03*
D15*
X146177000Y-114168000D03*
X146177000Y-111628000D03*
X146177000Y-109088000D03*
X146177000Y-106548000D03*
%TD*%
D14*
%TO.C,J36*%
X130937000Y-90805000D03*
D15*
X130937000Y-88265000D03*
X130937000Y-85725000D03*
X130937000Y-83185000D03*
X130937000Y-80645000D03*
%TD*%
D14*
%TO.C,J93*%
X112903000Y-142621000D03*
D15*
X112903000Y-140081000D03*
X112903000Y-137541000D03*
X112903000Y-135001000D03*
X112903000Y-132461000D03*
%TD*%
D14*
%TO.C,J98*%
X164211000Y-142616000D03*
D15*
X164211000Y-140076000D03*
X164211000Y-137536000D03*
X164211000Y-134996000D03*
X164211000Y-132456000D03*
%TD*%
D14*
%TO.C,J68*%
X164211000Y-116708000D03*
D15*
X164211000Y-114168000D03*
X164211000Y-111628000D03*
X164211000Y-109088000D03*
X164211000Y-106548000D03*
%TD*%
D14*
%TO.C,J101*%
X182245000Y-142616000D03*
D15*
X182245000Y-140076000D03*
X182245000Y-137536000D03*
X182245000Y-134996000D03*
X182245000Y-132456000D03*
%TD*%
D14*
%TO.C,J77*%
X94869000Y-129667000D03*
D15*
X94869000Y-127127000D03*
X94869000Y-124587000D03*
X94869000Y-122047000D03*
X94869000Y-119507000D03*
%TD*%
D14*
%TO.C,J81*%
X130937000Y-129667000D03*
D15*
X130937000Y-127127000D03*
X130937000Y-124587000D03*
X130937000Y-122047000D03*
X130937000Y-119507000D03*
%TD*%
D14*
%TO.C,J76*%
X128143000Y-129662000D03*
D15*
X128143000Y-127122000D03*
X128143000Y-124582000D03*
X128143000Y-122042000D03*
X128143000Y-119502000D03*
%TD*%
D14*
%TO.C,J27*%
X167005000Y-77851000D03*
D15*
X167005000Y-75311000D03*
X167005000Y-72771000D03*
X167005000Y-70231000D03*
X167005000Y-67691000D03*
%TD*%
D14*
%TO.C,J83*%
X164211000Y-129662000D03*
D15*
X164211000Y-127122000D03*
X164211000Y-124582000D03*
X164211000Y-122042000D03*
X164211000Y-119502000D03*
%TD*%
D14*
%TO.C,J54*%
X148971000Y-103759000D03*
D15*
X148971000Y-101219000D03*
X148971000Y-98679000D03*
X148971000Y-96139000D03*
X148971000Y-93599000D03*
%TD*%
D14*
%TO.C,J99*%
X148971000Y-142621000D03*
D15*
X148971000Y-140081000D03*
X148971000Y-137541000D03*
X148971000Y-135001000D03*
X148971000Y-132461000D03*
%TD*%
D14*
%TO.C,J50*%
X146177000Y-103754000D03*
D15*
X146177000Y-101214000D03*
X146177000Y-98674000D03*
X146177000Y-96134000D03*
X146177000Y-93594000D03*
%TD*%
D14*
%TO.C,J63*%
X112903000Y-116713000D03*
D15*
X112903000Y-114173000D03*
X112903000Y-111633000D03*
X112903000Y-109093000D03*
X112903000Y-106553000D03*
%TD*%
D14*
%TO.C,J16*%
X128143000Y-77846000D03*
D15*
X128143000Y-75306000D03*
X128143000Y-72766000D03*
X128143000Y-70226000D03*
X128143000Y-67686000D03*
%TD*%
D14*
%TO.C,J51*%
X130937000Y-103759000D03*
D15*
X130937000Y-101219000D03*
X130937000Y-98679000D03*
X130937000Y-96139000D03*
X130937000Y-93599000D03*
%TD*%
D14*
%TO.C,J90*%
X110109000Y-142616000D03*
D15*
X110109000Y-140076000D03*
X110109000Y-137536000D03*
X110109000Y-134996000D03*
X110109000Y-132456000D03*
%TD*%
D14*
%TO.C,J39*%
X148971000Y-90805000D03*
D15*
X148971000Y-88265000D03*
X148971000Y-85725000D03*
X148971000Y-83185000D03*
X148971000Y-80645000D03*
%TD*%
D14*
%TO.C,J57*%
X167005000Y-103759000D03*
D15*
X167005000Y-101219000D03*
X167005000Y-98679000D03*
X167005000Y-96139000D03*
X167005000Y-93599000D03*
%TD*%
D14*
%TO.C,J91*%
X128143000Y-142616000D03*
D15*
X128143000Y-140076000D03*
X128143000Y-137536000D03*
X128143000Y-134996000D03*
X128143000Y-132456000D03*
%TD*%
D14*
%TO.C,J62*%
X94869000Y-116713000D03*
D15*
X94869000Y-114173000D03*
X94869000Y-111633000D03*
X94869000Y-109093000D03*
X94869000Y-106553000D03*
%TD*%
D14*
%TO.C,J53*%
X164211000Y-103754000D03*
D15*
X164211000Y-101214000D03*
X164211000Y-98674000D03*
X164211000Y-96134000D03*
X164211000Y-93594000D03*
%TD*%
D14*
%TO.C,J96*%
X130937000Y-142621000D03*
D15*
X130937000Y-140081000D03*
X130937000Y-137541000D03*
X130937000Y-135001000D03*
X130937000Y-132461000D03*
%TD*%
D14*
%TO.C,J18*%
X112903000Y-77851000D03*
D15*
X112903000Y-75311000D03*
X112903000Y-72771000D03*
X112903000Y-70231000D03*
X112903000Y-67691000D03*
%TD*%
D14*
%TO.C,J41*%
X182245000Y-90800000D03*
D15*
X182245000Y-88260000D03*
X182245000Y-85720000D03*
X182245000Y-83180000D03*
X182245000Y-80640000D03*
%TD*%
D14*
%TO.C,J47*%
X94869000Y-103759000D03*
D15*
X94869000Y-101219000D03*
X94869000Y-98679000D03*
X94869000Y-96139000D03*
X94869000Y-93599000D03*
%TD*%
D14*
%TO.C,J3*%
X94869000Y-64897000D03*
D15*
X94869000Y-62357000D03*
X94869000Y-59817000D03*
X94869000Y-57277000D03*
X94869000Y-54737000D03*
%TD*%
D14*
%TO.C,J6*%
X130937000Y-64897000D03*
D15*
X130937000Y-62357000D03*
X130937000Y-59817000D03*
X130937000Y-57277000D03*
X130937000Y-54737000D03*
%TD*%
D14*
%TO.C,J15*%
X110109000Y-77846000D03*
D15*
X110109000Y-75306000D03*
X110109000Y-72766000D03*
X110109000Y-70226000D03*
X110109000Y-67686000D03*
%TD*%
D14*
%TO.C,J33*%
X112903000Y-90805000D03*
D15*
X112903000Y-88265000D03*
X112903000Y-85725000D03*
X112903000Y-83185000D03*
X112903000Y-80645000D03*
%TD*%
D14*
%TO.C,J8*%
X164211000Y-64892000D03*
D15*
X164211000Y-62352000D03*
X164211000Y-59812000D03*
X164211000Y-57272000D03*
X164211000Y-54732000D03*
%TD*%
D14*
%TO.C,J32*%
X94869000Y-90805000D03*
D15*
X94869000Y-88265000D03*
X94869000Y-85725000D03*
X94869000Y-83185000D03*
X94869000Y-80645000D03*
%TD*%
D14*
%TO.C,J2*%
X128143000Y-64892000D03*
D15*
X128143000Y-62352000D03*
X128143000Y-59812000D03*
X128143000Y-57272000D03*
X128143000Y-54732000D03*
%TD*%
D14*
%TO.C,J78*%
X112903000Y-129667000D03*
D15*
X112903000Y-127127000D03*
X112903000Y-124587000D03*
X112903000Y-122047000D03*
X112903000Y-119507000D03*
%TD*%
D14*
%TO.C,J60*%
X110109000Y-116708000D03*
D15*
X110109000Y-114168000D03*
X110109000Y-111628000D03*
X110109000Y-109088000D03*
X110109000Y-106548000D03*
%TD*%
D14*
%TO.C,J21*%
X130937000Y-77851000D03*
D15*
X130937000Y-75311000D03*
X130937000Y-72771000D03*
X130937000Y-70231000D03*
X130937000Y-67691000D03*
%TD*%
D14*
%TO.C,J9*%
X148971000Y-64897000D03*
D15*
X148971000Y-62357000D03*
X148971000Y-59817000D03*
X148971000Y-57277000D03*
X148971000Y-54737000D03*
%TD*%
D14*
%TO.C,J86*%
X182245000Y-129662000D03*
D15*
X182245000Y-127122000D03*
X182245000Y-124582000D03*
X182245000Y-122042000D03*
X182245000Y-119502000D03*
%TD*%
M02*
