M48
; DRILL file {KiCad (6.0.7)} date Thu Nov  3 07:54:53 2022
; FORMAT={-:-/ absolute / inch / decimal}
; #@! TF.CreationDate,2022-11-03T07:54:53+08:00
; #@! TF.GenerationSoftware,Kicad,Pcbnew,(6.0.7)
; #@! TF.FileFunction,Plated,1,2,PTH
FMAT,2
INCH
; #@! TA.AperFunction,Plated,PTH,ViaDrill
T1C0.0079
; #@! TA.AperFunction,Plated,PTH,ViaDrill
T2C0.0157
; #@! TA.AperFunction,Plated,PTH,ComponentDrill
T3C0.0197
; #@! TA.AperFunction,Plated,PTH,ComponentDrill
T4C0.0236
; #@! TA.AperFunction,Plated,PTH,ComponentDrill
T5C0.0394
%
G90
G05
T1
X3.9849Y-2.27
X3.9849Y-2.78
X3.9849Y-3.29
X3.9849Y-3.8
X3.9849Y-4.31
X3.9849Y-4.82
X3.9849Y-5.33
X4.025Y-2.23
X4.025Y-2.74
X4.025Y-3.25
X4.025Y-3.76
X4.025Y-4.27
X4.025Y-4.78
X4.025Y-5.29
X4.045Y-2.21
X4.045Y-2.72
X4.045Y-3.23
X4.045Y-3.74
X4.045Y-4.25
X4.045Y-4.76
X4.045Y-5.27
X4.0842Y-2.2451
X4.0842Y-2.7551
X4.0842Y-3.2651
X4.0842Y-3.7751
X4.0842Y-4.2851
X4.0842Y-4.7951
X4.0842Y-5.3051
X4.695Y-2.235
X4.695Y-2.745
X4.695Y-3.255
X4.695Y-3.765
X4.695Y-4.275
X4.695Y-4.785
X4.695Y-5.295
X4.735Y-2.23
X4.735Y-2.74
X4.735Y-3.25
X4.735Y-3.76
X4.735Y-4.27
X4.735Y-4.78
X4.735Y-5.29
X4.755Y-2.21
X4.755Y-2.72
X4.755Y-3.23
X4.755Y-3.74
X4.755Y-4.25
X4.755Y-4.76
X4.755Y-5.27
X4.7942Y-2.2451
X4.7942Y-2.7551
X4.7942Y-3.2651
X4.7942Y-3.7751
X4.7942Y-4.2851
X4.7942Y-4.7951
X4.7942Y-5.3051
X5.405Y-2.235
X5.405Y-2.745
X5.405Y-3.255
X5.405Y-3.765
X5.405Y-4.275
X5.405Y-4.785
X5.405Y-5.295
X5.445Y-2.23
X5.445Y-2.74
X5.445Y-3.25
X5.445Y-3.76
X5.445Y-4.27
X5.445Y-4.78
X5.445Y-5.29
X5.465Y-2.21
X5.465Y-2.72
X5.465Y-3.23
X5.465Y-3.74
X5.465Y-4.25
X5.465Y-4.76
X5.465Y-5.27
X5.5042Y-2.2451
X5.5042Y-2.7551
X5.5042Y-3.2651
X5.5042Y-3.7751
X5.5042Y-4.2851
X5.5042Y-4.7951
X5.5042Y-5.3051
X6.115Y-2.235
X6.115Y-2.745
X6.115Y-3.255
X6.115Y-3.765
X6.115Y-4.275
X6.115Y-4.785
X6.115Y-5.295
X6.155Y-2.23
X6.155Y-2.74
X6.155Y-3.25
X6.155Y-3.76
X6.155Y-4.27
X6.155Y-4.78
X6.155Y-5.29
X6.175Y-2.21
X6.175Y-2.72
X6.175Y-3.23
X6.175Y-3.74
X6.175Y-4.25
X6.175Y-4.76
X6.175Y-5.27
X6.2142Y-2.2451
X6.2142Y-2.7551
X6.2142Y-3.2651
X6.2142Y-3.7751
X6.2142Y-4.2851
X6.2142Y-4.7951
X6.2142Y-5.3051
X6.825Y-2.235
X6.825Y-2.745
X6.825Y-3.255
X6.825Y-3.765
X6.825Y-4.275
X6.825Y-4.785
X6.825Y-5.295
X6.865Y-2.23
X6.865Y-2.74
X6.865Y-3.25
X6.865Y-3.76
X6.865Y-4.27
X6.865Y-4.78
X6.865Y-5.29
X6.885Y-2.21
X6.885Y-2.72
X6.885Y-3.23
X6.885Y-3.74
X6.885Y-4.25
X6.885Y-4.76
X6.885Y-5.27
X6.9242Y-2.2451
X6.9242Y-2.7551
X6.9242Y-3.2651
X6.9242Y-3.7751
X6.9242Y-4.2851
X6.9242Y-4.7951
X6.9242Y-5.3051
T2
X3.97Y-2.39
X3.97Y-2.9
X3.97Y-3.41
X3.97Y-3.92
X3.97Y-4.43
X3.97Y-4.94
X3.97Y-5.45
X4.1Y-2.39
X4.1Y-2.9
X4.1Y-3.41
X4.1Y-3.92
X4.1Y-4.43
X4.1Y-4.94
X4.1Y-5.45
X4.68Y-2.345
X4.68Y-2.855
X4.68Y-3.365
X4.68Y-3.875
X4.68Y-4.385
X4.68Y-4.895
X4.68Y-5.405
X4.81Y-2.345
X4.81Y-2.855
X4.81Y-3.365
X4.81Y-3.875
X4.81Y-4.385
X4.81Y-4.895
X4.81Y-5.405
X5.39Y-2.345
X5.39Y-2.855
X5.39Y-3.365
X5.39Y-3.875
X5.39Y-4.385
X5.39Y-4.895
X5.39Y-5.405
X5.52Y-2.345
X5.52Y-2.855
X5.52Y-3.365
X5.52Y-3.875
X5.52Y-4.385
X5.52Y-4.895
X5.52Y-5.405
X6.1Y-2.345
X6.1Y-2.855
X6.1Y-3.365
X6.1Y-3.875
X6.1Y-4.385
X6.1Y-4.895
X6.1Y-5.405
X6.23Y-2.345
X6.23Y-2.855
X6.23Y-3.365
X6.23Y-3.875
X6.23Y-4.385
X6.23Y-4.895
X6.23Y-5.405
X6.81Y-2.345
X6.81Y-2.855
X6.81Y-3.365
X6.81Y-3.875
X6.81Y-4.385
X6.81Y-4.895
X6.81Y-5.405
X6.94Y-2.345
X6.94Y-2.855
X6.94Y-3.365
X6.94Y-3.875
X6.94Y-4.385
X6.94Y-4.895
X6.94Y-5.405
T5
X3.735Y-2.155
X3.735Y-2.255
X3.735Y-2.355
X3.735Y-2.455
X3.735Y-2.555
X3.735Y-2.665
X3.735Y-2.765
X3.735Y-2.865
X3.735Y-2.965
X3.735Y-3.065
X3.735Y-3.175
X3.735Y-3.275
X3.735Y-3.375
X3.735Y-3.475
X3.735Y-3.575
X3.735Y-3.685
X3.735Y-3.785
X3.735Y-3.885
X3.735Y-3.985
X3.735Y-4.085
X3.735Y-4.195
X3.735Y-4.295
X3.735Y-4.395
X3.735Y-4.495
X3.735Y-4.595
X3.735Y-4.705
X3.735Y-4.805
X3.735Y-4.905
X3.735Y-5.005
X3.735Y-5.105
X3.735Y-5.215
X3.735Y-5.315
X3.735Y-5.415
X3.735Y-5.515
X3.735Y-5.615
X4.335Y-2.1548
X4.335Y-2.2548
X4.335Y-2.3548
X4.335Y-2.4548
X4.335Y-2.5548
X4.335Y-2.6648
X4.335Y-2.7648
X4.335Y-2.8648
X4.335Y-2.9648
X4.335Y-3.0648
X4.335Y-3.1748
X4.335Y-3.2748
X4.335Y-3.3748
X4.335Y-3.4748
X4.335Y-3.5748
X4.335Y-3.6848
X4.335Y-3.7848
X4.335Y-3.8848
X4.335Y-3.9848
X4.335Y-4.0848
X4.335Y-4.1948
X4.335Y-4.2948
X4.335Y-4.3948
X4.335Y-4.4948
X4.335Y-4.5948
X4.335Y-4.7048
X4.335Y-4.8048
X4.335Y-4.9048
X4.335Y-5.0048
X4.335Y-5.1048
X4.335Y-5.2148
X4.335Y-5.3148
X4.335Y-5.4148
X4.335Y-5.5148
X4.335Y-5.6148
X4.445Y-2.155
X4.445Y-2.255
X4.445Y-2.355
X4.445Y-2.455
X4.445Y-2.555
X4.445Y-2.665
X4.445Y-2.765
X4.445Y-2.865
X4.445Y-2.965
X4.445Y-3.065
X4.445Y-3.175
X4.445Y-3.275
X4.445Y-3.375
X4.445Y-3.475
X4.445Y-3.575
X4.445Y-3.685
X4.445Y-3.785
X4.445Y-3.885
X4.445Y-3.985
X4.445Y-4.085
X4.445Y-4.195
X4.445Y-4.295
X4.445Y-4.395
X4.445Y-4.495
X4.445Y-4.595
X4.445Y-4.705
X4.445Y-4.805
X4.445Y-4.905
X4.445Y-5.005
X4.445Y-5.105
X4.445Y-5.215
X4.445Y-5.315
X4.445Y-5.415
X4.445Y-5.515
X4.445Y-5.615
X5.045Y-2.1548
X5.045Y-2.2548
X5.045Y-2.3548
X5.045Y-2.4548
X5.045Y-2.5548
X5.045Y-2.6648
X5.045Y-2.7648
X5.045Y-2.8648
X5.045Y-2.9648
X5.045Y-3.0648
X5.045Y-3.1748
X5.045Y-3.2748
X5.045Y-3.3748
X5.045Y-3.4748
X5.045Y-3.5748
X5.045Y-3.6848
X5.045Y-3.7848
X5.045Y-3.8848
X5.045Y-3.9848
X5.045Y-4.0848
X5.045Y-4.1948
X5.045Y-4.2948
X5.045Y-4.3948
X5.045Y-4.4948
X5.045Y-4.5948
X5.045Y-4.7048
X5.045Y-4.8048
X5.045Y-4.9048
X5.045Y-5.0048
X5.045Y-5.1048
X5.045Y-5.2148
X5.045Y-5.3148
X5.045Y-5.4148
X5.045Y-5.5148
X5.045Y-5.6148
X5.155Y-2.155
X5.155Y-2.255
X5.155Y-2.355
X5.155Y-2.455
X5.155Y-2.555
X5.155Y-2.665
X5.155Y-2.765
X5.155Y-2.865
X5.155Y-2.965
X5.155Y-3.065
X5.155Y-3.175
X5.155Y-3.275
X5.155Y-3.375
X5.155Y-3.475
X5.155Y-3.575
X5.155Y-3.685
X5.155Y-3.785
X5.155Y-3.885
X5.155Y-3.985
X5.155Y-4.085
X5.155Y-4.195
X5.155Y-4.295
X5.155Y-4.395
X5.155Y-4.495
X5.155Y-4.595
X5.155Y-4.705
X5.155Y-4.805
X5.155Y-4.905
X5.155Y-5.005
X5.155Y-5.105
X5.155Y-5.215
X5.155Y-5.315
X5.155Y-5.415
X5.155Y-5.515
X5.155Y-5.615
X5.755Y-2.1548
X5.755Y-2.2548
X5.755Y-2.3548
X5.755Y-2.4548
X5.755Y-2.5548
X5.755Y-2.6648
X5.755Y-2.7648
X5.755Y-2.8648
X5.755Y-2.9648
X5.755Y-3.0648
X5.755Y-3.1748
X5.755Y-3.2748
X5.755Y-3.3748
X5.755Y-3.4748
X5.755Y-3.5748
X5.755Y-3.6848
X5.755Y-3.7848
X5.755Y-3.8848
X5.755Y-3.9848
X5.755Y-4.0848
X5.755Y-4.1948
X5.755Y-4.2948
X5.755Y-4.3948
X5.755Y-4.4948
X5.755Y-4.5948
X5.755Y-4.7048
X5.755Y-4.8048
X5.755Y-4.9048
X5.755Y-5.0048
X5.755Y-5.1048
X5.755Y-5.2148
X5.755Y-5.3148
X5.755Y-5.4148
X5.755Y-5.5148
X5.755Y-5.6148
X5.865Y-2.155
X5.865Y-2.255
X5.865Y-2.355
X5.865Y-2.455
X5.865Y-2.555
X5.865Y-2.665
X5.865Y-2.765
X5.865Y-2.865
X5.865Y-2.965
X5.865Y-3.065
X5.865Y-3.175
X5.865Y-3.275
X5.865Y-3.375
X5.865Y-3.475
X5.865Y-3.575
X5.865Y-3.685
X5.865Y-3.785
X5.865Y-3.885
X5.865Y-3.985
X5.865Y-4.085
X5.865Y-4.195
X5.865Y-4.295
X5.865Y-4.395
X5.865Y-4.495
X5.865Y-4.595
X5.865Y-4.705
X5.865Y-4.805
X5.865Y-4.905
X5.865Y-5.005
X5.865Y-5.105
X5.865Y-5.215
X5.865Y-5.315
X5.865Y-5.415
X5.865Y-5.515
X5.865Y-5.615
X6.465Y-2.1548
X6.465Y-2.2548
X6.465Y-2.3548
X6.465Y-2.4548
X6.465Y-2.5548
X6.465Y-2.6648
X6.465Y-2.7648
X6.465Y-2.8648
X6.465Y-2.9648
X6.465Y-3.0648
X6.465Y-3.1748
X6.465Y-3.2748
X6.465Y-3.3748
X6.465Y-3.4748
X6.465Y-3.5748
X6.465Y-3.6848
X6.465Y-3.7848
X6.465Y-3.8848
X6.465Y-3.9848
X6.465Y-4.0848
X6.465Y-4.1948
X6.465Y-4.2948
X6.465Y-4.3948
X6.465Y-4.4948
X6.465Y-4.5948
X6.465Y-4.7048
X6.465Y-4.8048
X6.465Y-4.9048
X6.465Y-5.0048
X6.465Y-5.1048
X6.465Y-5.2148
X6.465Y-5.3148
X6.465Y-5.4148
X6.465Y-5.5148
X6.465Y-5.6148
X6.575Y-2.155
X6.575Y-2.255
X6.575Y-2.355
X6.575Y-2.455
X6.575Y-2.555
X6.575Y-2.665
X6.575Y-2.765
X6.575Y-2.865
X6.575Y-2.965
X6.575Y-3.065
X6.575Y-3.175
X6.575Y-3.275
X6.575Y-3.375
X6.575Y-3.475
X6.575Y-3.575
X6.575Y-3.685
X6.575Y-3.785
X6.575Y-3.885
X6.575Y-3.985
X6.575Y-4.085
X6.575Y-4.195
X6.575Y-4.295
X6.575Y-4.395
X6.575Y-4.495
X6.575Y-4.595
X6.575Y-4.705
X6.575Y-4.805
X6.575Y-4.905
X6.575Y-5.005
X6.575Y-5.105
X6.575Y-5.215
X6.575Y-5.315
X6.575Y-5.415
X6.575Y-5.515
X6.575Y-5.615
X7.175Y-2.1548
X7.175Y-2.2548
X7.175Y-2.3548
X7.175Y-2.4548
X7.175Y-2.5548
X7.175Y-2.6648
X7.175Y-2.7648
X7.175Y-2.8648
X7.175Y-2.9648
X7.175Y-3.0648
X7.175Y-3.1748
X7.175Y-3.2748
X7.175Y-3.3748
X7.175Y-3.4748
X7.175Y-3.5748
X7.175Y-3.6848
X7.175Y-3.7848
X7.175Y-3.8848
X7.175Y-3.9848
X7.175Y-4.0848
X7.175Y-4.1948
X7.175Y-4.2948
X7.175Y-4.3948
X7.175Y-4.4948
X7.175Y-4.5948
X7.175Y-4.7048
X7.175Y-4.8048
X7.175Y-4.9048
X7.175Y-5.0048
X7.175Y-5.1048
X7.175Y-5.2148
X7.175Y-5.3148
X7.175Y-5.4148
X7.175Y-5.5148
X7.175Y-5.6148
T3
G00X3.8423Y-2.3751
M15
G01X3.8423Y-2.4027
M16
G05
G00X3.8423Y-2.4932
M15
G01X3.8423Y-2.5208
M16
G05
G00X3.8423Y-2.8851
M15
G01X3.8423Y-2.9127
M16
G05
G00X3.8423Y-3.0032
M15
G01X3.8423Y-3.0308
M16
G05
G00X3.8423Y-3.3951
M15
G01X3.8423Y-3.4227
M16
G05
G00X3.8423Y-3.5132
M15
G01X3.8423Y-3.5408
M16
G05
G00X3.8423Y-3.9051
M15
G01X3.8423Y-3.9327
M16
G05
G00X3.8423Y-4.0232
M15
G01X3.8423Y-4.0508
M16
G05
G00X3.8423Y-4.4151
M15
G01X3.8423Y-4.4427
M16
G05
G00X3.8423Y-4.5332
M15
G01X3.8423Y-4.5608
M16
G05
G00X3.8423Y-4.9251
M15
G01X3.8423Y-4.9527
M16
G05
G00X3.8423Y-5.0432
M15
G01X3.8423Y-5.0708
M16
G05
G00X3.8423Y-5.4351
M15
G01X3.8423Y-5.4627
M16
G05
G00X3.8423Y-5.5532
M15
G01X3.8423Y-5.5808
M16
G05
G00X4.2277Y-2.3751
M15
G01X4.2277Y-2.4027
M16
G05
G00X4.2277Y-2.4932
M15
G01X4.2277Y-2.5208
M16
G05
G00X4.2277Y-2.8851
M15
G01X4.2277Y-2.9127
M16
G05
G00X4.2277Y-3.0032
M15
G01X4.2277Y-3.0308
M16
G05
G00X4.2277Y-3.3951
M15
G01X4.2277Y-3.4227
M16
G05
G00X4.2277Y-3.5132
M15
G01X4.2277Y-3.5408
M16
G05
G00X4.2277Y-3.9051
M15
G01X4.2277Y-3.9327
M16
G05
G00X4.2277Y-4.0232
M15
G01X4.2277Y-4.0508
M16
G05
G00X4.2277Y-4.4151
M15
G01X4.2277Y-4.4427
M16
G05
G00X4.2277Y-4.5332
M15
G01X4.2277Y-4.5608
M16
G05
G00X4.2277Y-4.9251
M15
G01X4.2277Y-4.9527
M16
G05
G00X4.2277Y-5.0432
M15
G01X4.2277Y-5.0708
M16
G05
G00X4.2277Y-5.4351
M15
G01X4.2277Y-5.4627
M16
G05
G00X4.2277Y-5.5532
M15
G01X4.2277Y-5.5808
M16
G05
T4
G00X4.5749Y-2.3001
M15
G01X4.5749Y-2.3434
M16
G05
G00X4.5749Y-2.4745
M15
G01X4.5749Y-2.4981
M16
G05
G00X4.5749Y-2.8101
M15
G01X4.5749Y-2.8534
M16
G05
G00X4.5749Y-2.9845
M15
G01X4.5749Y-3.0081
M16
G05
G00X4.5749Y-3.3201
M15
G01X4.5749Y-3.3634
M16
G05
G00X4.5749Y-3.4945
M15
G01X4.5749Y-3.5181
M16
G05
G00X4.5749Y-3.8301
M15
G01X4.5749Y-3.8734
M16
G05
G00X4.5749Y-4.0045
M15
G01X4.5749Y-4.0281
M16
G05
G00X4.5749Y-4.3401
M15
G01X4.5749Y-4.3834
M16
G05
G00X4.5749Y-4.5145
M15
G01X4.5749Y-4.5381
M16
G05
G00X4.5749Y-4.8501
M15
G01X4.5749Y-4.8934
M16
G05
G00X4.5749Y-5.0245
M15
G01X4.5749Y-5.0481
M16
G05
G00X4.5749Y-5.3601
M15
G01X4.5749Y-5.4034
M16
G05
G00X4.5749Y-5.5345
M15
G01X4.5749Y-5.5581
M16
G05
G00X4.9151Y-2.3001
M15
G01X4.9151Y-2.3434
M16
G05
G00X4.9151Y-2.4745
M15
G01X4.9151Y-2.4981
M16
G05
G00X4.9151Y-2.8101
M15
G01X4.9151Y-2.8534
M16
G05
G00X4.9151Y-2.9845
M15
G01X4.9151Y-3.0081
M16
G05
G00X4.9151Y-3.3201
M15
G01X4.9151Y-3.3634
M16
G05
G00X4.9151Y-3.4945
M15
G01X4.9151Y-3.5181
M16
G05
G00X4.9151Y-3.8301
M15
G01X4.9151Y-3.8734
M16
G05
G00X4.9151Y-4.0045
M15
G01X4.9151Y-4.0281
M16
G05
G00X4.9151Y-4.3401
M15
G01X4.9151Y-4.3834
M16
G05
G00X4.9151Y-4.5145
M15
G01X4.9151Y-4.5381
M16
G05
G00X4.9151Y-4.8501
M15
G01X4.9151Y-4.8934
M16
G05
G00X4.9151Y-5.0245
M15
G01X4.9151Y-5.0481
M16
G05
G00X4.9151Y-5.3601
M15
G01X4.9151Y-5.4034
M16
G05
G00X4.9151Y-5.5345
M15
G01X4.9151Y-5.5581
M16
G05
G00X5.2849Y-2.3001
M15
G01X5.2849Y-2.3434
M16
G05
G00X5.2849Y-2.4745
M15
G01X5.2849Y-2.4981
M16
G05
G00X5.2849Y-2.8101
M15
G01X5.2849Y-2.8534
M16
G05
G00X5.2849Y-2.9845
M15
G01X5.2849Y-3.0081
M16
G05
G00X5.2849Y-3.3201
M15
G01X5.2849Y-3.3634
M16
G05
G00X5.2849Y-3.4945
M15
G01X5.2849Y-3.5181
M16
G05
G00X5.2849Y-3.8301
M15
G01X5.2849Y-3.8734
M16
G05
G00X5.2849Y-4.0045
M15
G01X5.2849Y-4.0281
M16
G05
G00X5.2849Y-4.3401
M15
G01X5.2849Y-4.3834
M16
G05
G00X5.2849Y-4.5145
M15
G01X5.2849Y-4.5381
M16
G05
G00X5.2849Y-4.8501
M15
G01X5.2849Y-4.8934
M16
G05
G00X5.2849Y-5.0245
M15
G01X5.2849Y-5.0481
M16
G05
G00X5.2849Y-5.3601
M15
G01X5.2849Y-5.4034
M16
G05
G00X5.2849Y-5.5345
M15
G01X5.2849Y-5.5581
M16
G05
G00X5.6251Y-2.3001
M15
G01X5.6251Y-2.3434
M16
G05
G00X5.6251Y-2.4745
M15
G01X5.6251Y-2.4981
M16
G05
G00X5.6251Y-2.8101
M15
G01X5.6251Y-2.8534
M16
G05
G00X5.6251Y-2.9845
M15
G01X5.6251Y-3.0081
M16
G05
G00X5.6251Y-3.3201
M15
G01X5.6251Y-3.3634
M16
G05
G00X5.6251Y-3.4945
M15
G01X5.6251Y-3.5181
M16
G05
G00X5.6251Y-3.8301
M15
G01X5.6251Y-3.8734
M16
G05
G00X5.6251Y-4.0045
M15
G01X5.6251Y-4.0281
M16
G05
G00X5.6251Y-4.3401
M15
G01X5.6251Y-4.3834
M16
G05
G00X5.6251Y-4.5145
M15
G01X5.6251Y-4.5381
M16
G05
G00X5.6251Y-4.8501
M15
G01X5.6251Y-4.8934
M16
G05
G00X5.6251Y-5.0245
M15
G01X5.6251Y-5.0481
M16
G05
G00X5.6251Y-5.3601
M15
G01X5.6251Y-5.4034
M16
G05
G00X5.6251Y-5.5345
M15
G01X5.6251Y-5.5581
M16
G05
G00X5.9949Y-2.3001
M15
G01X5.9949Y-2.3434
M16
G05
G00X5.9949Y-2.4745
M15
G01X5.9949Y-2.4981
M16
G05
G00X5.9949Y-2.8101
M15
G01X5.9949Y-2.8534
M16
G05
G00X5.9949Y-2.9845
M15
G01X5.9949Y-3.0081
M16
G05
G00X5.9949Y-3.3201
M15
G01X5.9949Y-3.3634
M16
G05
G00X5.9949Y-3.4945
M15
G01X5.9949Y-3.5181
M16
G05
G00X5.9949Y-3.8301
M15
G01X5.9949Y-3.8734
M16
G05
G00X5.9949Y-4.0045
M15
G01X5.9949Y-4.0281
M16
G05
G00X5.9949Y-4.3401
M15
G01X5.9949Y-4.3834
M16
G05
G00X5.9949Y-4.5145
M15
G01X5.9949Y-4.5381
M16
G05
G00X5.9949Y-4.8501
M15
G01X5.9949Y-4.8934
M16
G05
G00X5.9949Y-5.0245
M15
G01X5.9949Y-5.0481
M16
G05
G00X5.9949Y-5.3601
M15
G01X5.9949Y-5.4034
M16
G05
G00X5.9949Y-5.5345
M15
G01X5.9949Y-5.5581
M16
G05
G00X6.3351Y-2.3001
M15
G01X6.3351Y-2.3434
M16
G05
G00X6.3351Y-2.4745
M15
G01X6.3351Y-2.4981
M16
G05
G00X6.3351Y-2.8101
M15
G01X6.3351Y-2.8534
M16
G05
G00X6.3351Y-2.9845
M15
G01X6.3351Y-3.0081
M16
G05
G00X6.3351Y-3.3201
M15
G01X6.3351Y-3.3634
M16
G05
G00X6.3351Y-3.4945
M15
G01X6.3351Y-3.5181
M16
G05
G00X6.3351Y-3.8301
M15
G01X6.3351Y-3.8734
M16
G05
G00X6.3351Y-4.0045
M15
G01X6.3351Y-4.0281
M16
G05
G00X6.3351Y-4.3401
M15
G01X6.3351Y-4.3834
M16
G05
G00X6.3351Y-4.5145
M15
G01X6.3351Y-4.5381
M16
G05
G00X6.3351Y-4.8501
M15
G01X6.3351Y-4.8934
M16
G05
G00X6.3351Y-5.0245
M15
G01X6.3351Y-5.0481
M16
G05
G00X6.3351Y-5.3601
M15
G01X6.3351Y-5.4034
M16
G05
G00X6.3351Y-5.5345
M15
G01X6.3351Y-5.5581
M16
G05
G00X6.7049Y-2.3001
M15
G01X6.7049Y-2.3434
M16
G05
G00X6.7049Y-2.4745
M15
G01X6.7049Y-2.4981
M16
G05
G00X6.7049Y-2.8101
M15
G01X6.7049Y-2.8534
M16
G05
G00X6.7049Y-2.9845
M15
G01X6.7049Y-3.0081
M16
G05
G00X6.7049Y-3.3201
M15
G01X6.7049Y-3.3634
M16
G05
G00X6.7049Y-3.4945
M15
G01X6.7049Y-3.5181
M16
G05
G00X6.7049Y-3.8301
M15
G01X6.7049Y-3.8734
M16
G05
G00X6.7049Y-4.0045
M15
G01X6.7049Y-4.0281
M16
G05
G00X6.7049Y-4.3401
M15
G01X6.7049Y-4.3834
M16
G05
G00X6.7049Y-4.5145
M15
G01X6.7049Y-4.5381
M16
G05
G00X6.7049Y-4.8501
M15
G01X6.7049Y-4.8934
M16
G05
G00X6.7049Y-5.0245
M15
G01X6.7049Y-5.0481
M16
G05
G00X6.7049Y-5.3601
M15
G01X6.7049Y-5.4034
M16
G05
G00X6.7049Y-5.5345
M15
G01X6.7049Y-5.5581
M16
G05
G00X7.0451Y-2.3001
M15
G01X7.0451Y-2.3434
M16
G05
G00X7.0451Y-2.4745
M15
G01X7.0451Y-2.4981
M16
G05
G00X7.0451Y-2.8101
M15
G01X7.0451Y-2.8534
M16
G05
G00X7.0451Y-2.9845
M15
G01X7.0451Y-3.0081
M16
G05
G00X7.0451Y-3.3201
M15
G01X7.0451Y-3.3634
M16
G05
G00X7.0451Y-3.4945
M15
G01X7.0451Y-3.5181
M16
G05
G00X7.0451Y-3.8301
M15
G01X7.0451Y-3.8734
M16
G05
G00X7.0451Y-4.0045
M15
G01X7.0451Y-4.0281
M16
G05
G00X7.0451Y-4.3401
M15
G01X7.0451Y-4.3834
M16
G05
G00X7.0451Y-4.5145
M15
G01X7.0451Y-4.5381
M16
G05
G00X7.0451Y-4.8501
M15
G01X7.0451Y-4.8934
M16
G05
G00X7.0451Y-5.0245
M15
G01X7.0451Y-5.0481
M16
G05
G00X7.0451Y-5.3601
M15
G01X7.0451Y-5.4034
M16
G05
G00X7.0451Y-5.5345
M15
G01X7.0451Y-5.5581
M16
G05
T0
M30
