M48
; DRILL file {KiCad (6.0.11)} date Fri Apr 14 16:13:49 2023
; FORMAT={-:-/ absolute / inch / decimal}
; #@! TF.CreationDate,2023-04-14T16:13:49+08:00
; #@! TF.GenerationSoftware,Kicad,Pcbnew,(6.0.11)
; #@! TF.FileFunction,NonPlated,1,2,NPTH
FMAT,2
INCH
; #@! TA.AperFunction,NonPlated,NPTH,ComponentDrill
T1C0.0256
%
G90
G05
T1
X5.4862Y-4.2876
X5.4862Y-4.7976
X5.4862Y-5.3076
X5.4862Y-5.8176
X5.4862Y-6.3276
X5.4862Y-6.8376
X5.7138Y-4.2876
X5.7138Y-4.7976
X5.7138Y-5.3076
X5.7138Y-5.8176
X5.7138Y-6.3276
X5.7138Y-6.8376
X6.0862Y-4.2876
X6.0862Y-4.7976
X6.0862Y-5.3076
X6.0862Y-5.8176
X6.0862Y-6.3276
X6.0862Y-6.8376
X6.3138Y-4.2876
X6.3138Y-4.7976
X6.3138Y-5.3076
X6.3138Y-5.8176
X6.3138Y-6.3276
X6.3138Y-6.8376
X6.6862Y-4.2876
X6.6862Y-4.7976
X6.6862Y-5.3076
X6.6862Y-5.8176
X6.6862Y-6.3276
X6.6862Y-6.8376
X6.9138Y-4.2876
X6.9138Y-4.7976
X6.9138Y-5.3076
X6.9138Y-5.8176
X6.9138Y-6.3276
X6.9138Y-6.8376
X7.2862Y-4.2876
X7.2862Y-4.7976
X7.2862Y-5.3076
X7.2862Y-5.8176
X7.2862Y-6.3276
X7.2862Y-6.8376
X7.5138Y-4.2876
X7.5138Y-4.7976
X7.5138Y-5.3076
X7.5138Y-5.8176
X7.5138Y-6.3276
X7.5138Y-6.8376
X7.8862Y-4.2876
X7.8862Y-4.7976
X7.8862Y-5.3076
X7.8862Y-5.8176
X7.8862Y-6.3276
X7.8862Y-6.8376
X8.1138Y-4.2876
X8.1138Y-4.7976
X8.1138Y-5.3076
X8.1138Y-5.8176
X8.1138Y-6.3276
X8.1138Y-6.8376
X8.4862Y-4.2876
X8.4862Y-4.7976
X8.4862Y-5.3076
X8.4862Y-5.8176
X8.4862Y-6.3276
X8.4862Y-6.8376
X8.7138Y-4.2876
X8.7138Y-4.7976
X8.7138Y-5.3076
X8.7138Y-5.8176
X8.7138Y-6.3276
X8.7138Y-6.8376
T0
M30
