M48
; DRILL file {KiCad (6.0.7)} date Sun Apr 16 01:29:06 2023
; FORMAT={-:-/ absolute / inch / decimal}
; #@! TF.CreationDate,2023-04-16T01:29:06+08:00
; #@! TF.GenerationSoftware,Kicad,Pcbnew,(6.0.7)
; #@! TF.FileFunction,NonPlated,1,2,NPTH
FMAT,2
INCH
; #@! TA.AperFunction,NonPlated,NPTH,ComponentDrill
T1C0.0256
%
G90
G05
T1
X2.9112Y-2.2876
X2.9112Y-2.7976
X2.9112Y-3.3076
X2.9112Y-3.8176
X2.9112Y-4.3276
X2.9112Y-4.8376
X2.9112Y-5.3476
X3.1388Y-2.2876
X3.1388Y-2.7976
X3.1388Y-3.3076
X3.1388Y-3.8176
X3.1388Y-4.3276
X3.1388Y-4.8376
X3.1388Y-5.3476
X3.5112Y-2.2876
X3.5112Y-2.7976
X3.5112Y-3.3076
X3.5112Y-3.8176
X3.5112Y-4.3276
X3.5112Y-4.8376
X3.5112Y-5.3476
X3.7388Y-2.2876
X3.7388Y-2.7976
X3.7388Y-3.3076
X3.7388Y-3.8176
X3.7388Y-4.3276
X3.7388Y-4.8376
X3.7388Y-5.3476
X4.1112Y-2.2876
X4.1112Y-2.7976
X4.1112Y-3.3076
X4.1112Y-3.8176
X4.1112Y-4.3276
X4.1112Y-4.8376
X4.1112Y-5.3476
X4.3388Y-2.2876
X4.3388Y-2.7976
X4.3388Y-3.3076
X4.3388Y-3.8176
X4.3388Y-4.3276
X4.3388Y-4.8376
X4.3388Y-5.3476
X4.7112Y-2.2876
X4.7112Y-2.7976
X4.7112Y-3.3076
X4.7112Y-3.8176
X4.7112Y-4.3276
X4.7112Y-4.8376
X4.7112Y-5.3476
X4.9388Y-2.2876
X4.9388Y-2.7976
X4.9388Y-3.3076
X4.9388Y-3.8176
X4.9388Y-4.3276
X4.9388Y-4.8376
X4.9388Y-5.3476
X5.3112Y-2.2876
X5.3112Y-2.7976
X5.3112Y-3.3076
X5.3112Y-3.8176
X5.3112Y-4.3276
X5.3112Y-4.8376
X5.3112Y-5.3476
X5.5388Y-2.2876
X5.5388Y-2.7976
X5.5388Y-3.3076
X5.5388Y-3.8176
X5.5388Y-4.3276
X5.5388Y-4.8376
X5.5388Y-5.3476
X5.9112Y-2.2876
X5.9112Y-2.7976
X5.9112Y-3.3076
X5.9112Y-3.8176
X5.9112Y-4.3276
X5.9112Y-4.8376
X5.9112Y-5.3476
X6.1388Y-2.2876
X6.1388Y-2.7976
X6.1388Y-3.3076
X6.1388Y-3.8176
X6.1388Y-4.3276
X6.1388Y-4.8376
X6.1388Y-5.3476
T0
M30
