M48
; DRILL file {KiCad (6.0.11)} date Fri Apr 14 16:13:49 2023
; FORMAT={-:-/ absolute / inch / decimal}
; #@! TF.CreationDate,2023-04-14T16:13:49+08:00
; #@! TF.GenerationSoftware,Kicad,Pcbnew,(6.0.11)
; #@! TF.FileFunction,Plated,1,2,PTH
FMAT,2
INCH
; #@! TA.AperFunction,Plated,PTH,ViaDrill
T1C0.0079
; #@! TA.AperFunction,Plated,PTH,ViaDrill
T2C0.0118
; #@! TA.AperFunction,Plated,PTH,ViaDrill
T3C0.0157
; #@! TA.AperFunction,Plated,PTH,ComponentDrill
T4C0.0236
; #@! TA.AperFunction,Plated,PTH,ComponentDrill
T5C0.0394
%
G90
G05
T1
X5.3976Y-4.126
X5.3976Y-4.636
X5.3976Y-5.146
X5.3976Y-5.656
X5.3976Y-6.166
X5.3976Y-6.676
X5.55Y-4.18
X5.55Y-4.69
X5.55Y-5.2
X5.55Y-5.71
X5.55Y-6.22
X5.55Y-6.73
X5.59Y-4.175
X5.59Y-4.685
X5.59Y-5.195
X5.59Y-5.705
X5.59Y-6.215
X5.59Y-6.725
X5.61Y-4.155
X5.61Y-4.665
X5.61Y-5.175
X5.61Y-5.685
X5.61Y-6.195
X5.61Y-6.705
X5.6492Y-4.1901
X5.6492Y-4.7001
X5.6492Y-5.2101
X5.6492Y-5.7201
X5.6492Y-6.2301
X5.6492Y-6.7401
X5.769Y-4.17
X5.769Y-4.68
X5.769Y-5.19
X5.769Y-5.7
X5.769Y-6.21
X5.769Y-6.72
X5.7835Y-4.0827
X5.7835Y-4.5927
X5.7835Y-5.1027
X5.7835Y-5.6127
X5.7835Y-6.1227
X5.7835Y-6.6327
X5.9976Y-4.126
X5.9976Y-4.636
X5.9976Y-5.146
X5.9976Y-5.656
X5.9976Y-6.166
X5.9976Y-6.676
X6.15Y-4.18
X6.15Y-4.69
X6.15Y-5.2
X6.15Y-5.71
X6.15Y-6.22
X6.15Y-6.73
X6.19Y-4.175
X6.19Y-4.685
X6.19Y-5.195
X6.19Y-5.705
X6.19Y-6.215
X6.19Y-6.725
X6.21Y-4.155
X6.21Y-4.665
X6.21Y-5.175
X6.21Y-5.685
X6.21Y-6.195
X6.21Y-6.705
X6.2492Y-4.1901
X6.2492Y-4.7001
X6.2492Y-5.2101
X6.2492Y-5.7201
X6.2492Y-6.2301
X6.2492Y-6.7401
X6.369Y-4.17
X6.369Y-4.68
X6.369Y-5.19
X6.369Y-5.7
X6.369Y-6.21
X6.369Y-6.72
X6.3835Y-4.0827
X6.3835Y-4.5927
X6.3835Y-5.1027
X6.3835Y-5.6127
X6.3835Y-6.1227
X6.3835Y-6.6327
X6.5976Y-4.126
X6.5976Y-4.636
X6.5976Y-5.146
X6.5976Y-5.656
X6.5976Y-6.166
X6.5976Y-6.676
X6.75Y-4.18
X6.75Y-4.69
X6.75Y-5.2
X6.75Y-5.71
X6.75Y-6.22
X6.75Y-6.73
X6.79Y-4.175
X6.79Y-4.685
X6.79Y-5.195
X6.79Y-5.705
X6.79Y-6.215
X6.79Y-6.725
X6.81Y-4.155
X6.81Y-4.665
X6.81Y-5.175
X6.81Y-5.685
X6.81Y-6.195
X6.81Y-6.705
X6.8492Y-4.1901
X6.8492Y-4.7001
X6.8492Y-5.2101
X6.8492Y-5.7201
X6.8492Y-6.2301
X6.8492Y-6.7401
X6.969Y-4.17
X6.969Y-4.68
X6.969Y-5.19
X6.969Y-5.7
X6.969Y-6.21
X6.969Y-6.72
X6.9835Y-4.0827
X6.9835Y-4.5927
X6.9835Y-5.1027
X6.9835Y-5.6127
X6.9835Y-6.1227
X6.9835Y-6.6327
X7.1976Y-4.126
X7.1976Y-4.636
X7.1976Y-5.146
X7.1976Y-5.656
X7.1976Y-6.166
X7.1976Y-6.676
X7.35Y-4.18
X7.35Y-4.69
X7.35Y-5.2
X7.35Y-5.71
X7.35Y-6.22
X7.35Y-6.73
X7.39Y-4.175
X7.39Y-4.685
X7.39Y-5.195
X7.39Y-5.705
X7.39Y-6.215
X7.39Y-6.725
X7.41Y-4.155
X7.41Y-4.665
X7.41Y-5.175
X7.41Y-5.685
X7.41Y-6.195
X7.41Y-6.705
X7.4492Y-4.1901
X7.4492Y-4.7001
X7.4492Y-5.2101
X7.4492Y-5.7201
X7.4492Y-6.2301
X7.4492Y-6.7401
X7.569Y-4.17
X7.569Y-4.68
X7.569Y-5.19
X7.569Y-5.7
X7.569Y-6.21
X7.569Y-6.72
X7.5835Y-4.0827
X7.5835Y-4.5927
X7.5835Y-5.1027
X7.5835Y-5.6127
X7.5835Y-6.1227
X7.5835Y-6.6327
X7.7976Y-4.126
X7.7976Y-4.636
X7.7976Y-5.146
X7.7976Y-5.656
X7.7976Y-6.166
X7.7976Y-6.676
X7.95Y-4.18
X7.95Y-4.69
X7.95Y-5.2
X7.95Y-5.71
X7.95Y-6.22
X7.95Y-6.73
X7.99Y-4.175
X7.99Y-4.685
X7.99Y-5.195
X7.99Y-5.705
X7.99Y-6.215
X7.99Y-6.725
X8.01Y-4.155
X8.01Y-4.665
X8.01Y-5.175
X8.01Y-5.685
X8.01Y-6.195
X8.01Y-6.705
X8.0492Y-4.1901
X8.0492Y-4.7001
X8.0492Y-5.2101
X8.0492Y-5.7201
X8.0492Y-6.2301
X8.0492Y-6.7401
X8.169Y-4.17
X8.169Y-4.68
X8.169Y-5.19
X8.169Y-5.7
X8.169Y-6.21
X8.169Y-6.72
X8.1835Y-4.0827
X8.1835Y-4.5927
X8.1835Y-5.1027
X8.1835Y-5.6127
X8.1835Y-6.1227
X8.1835Y-6.6327
X8.3976Y-4.126
X8.3976Y-4.636
X8.3976Y-5.146
X8.3976Y-5.656
X8.3976Y-6.166
X8.3976Y-6.676
X8.55Y-4.18
X8.55Y-4.69
X8.55Y-5.2
X8.55Y-5.71
X8.55Y-6.22
X8.55Y-6.73
X8.59Y-4.175
X8.59Y-4.685
X8.59Y-5.195
X8.59Y-5.705
X8.59Y-6.215
X8.59Y-6.725
X8.61Y-4.155
X8.61Y-4.665
X8.61Y-5.175
X8.61Y-5.685
X8.61Y-6.195
X8.61Y-6.705
X8.6492Y-4.1901
X8.6492Y-4.7001
X8.6492Y-5.2101
X8.6492Y-5.7201
X8.6492Y-6.2301
X8.6492Y-6.7401
X8.769Y-4.17
X8.769Y-4.68
X8.769Y-5.19
X8.769Y-5.7
X8.769Y-6.21
X8.769Y-6.72
X8.7835Y-4.0827
X8.7835Y-4.5927
X8.7835Y-5.1027
X8.7835Y-5.6127
X8.7835Y-6.1227
X8.7835Y-6.6327
T2
X5.34Y-4.47
X5.34Y-4.5
X5.34Y-4.53
X5.34Y-4.98
X5.34Y-5.01
X5.34Y-5.04
X5.34Y-5.49
X5.34Y-5.52
X5.34Y-5.55
X5.34Y-6.0
X5.34Y-6.03
X5.34Y-6.06
X5.34Y-6.51
X5.34Y-6.54
X5.34Y-6.57
X5.34Y-7.02
X5.34Y-7.05
X5.34Y-7.08
X5.86Y-4.47
X5.86Y-4.5
X5.86Y-4.53
X5.86Y-4.98
X5.86Y-5.01
X5.86Y-5.04
X5.86Y-5.49
X5.86Y-5.52
X5.86Y-5.55
X5.86Y-6.0
X5.86Y-6.03
X5.86Y-6.06
X5.86Y-6.51
X5.86Y-6.54
X5.86Y-6.57
X5.86Y-7.02
X5.86Y-7.05
X5.86Y-7.08
X5.94Y-4.47
X5.94Y-4.47
X5.94Y-4.5
X5.94Y-4.5
X5.94Y-4.53
X5.94Y-4.53
X5.94Y-4.98
X5.94Y-4.98
X5.94Y-5.01
X5.94Y-5.01
X5.94Y-5.04
X5.94Y-5.04
X5.94Y-5.49
X5.94Y-5.49
X5.94Y-5.52
X5.94Y-5.52
X5.94Y-5.55
X5.94Y-5.55
X5.94Y-6.0
X5.94Y-6.0
X5.94Y-6.03
X5.94Y-6.03
X5.94Y-6.06
X5.94Y-6.06
X5.94Y-6.51
X5.94Y-6.51
X5.94Y-6.54
X5.94Y-6.54
X5.94Y-6.57
X5.94Y-6.57
X5.94Y-7.02
X5.94Y-7.02
X5.94Y-7.05
X5.94Y-7.05
X5.94Y-7.08
X5.94Y-7.08
X6.46Y-4.47
X6.46Y-4.5
X6.46Y-4.53
X6.46Y-4.98
X6.46Y-5.01
X6.46Y-5.04
X6.46Y-5.49
X6.46Y-5.52
X6.46Y-5.55
X6.46Y-6.0
X6.46Y-6.03
X6.46Y-6.06
X6.46Y-6.51
X6.46Y-6.54
X6.46Y-6.57
X6.46Y-7.02
X6.46Y-7.05
X6.46Y-7.08
X6.54Y-4.47
X6.54Y-4.47
X6.54Y-4.5
X6.54Y-4.5
X6.54Y-4.53
X6.54Y-4.53
X6.54Y-4.98
X6.54Y-4.98
X6.54Y-5.01
X6.54Y-5.01
X6.54Y-5.04
X6.54Y-5.04
X6.54Y-5.49
X6.54Y-5.49
X6.54Y-5.52
X6.54Y-5.52
X6.54Y-5.55
X6.54Y-5.55
X6.54Y-6.0
X6.54Y-6.0
X6.54Y-6.03
X6.54Y-6.03
X6.54Y-6.06
X6.54Y-6.06
X6.54Y-6.51
X6.54Y-6.51
X6.54Y-6.54
X6.54Y-6.54
X6.54Y-6.57
X6.54Y-6.57
X6.54Y-7.02
X6.54Y-7.02
X6.54Y-7.05
X6.54Y-7.05
X6.54Y-7.08
X6.54Y-7.08
X7.06Y-4.47
X7.06Y-4.5
X7.06Y-4.53
X7.06Y-4.98
X7.06Y-5.01
X7.06Y-5.04
X7.06Y-5.49
X7.06Y-5.52
X7.06Y-5.55
X7.06Y-6.0
X7.06Y-6.03
X7.06Y-6.06
X7.06Y-6.51
X7.06Y-6.54
X7.06Y-6.57
X7.06Y-7.02
X7.06Y-7.05
X7.06Y-7.08
X7.14Y-4.47
X7.14Y-4.47
X7.14Y-4.5
X7.14Y-4.5
X7.14Y-4.53
X7.14Y-4.53
X7.14Y-4.98
X7.14Y-4.98
X7.14Y-5.01
X7.14Y-5.01
X7.14Y-5.04
X7.14Y-5.04
X7.14Y-5.49
X7.14Y-5.49
X7.14Y-5.52
X7.14Y-5.52
X7.14Y-5.55
X7.14Y-5.55
X7.14Y-6.0
X7.14Y-6.0
X7.14Y-6.03
X7.14Y-6.03
X7.14Y-6.06
X7.14Y-6.06
X7.14Y-6.51
X7.14Y-6.51
X7.14Y-6.54
X7.14Y-6.54
X7.14Y-6.57
X7.14Y-6.57
X7.14Y-7.02
X7.14Y-7.02
X7.14Y-7.05
X7.14Y-7.05
X7.14Y-7.08
X7.14Y-7.08
X7.66Y-4.47
X7.66Y-4.5
X7.66Y-4.53
X7.66Y-4.98
X7.66Y-5.01
X7.66Y-5.04
X7.66Y-5.49
X7.66Y-5.52
X7.66Y-5.55
X7.66Y-6.0
X7.66Y-6.03
X7.66Y-6.06
X7.66Y-6.51
X7.66Y-6.54
X7.66Y-6.57
X7.66Y-7.02
X7.66Y-7.05
X7.66Y-7.08
X7.74Y-4.47
X7.74Y-4.47
X7.74Y-4.5
X7.74Y-4.5
X7.74Y-4.53
X7.74Y-4.53
X7.74Y-4.98
X7.74Y-4.98
X7.74Y-5.01
X7.74Y-5.01
X7.74Y-5.04
X7.74Y-5.04
X7.74Y-5.49
X7.74Y-5.49
X7.74Y-5.52
X7.74Y-5.52
X7.74Y-5.55
X7.74Y-5.55
X7.74Y-6.0
X7.74Y-6.0
X7.74Y-6.03
X7.74Y-6.03
X7.74Y-6.06
X7.74Y-6.06
X7.74Y-6.51
X7.74Y-6.51
X7.74Y-6.54
X7.74Y-6.54
X7.74Y-6.57
X7.74Y-6.57
X7.74Y-7.02
X7.74Y-7.02
X7.74Y-7.05
X7.74Y-7.05
X7.74Y-7.08
X7.74Y-7.08
X8.26Y-4.47
X8.26Y-4.5
X8.26Y-4.53
X8.26Y-4.98
X8.26Y-5.01
X8.26Y-5.04
X8.26Y-5.49
X8.26Y-5.52
X8.26Y-5.55
X8.26Y-6.0
X8.26Y-6.03
X8.26Y-6.06
X8.26Y-6.51
X8.26Y-6.54
X8.26Y-6.57
X8.26Y-7.02
X8.26Y-7.05
X8.26Y-7.08
X8.34Y-4.47
X8.34Y-4.47
X8.34Y-4.5
X8.34Y-4.5
X8.34Y-4.53
X8.34Y-4.53
X8.34Y-4.98
X8.34Y-4.98
X8.34Y-5.01
X8.34Y-5.01
X8.34Y-5.04
X8.34Y-5.04
X8.34Y-5.49
X8.34Y-5.49
X8.34Y-5.52
X8.34Y-5.52
X8.34Y-5.55
X8.34Y-5.55
X8.34Y-6.0
X8.34Y-6.0
X8.34Y-6.03
X8.34Y-6.03
X8.34Y-6.06
X8.34Y-6.06
X8.34Y-6.51
X8.34Y-6.51
X8.34Y-6.54
X8.34Y-6.54
X8.34Y-6.57
X8.34Y-6.57
X8.34Y-7.02
X8.34Y-7.02
X8.34Y-7.05
X8.34Y-7.05
X8.34Y-7.08
X8.34Y-7.08
X8.86Y-4.47
X8.86Y-4.5
X8.86Y-4.53
X8.86Y-4.98
X8.86Y-5.01
X8.86Y-5.04
X8.86Y-5.49
X8.86Y-5.52
X8.86Y-5.55
X8.86Y-6.0
X8.86Y-6.03
X8.86Y-6.06
X8.86Y-6.51
X8.86Y-6.54
X8.86Y-6.57
X8.86Y-7.02
X8.86Y-7.05
X8.86Y-7.08
X8.94Y-4.47
X8.94Y-4.5
X8.94Y-4.53
X8.94Y-4.98
X8.94Y-5.01
X8.94Y-5.04
X8.94Y-5.49
X8.94Y-5.52
X8.94Y-5.55
X8.94Y-6.0
X8.94Y-6.03
X8.94Y-6.06
X8.94Y-6.51
X8.94Y-6.54
X8.94Y-6.57
X8.94Y-7.02
X8.94Y-7.05
X8.94Y-7.08
T3
X5.535Y-4.29
X5.535Y-4.8
X5.535Y-5.31
X5.535Y-5.82
X5.535Y-6.33
X5.535Y-6.84
X5.665Y-4.29
X5.665Y-4.8
X5.665Y-5.31
X5.665Y-5.82
X5.665Y-6.33
X5.665Y-6.84
X6.135Y-4.29
X6.135Y-4.8
X6.135Y-5.31
X6.135Y-5.82
X6.135Y-6.33
X6.135Y-6.84
X6.265Y-4.29
X6.265Y-4.8
X6.265Y-5.31
X6.265Y-5.82
X6.265Y-6.33
X6.265Y-6.84
X6.735Y-4.29
X6.735Y-4.8
X6.735Y-5.31
X6.735Y-5.82
X6.735Y-6.33
X6.735Y-6.84
X6.865Y-4.29
X6.865Y-4.8
X6.865Y-5.31
X6.865Y-5.82
X6.865Y-6.33
X6.865Y-6.84
X7.335Y-4.29
X7.335Y-4.8
X7.335Y-5.31
X7.335Y-5.82
X7.335Y-6.33
X7.335Y-6.84
X7.465Y-4.29
X7.465Y-4.8
X7.465Y-5.31
X7.465Y-5.82
X7.465Y-6.33
X7.465Y-6.84
X7.935Y-4.29
X7.935Y-4.8
X7.935Y-5.31
X7.935Y-5.82
X7.935Y-6.33
X7.935Y-6.84
X8.065Y-4.29
X8.065Y-4.8
X8.065Y-5.31
X8.065Y-5.82
X8.065Y-6.33
X8.065Y-6.84
X8.535Y-4.29
X8.535Y-4.8
X8.535Y-5.31
X8.535Y-5.82
X8.535Y-6.33
X8.535Y-6.84
X8.665Y-4.29
X8.665Y-4.8
X8.665Y-5.31
X8.665Y-5.82
X8.665Y-6.33
X8.665Y-6.84
T5
X5.3Y-4.1
X5.3Y-4.2
X5.3Y-4.3
X5.3Y-4.4
X5.3Y-4.5
X5.3Y-4.61
X5.3Y-4.71
X5.3Y-4.81
X5.3Y-4.91
X5.3Y-5.01
X5.3Y-5.12
X5.3Y-5.22
X5.3Y-5.32
X5.3Y-5.42
X5.3Y-5.52
X5.3Y-5.63
X5.3Y-5.73
X5.3Y-5.83
X5.3Y-5.93
X5.3Y-6.03
X5.3Y-6.14
X5.3Y-6.24
X5.3Y-6.34
X5.3Y-6.44
X5.3Y-6.54
X5.3Y-6.65
X5.3Y-6.75
X5.3Y-6.85
X5.3Y-6.95
X5.3Y-7.05
X5.9Y-4.1
X5.9Y-4.2
X5.9Y-4.3
X5.9Y-4.4
X5.9Y-4.5
X5.9Y-4.61
X5.9Y-4.71
X5.9Y-4.81
X5.9Y-4.91
X5.9Y-5.01
X5.9Y-5.12
X5.9Y-5.22
X5.9Y-5.32
X5.9Y-5.42
X5.9Y-5.52
X5.9Y-5.63
X5.9Y-5.73
X5.9Y-5.83
X5.9Y-5.93
X5.9Y-6.03
X5.9Y-6.14
X5.9Y-6.24
X5.9Y-6.34
X5.9Y-6.44
X5.9Y-6.54
X5.9Y-6.65
X5.9Y-6.75
X5.9Y-6.85
X5.9Y-6.95
X5.9Y-7.05
X6.5Y-4.1
X6.5Y-4.2
X6.5Y-4.3
X6.5Y-4.4
X6.5Y-4.5
X6.5Y-4.61
X6.5Y-4.71
X6.5Y-4.81
X6.5Y-4.91
X6.5Y-5.01
X6.5Y-5.12
X6.5Y-5.22
X6.5Y-5.32
X6.5Y-5.42
X6.5Y-5.52
X6.5Y-5.63
X6.5Y-5.73
X6.5Y-5.83
X6.5Y-5.93
X6.5Y-6.03
X6.5Y-6.14
X6.5Y-6.24
X6.5Y-6.34
X6.5Y-6.44
X6.5Y-6.54
X6.5Y-6.65
X6.5Y-6.75
X6.5Y-6.85
X6.5Y-6.95
X6.5Y-7.05
X7.1Y-4.1
X7.1Y-4.2
X7.1Y-4.3
X7.1Y-4.4
X7.1Y-4.5
X7.1Y-4.61
X7.1Y-4.71
X7.1Y-4.81
X7.1Y-4.91
X7.1Y-5.01
X7.1Y-5.12
X7.1Y-5.22
X7.1Y-5.32
X7.1Y-5.42
X7.1Y-5.52
X7.1Y-5.63
X7.1Y-5.73
X7.1Y-5.83
X7.1Y-5.93
X7.1Y-6.03
X7.1Y-6.14
X7.1Y-6.24
X7.1Y-6.34
X7.1Y-6.44
X7.1Y-6.54
X7.1Y-6.65
X7.1Y-6.75
X7.1Y-6.85
X7.1Y-6.95
X7.1Y-7.05
X7.7Y-4.1
X7.7Y-4.2
X7.7Y-4.3
X7.7Y-4.4
X7.7Y-4.5
X7.7Y-4.61
X7.7Y-4.71
X7.7Y-4.81
X7.7Y-4.91
X7.7Y-5.01
X7.7Y-5.12
X7.7Y-5.22
X7.7Y-5.32
X7.7Y-5.42
X7.7Y-5.52
X7.7Y-5.63
X7.7Y-5.73
X7.7Y-5.83
X7.7Y-5.93
X7.7Y-6.03
X7.7Y-6.14
X7.7Y-6.24
X7.7Y-6.34
X7.7Y-6.44
X7.7Y-6.54
X7.7Y-6.65
X7.7Y-6.75
X7.7Y-6.85
X7.7Y-6.95
X7.7Y-7.05
X8.3Y-4.1
X8.3Y-4.2
X8.3Y-4.3
X8.3Y-4.4
X8.3Y-4.5
X8.3Y-4.61
X8.3Y-4.71
X8.3Y-4.81
X8.3Y-4.91
X8.3Y-5.01
X8.3Y-5.12
X8.3Y-5.22
X8.3Y-5.32
X8.3Y-5.42
X8.3Y-5.52
X8.3Y-5.63
X8.3Y-5.73
X8.3Y-5.83
X8.3Y-5.93
X8.3Y-6.03
X8.3Y-6.14
X8.3Y-6.24
X8.3Y-6.34
X8.3Y-6.44
X8.3Y-6.54
X8.3Y-6.65
X8.3Y-6.75
X8.3Y-6.85
X8.3Y-6.95
X8.3Y-7.05
X8.9Y-4.1
X8.9Y-4.2
X8.9Y-4.3
X8.9Y-4.4
X8.9Y-4.5
X8.9Y-4.61
X8.9Y-4.71
X8.9Y-4.81
X8.9Y-4.91
X8.9Y-5.01
X8.9Y-5.12
X8.9Y-5.22
X8.9Y-5.32
X8.9Y-5.42
X8.9Y-5.52
X8.9Y-5.63
X8.9Y-5.73
X8.9Y-5.83
X8.9Y-5.93
X8.9Y-6.03
X8.9Y-6.14
X8.9Y-6.24
X8.9Y-6.34
X8.9Y-6.44
X8.9Y-6.54
X8.9Y-6.65
X8.9Y-6.75
X8.9Y-6.85
X8.9Y-6.95
X8.9Y-7.05
T4
G00X5.4299Y-4.2451
M15
G01X5.4299Y-4.2884
M16
G05
G00X5.4299Y-4.4195
M15
G01X5.4299Y-4.4431
M16
G05
G00X5.4299Y-4.7551
M15
G01X5.4299Y-4.7984
M16
G05
G00X5.4299Y-4.9295
M15
G01X5.4299Y-4.9531
M16
G05
G00X5.4299Y-5.2651
M15
G01X5.4299Y-5.3084
M16
G05
G00X5.4299Y-5.4395
M15
G01X5.4299Y-5.4631
M16
G05
G00X5.4299Y-5.7751
M15
G01X5.4299Y-5.8184
M16
G05
G00X5.4299Y-5.9495
M15
G01X5.4299Y-5.9731
M16
G05
G00X5.4299Y-6.2851
M15
G01X5.4299Y-6.3284
M16
G05
G00X5.4299Y-6.4595
M15
G01X5.4299Y-6.4831
M16
G05
G00X5.4299Y-6.7951
M15
G01X5.4299Y-6.8384
M16
G05
G00X5.4299Y-6.9695
M15
G01X5.4299Y-6.9931
M16
G05
G00X5.7701Y-4.2451
M15
G01X5.7701Y-4.2884
M16
G05
G00X5.7701Y-4.4195
M15
G01X5.7701Y-4.4431
M16
G05
G00X5.7701Y-4.7551
M15
G01X5.7701Y-4.7984
M16
G05
G00X5.7701Y-4.9295
M15
G01X5.7701Y-4.9531
M16
G05
G00X5.7701Y-5.2651
M15
G01X5.7701Y-5.3084
M16
G05
G00X5.7701Y-5.4395
M15
G01X5.7701Y-5.4631
M16
G05
G00X5.7701Y-5.7751
M15
G01X5.7701Y-5.8184
M16
G05
G00X5.7701Y-5.9495
M15
G01X5.7701Y-5.9731
M16
G05
G00X5.7701Y-6.2851
M15
G01X5.7701Y-6.3284
M16
G05
G00X5.7701Y-6.4595
M15
G01X5.7701Y-6.4831
M16
G05
G00X5.7701Y-6.7951
M15
G01X5.7701Y-6.8384
M16
G05
G00X5.7701Y-6.9695
M15
G01X5.7701Y-6.9931
M16
G05
G00X6.0299Y-4.2451
M15
G01X6.0299Y-4.2884
M16
G05
G00X6.0299Y-4.4195
M15
G01X6.0299Y-4.4431
M16
G05
G00X6.0299Y-4.7551
M15
G01X6.0299Y-4.7984
M16
G05
G00X6.0299Y-4.9295
M15
G01X6.0299Y-4.9531
M16
G05
G00X6.0299Y-5.2651
M15
G01X6.0299Y-5.3084
M16
G05
G00X6.0299Y-5.4395
M15
G01X6.0299Y-5.4631
M16
G05
G00X6.0299Y-5.7751
M15
G01X6.0299Y-5.8184
M16
G05
G00X6.0299Y-5.9495
M15
G01X6.0299Y-5.9731
M16
G05
G00X6.0299Y-6.2851
M15
G01X6.0299Y-6.3284
M16
G05
G00X6.0299Y-6.4595
M15
G01X6.0299Y-6.4831
M16
G05
G00X6.0299Y-6.7951
M15
G01X6.0299Y-6.8384
M16
G05
G00X6.0299Y-6.9695
M15
G01X6.0299Y-6.9931
M16
G05
G00X6.3701Y-4.2451
M15
G01X6.3701Y-4.2884
M16
G05
G00X6.3701Y-4.4195
M15
G01X6.3701Y-4.4431
M16
G05
G00X6.3701Y-4.7551
M15
G01X6.3701Y-4.7984
M16
G05
G00X6.3701Y-4.9295
M15
G01X6.3701Y-4.9531
M16
G05
G00X6.3701Y-5.2651
M15
G01X6.3701Y-5.3084
M16
G05
G00X6.3701Y-5.4395
M15
G01X6.3701Y-5.4631
M16
G05
G00X6.3701Y-5.7751
M15
G01X6.3701Y-5.8184
M16
G05
G00X6.3701Y-5.9495
M15
G01X6.3701Y-5.9731
M16
G05
G00X6.3701Y-6.2851
M15
G01X6.3701Y-6.3284
M16
G05
G00X6.3701Y-6.4595
M15
G01X6.3701Y-6.4831
M16
G05
G00X6.3701Y-6.7951
M15
G01X6.3701Y-6.8384
M16
G05
G00X6.3701Y-6.9695
M15
G01X6.3701Y-6.9931
M16
G05
G00X6.6299Y-4.2451
M15
G01X6.6299Y-4.2884
M16
G05
G00X6.6299Y-4.4195
M15
G01X6.6299Y-4.4431
M16
G05
G00X6.6299Y-4.7551
M15
G01X6.6299Y-4.7984
M16
G05
G00X6.6299Y-4.9295
M15
G01X6.6299Y-4.9531
M16
G05
G00X6.6299Y-5.2651
M15
G01X6.6299Y-5.3084
M16
G05
G00X6.6299Y-5.4395
M15
G01X6.6299Y-5.4631
M16
G05
G00X6.6299Y-5.7751
M15
G01X6.6299Y-5.8184
M16
G05
G00X6.6299Y-5.9495
M15
G01X6.6299Y-5.9731
M16
G05
G00X6.6299Y-6.2851
M15
G01X6.6299Y-6.3284
M16
G05
G00X6.6299Y-6.4595
M15
G01X6.6299Y-6.4831
M16
G05
G00X6.6299Y-6.7951
M15
G01X6.6299Y-6.8384
M16
G05
G00X6.6299Y-6.9695
M15
G01X6.6299Y-6.9931
M16
G05
G00X6.9701Y-4.2451
M15
G01X6.9701Y-4.2884
M16
G05
G00X6.9701Y-4.4195
M15
G01X6.9701Y-4.4431
M16
G05
G00X6.9701Y-4.7551
M15
G01X6.9701Y-4.7984
M16
G05
G00X6.9701Y-4.9295
M15
G01X6.9701Y-4.9531
M16
G05
G00X6.9701Y-5.2651
M15
G01X6.9701Y-5.3084
M16
G05
G00X6.9701Y-5.4395
M15
G01X6.9701Y-5.4631
M16
G05
G00X6.9701Y-5.7751
M15
G01X6.9701Y-5.8184
M16
G05
G00X6.9701Y-5.9495
M15
G01X6.9701Y-5.9731
M16
G05
G00X6.9701Y-6.2851
M15
G01X6.9701Y-6.3284
M16
G05
G00X6.9701Y-6.4595
M15
G01X6.9701Y-6.4831
M16
G05
G00X6.9701Y-6.7951
M15
G01X6.9701Y-6.8384
M16
G05
G00X6.9701Y-6.9695
M15
G01X6.9701Y-6.9931
M16
G05
G00X7.2299Y-4.2451
M15
G01X7.2299Y-4.2884
M16
G05
G00X7.2299Y-4.4195
M15
G01X7.2299Y-4.4431
M16
G05
G00X7.2299Y-4.7551
M15
G01X7.2299Y-4.7984
M16
G05
G00X7.2299Y-4.9295
M15
G01X7.2299Y-4.9531
M16
G05
G00X7.2299Y-5.2651
M15
G01X7.2299Y-5.3084
M16
G05
G00X7.2299Y-5.4395
M15
G01X7.2299Y-5.4631
M16
G05
G00X7.2299Y-5.7751
M15
G01X7.2299Y-5.8184
M16
G05
G00X7.2299Y-5.9495
M15
G01X7.2299Y-5.9731
M16
G05
G00X7.2299Y-6.2851
M15
G01X7.2299Y-6.3284
M16
G05
G00X7.2299Y-6.4595
M15
G01X7.2299Y-6.4831
M16
G05
G00X7.2299Y-6.7951
M15
G01X7.2299Y-6.8384
M16
G05
G00X7.2299Y-6.9695
M15
G01X7.2299Y-6.9931
M16
G05
G00X7.5701Y-4.2451
M15
G01X7.5701Y-4.2884
M16
G05
G00X7.5701Y-4.4195
M15
G01X7.5701Y-4.4431
M16
G05
G00X7.5701Y-4.7551
M15
G01X7.5701Y-4.7984
M16
G05
G00X7.5701Y-4.9295
M15
G01X7.5701Y-4.9531
M16
G05
G00X7.5701Y-5.2651
M15
G01X7.5701Y-5.3084
M16
G05
G00X7.5701Y-5.4395
M15
G01X7.5701Y-5.4631
M16
G05
G00X7.5701Y-5.7751
M15
G01X7.5701Y-5.8184
M16
G05
G00X7.5701Y-5.9495
M15
G01X7.5701Y-5.9731
M16
G05
G00X7.5701Y-6.2851
M15
G01X7.5701Y-6.3284
M16
G05
G00X7.5701Y-6.4595
M15
G01X7.5701Y-6.4831
M16
G05
G00X7.5701Y-6.7951
M15
G01X7.5701Y-6.8384
M16
G05
G00X7.5701Y-6.9695
M15
G01X7.5701Y-6.9931
M16
G05
G00X7.8299Y-4.2451
M15
G01X7.8299Y-4.2884
M16
G05
G00X7.8299Y-4.4195
M15
G01X7.8299Y-4.4431
M16
G05
G00X7.8299Y-4.7551
M15
G01X7.8299Y-4.7984
M16
G05
G00X7.8299Y-4.9295
M15
G01X7.8299Y-4.9531
M16
G05
G00X7.8299Y-5.2651
M15
G01X7.8299Y-5.3084
M16
G05
G00X7.8299Y-5.4395
M15
G01X7.8299Y-5.4631
M16
G05
G00X7.8299Y-5.7751
M15
G01X7.8299Y-5.8184
M16
G05
G00X7.8299Y-5.9495
M15
G01X7.8299Y-5.9731
M16
G05
G00X7.8299Y-6.2851
M15
G01X7.8299Y-6.3284
M16
G05
G00X7.8299Y-6.4595
M15
G01X7.8299Y-6.4831
M16
G05
G00X7.8299Y-6.7951
M15
G01X7.8299Y-6.8384
M16
G05
G00X7.8299Y-6.9695
M15
G01X7.8299Y-6.9931
M16
G05
G00X8.1701Y-4.2451
M15
G01X8.1701Y-4.2884
M16
G05
G00X8.1701Y-4.4195
M15
G01X8.1701Y-4.4431
M16
G05
G00X8.1701Y-4.7551
M15
G01X8.1701Y-4.7984
M16
G05
G00X8.1701Y-4.9295
M15
G01X8.1701Y-4.9531
M16
G05
G00X8.1701Y-5.2651
M15
G01X8.1701Y-5.3084
M16
G05
G00X8.1701Y-5.4395
M15
G01X8.1701Y-5.4631
M16
G05
G00X8.1701Y-5.7751
M15
G01X8.1701Y-5.8184
M16
G05
G00X8.1701Y-5.9495
M15
G01X8.1701Y-5.9731
M16
G05
G00X8.1701Y-6.2851
M15
G01X8.1701Y-6.3284
M16
G05
G00X8.1701Y-6.4595
M15
G01X8.1701Y-6.4831
M16
G05
G00X8.1701Y-6.7951
M15
G01X8.1701Y-6.8384
M16
G05
G00X8.1701Y-6.9695
M15
G01X8.1701Y-6.9931
M16
G05
G00X8.4299Y-4.2451
M15
G01X8.4299Y-4.2884
M16
G05
G00X8.4299Y-4.4195
M15
G01X8.4299Y-4.4431
M16
G05
G00X8.4299Y-4.7551
M15
G01X8.4299Y-4.7984
M16
G05
G00X8.4299Y-4.9295
M15
G01X8.4299Y-4.9531
M16
G05
G00X8.4299Y-5.2651
M15
G01X8.4299Y-5.3084
M16
G05
G00X8.4299Y-5.4395
M15
G01X8.4299Y-5.4631
M16
G05
G00X8.4299Y-5.7751
M15
G01X8.4299Y-5.8184
M16
G05
G00X8.4299Y-5.9495
M15
G01X8.4299Y-5.9731
M16
G05
G00X8.4299Y-6.2851
M15
G01X8.4299Y-6.3284
M16
G05
G00X8.4299Y-6.4595
M15
G01X8.4299Y-6.4831
M16
G05
G00X8.4299Y-6.7951
M15
G01X8.4299Y-6.8384
M16
G05
G00X8.4299Y-6.9695
M15
G01X8.4299Y-6.9931
M16
G05
G00X8.7701Y-4.2451
M15
G01X8.7701Y-4.2884
M16
G05
G00X8.7701Y-4.4195
M15
G01X8.7701Y-4.4431
M16
G05
G00X8.7701Y-4.7551
M15
G01X8.7701Y-4.7984
M16
G05
G00X8.7701Y-4.9295
M15
G01X8.7701Y-4.9531
M16
G05
G00X8.7701Y-5.2651
M15
G01X8.7701Y-5.3084
M16
G05
G00X8.7701Y-5.4395
M15
G01X8.7701Y-5.4631
M16
G05
G00X8.7701Y-5.7751
M15
G01X8.7701Y-5.8184
M16
G05
G00X8.7701Y-5.9495
M15
G01X8.7701Y-5.9731
M16
G05
G00X8.7701Y-6.2851
M15
G01X8.7701Y-6.3284
M16
G05
G00X8.7701Y-6.4595
M15
G01X8.7701Y-6.4831
M16
G05
G00X8.7701Y-6.7951
M15
G01X8.7701Y-6.8384
M16
G05
G00X8.7701Y-6.9695
M15
G01X8.7701Y-6.9931
M16
G05
T0
M30
