M48
; DRILL file {KiCad (6.0.7)} date Sun Apr 16 01:29:06 2023
; FORMAT={-:-/ absolute / inch / decimal}
; #@! TF.CreationDate,2023-04-16T01:29:06+08:00
; #@! TF.GenerationSoftware,Kicad,Pcbnew,(6.0.7)
; #@! TF.FileFunction,Plated,1,2,PTH
FMAT,2
INCH
; #@! TA.AperFunction,Plated,PTH,ViaDrill
T1C0.0079
; #@! TA.AperFunction,Plated,PTH,ViaDrill
T2C0.0118
; #@! TA.AperFunction,Plated,PTH,ViaDrill
T3C0.0157
; #@! TA.AperFunction,Plated,PTH,ComponentDrill
T4C0.0236
; #@! TA.AperFunction,Plated,PTH,ComponentDrill
T5C0.0394
%
G90
G05
T1
X2.8226Y-2.126
X2.8226Y-2.636
X2.8226Y-3.146
X2.8226Y-3.656
X2.8226Y-4.166
X2.8226Y-4.676
X2.8226Y-5.186
X2.975Y-2.185
X2.975Y-2.695
X2.975Y-3.205
X2.975Y-3.715
X2.975Y-4.225
X2.975Y-4.735
X2.975Y-5.245
X3.015Y-2.185
X3.015Y-2.695
X3.015Y-3.205
X3.015Y-3.715
X3.015Y-4.225
X3.015Y-4.735
X3.015Y-5.245
X3.035Y-2.155
X3.035Y-2.665
X3.035Y-3.175
X3.035Y-3.685
X3.035Y-4.195
X3.035Y-4.705
X3.035Y-5.215
X3.0742Y-2.185
X3.0742Y-2.695
X3.0742Y-3.205
X3.0742Y-3.715
X3.0742Y-4.225
X3.0742Y-4.735
X3.0742Y-5.245
X3.194Y-2.17
X3.194Y-2.68
X3.194Y-3.19
X3.194Y-3.7
X3.194Y-4.21
X3.194Y-4.72
X3.194Y-5.23
X3.2085Y-2.0827
X3.2085Y-2.5927
X3.2085Y-3.1027
X3.2085Y-3.6127
X3.2085Y-4.1227
X3.2085Y-4.6327
X3.2085Y-5.1427
X3.4226Y-2.126
X3.4226Y-2.636
X3.4226Y-3.146
X3.4226Y-3.656
X3.4226Y-4.166
X3.4226Y-4.676
X3.4226Y-5.186
X3.575Y-2.185
X3.575Y-2.695
X3.575Y-3.205
X3.575Y-3.715
X3.575Y-4.225
X3.575Y-4.735
X3.575Y-5.245
X3.615Y-2.185
X3.615Y-2.695
X3.615Y-3.205
X3.615Y-3.715
X3.615Y-4.225
X3.615Y-4.735
X3.615Y-5.245
X3.635Y-2.155
X3.635Y-2.665
X3.635Y-3.175
X3.635Y-3.685
X3.635Y-4.195
X3.635Y-4.705
X3.635Y-5.215
X3.6742Y-2.185
X3.6742Y-2.695
X3.6742Y-3.205
X3.6742Y-3.715
X3.6742Y-4.225
X3.6742Y-4.735
X3.6742Y-5.245
X3.794Y-2.17
X3.794Y-2.68
X3.794Y-3.19
X3.794Y-3.7
X3.794Y-4.21
X3.794Y-4.72
X3.794Y-5.23
X3.8085Y-2.0827
X3.8085Y-2.5927
X3.8085Y-3.1027
X3.8085Y-3.6127
X3.8085Y-4.1227
X3.8085Y-4.6327
X3.8085Y-5.1427
X4.0226Y-2.126
X4.0226Y-2.636
X4.0226Y-3.146
X4.0226Y-3.656
X4.0226Y-4.166
X4.0226Y-4.676
X4.0226Y-5.186
X4.175Y-2.185
X4.175Y-2.695
X4.175Y-3.205
X4.175Y-3.715
X4.175Y-4.225
X4.175Y-4.735
X4.175Y-5.245
X4.215Y-2.185
X4.215Y-2.695
X4.215Y-3.205
X4.215Y-3.715
X4.215Y-4.225
X4.215Y-4.735
X4.215Y-5.245
X4.235Y-2.155
X4.235Y-2.665
X4.235Y-3.175
X4.235Y-3.685
X4.235Y-4.195
X4.235Y-4.705
X4.235Y-5.215
X4.2742Y-2.185
X4.2742Y-2.695
X4.2742Y-3.205
X4.2742Y-3.715
X4.2742Y-4.225
X4.2742Y-4.735
X4.2742Y-5.245
X4.394Y-2.17
X4.394Y-2.68
X4.394Y-3.19
X4.394Y-3.7
X4.394Y-4.21
X4.394Y-4.72
X4.394Y-5.23
X4.4085Y-2.0827
X4.4085Y-2.5927
X4.4085Y-3.1027
X4.4085Y-3.6127
X4.4085Y-4.1227
X4.4085Y-4.6327
X4.4085Y-5.1427
X4.6226Y-2.126
X4.6226Y-2.636
X4.6226Y-3.146
X4.6226Y-3.656
X4.6226Y-4.166
X4.6226Y-4.676
X4.6226Y-5.186
X4.775Y-2.185
X4.775Y-2.695
X4.775Y-3.205
X4.775Y-3.715
X4.775Y-4.225
X4.775Y-4.735
X4.775Y-5.245
X4.815Y-2.185
X4.815Y-2.695
X4.815Y-3.205
X4.815Y-3.715
X4.815Y-4.225
X4.815Y-4.735
X4.815Y-5.245
X4.835Y-2.155
X4.835Y-2.665
X4.835Y-3.175
X4.835Y-3.685
X4.835Y-4.195
X4.835Y-4.705
X4.835Y-5.215
X4.8742Y-2.185
X4.8742Y-2.695
X4.8742Y-3.205
X4.8742Y-3.715
X4.8742Y-4.225
X4.8742Y-4.735
X4.8742Y-5.245
X4.994Y-2.17
X4.994Y-2.68
X4.994Y-3.19
X4.994Y-3.7
X4.994Y-4.21
X4.994Y-4.72
X4.994Y-5.23
X5.0085Y-2.0827
X5.0085Y-2.5927
X5.0085Y-3.1027
X5.0085Y-3.6127
X5.0085Y-4.1227
X5.0085Y-4.6327
X5.0085Y-5.1427
X5.2226Y-2.126
X5.2226Y-2.636
X5.2226Y-3.146
X5.2226Y-3.656
X5.2226Y-4.166
X5.2226Y-4.676
X5.2226Y-5.186
X5.375Y-2.185
X5.375Y-2.695
X5.375Y-3.205
X5.375Y-3.715
X5.375Y-4.225
X5.375Y-4.735
X5.375Y-5.245
X5.415Y-2.185
X5.415Y-2.695
X5.415Y-3.205
X5.415Y-3.715
X5.415Y-4.225
X5.415Y-4.735
X5.415Y-5.245
X5.435Y-2.155
X5.435Y-2.665
X5.435Y-3.175
X5.435Y-3.685
X5.435Y-4.195
X5.435Y-4.705
X5.435Y-5.215
X5.4742Y-2.185
X5.4742Y-2.695
X5.4742Y-3.205
X5.4742Y-3.715
X5.4742Y-4.225
X5.4742Y-4.735
X5.4742Y-5.245
X5.594Y-2.17
X5.594Y-2.68
X5.594Y-3.19
X5.594Y-3.7
X5.594Y-4.21
X5.594Y-4.72
X5.594Y-5.23
X5.6085Y-2.0827
X5.6085Y-2.5927
X5.6085Y-3.1027
X5.6085Y-3.6127
X5.6085Y-4.1227
X5.6085Y-4.6327
X5.6085Y-5.1427
X5.8226Y-2.126
X5.8226Y-2.636
X5.8226Y-3.146
X5.8226Y-3.656
X5.8226Y-4.166
X5.8226Y-4.676
X5.8226Y-5.186
X5.975Y-2.185
X5.975Y-2.695
X5.975Y-3.205
X5.975Y-3.715
X5.975Y-4.225
X5.975Y-4.735
X5.975Y-5.245
X6.015Y-2.185
X6.015Y-2.695
X6.015Y-3.205
X6.015Y-3.715
X6.015Y-4.225
X6.015Y-4.735
X6.015Y-5.245
X6.035Y-2.155
X6.035Y-2.665
X6.035Y-3.175
X6.035Y-3.685
X6.035Y-4.195
X6.035Y-4.705
X6.035Y-5.215
X6.0742Y-2.185
X6.0742Y-2.695
X6.0742Y-3.205
X6.0742Y-3.715
X6.0742Y-4.225
X6.0742Y-4.735
X6.0742Y-5.245
X6.194Y-2.17
X6.194Y-2.68
X6.194Y-3.19
X6.194Y-3.7
X6.194Y-4.21
X6.194Y-4.72
X6.194Y-5.23
X6.2085Y-2.0827
X6.2085Y-2.5927
X6.2085Y-3.1027
X6.2085Y-3.6127
X6.2085Y-4.1227
X6.2085Y-4.6327
X6.2085Y-5.1427
T2
X2.76Y-2.47
X2.76Y-2.5
X2.76Y-2.53
X2.76Y-2.98
X2.76Y-3.01
X2.76Y-3.04
X2.76Y-3.49
X2.76Y-3.52
X2.76Y-3.55
X2.76Y-4.0
X2.76Y-4.03
X2.76Y-4.06
X2.76Y-4.51
X2.76Y-4.54
X2.76Y-4.57
X2.76Y-5.02
X2.76Y-5.05
X2.76Y-5.08
X2.76Y-5.53
X2.76Y-5.56
X2.76Y-5.59
X3.29Y-2.47
X3.29Y-2.5
X3.29Y-2.53
X3.29Y-2.98
X3.29Y-3.01
X3.29Y-3.04
X3.29Y-3.49
X3.29Y-3.52
X3.29Y-3.55
X3.29Y-4.0
X3.29Y-4.03
X3.29Y-4.06
X3.29Y-4.51
X3.29Y-4.54
X3.29Y-4.57
X3.29Y-5.02
X3.29Y-5.05
X3.29Y-5.08
X3.29Y-5.53
X3.29Y-5.56
X3.29Y-5.59
X3.36Y-2.47
X3.36Y-2.5
X3.36Y-2.53
X3.36Y-2.98
X3.36Y-3.01
X3.36Y-3.04
X3.36Y-3.49
X3.36Y-3.52
X3.36Y-3.55
X3.36Y-4.0
X3.36Y-4.03
X3.36Y-4.06
X3.36Y-4.51
X3.36Y-4.54
X3.36Y-4.57
X3.36Y-5.02
X3.36Y-5.05
X3.36Y-5.08
X3.36Y-5.53
X3.36Y-5.56
X3.36Y-5.59
X3.89Y-2.47
X3.89Y-2.5
X3.89Y-2.53
X3.89Y-2.98
X3.89Y-3.01
X3.89Y-3.04
X3.89Y-3.49
X3.89Y-3.52
X3.89Y-3.55
X3.89Y-4.0
X3.89Y-4.03
X3.89Y-4.06
X3.89Y-4.51
X3.89Y-4.54
X3.89Y-4.57
X3.89Y-5.02
X3.89Y-5.05
X3.89Y-5.08
X3.89Y-5.53
X3.89Y-5.56
X3.89Y-5.59
X3.96Y-2.47
X3.96Y-2.5
X3.96Y-2.53
X3.96Y-2.98
X3.96Y-3.01
X3.96Y-3.04
X3.96Y-3.49
X3.96Y-3.52
X3.96Y-3.55
X3.96Y-4.0
X3.96Y-4.03
X3.96Y-4.06
X3.96Y-4.51
X3.96Y-4.54
X3.96Y-4.57
X3.96Y-5.02
X3.96Y-5.05
X3.96Y-5.08
X3.96Y-5.53
X3.96Y-5.56
X3.96Y-5.59
X4.49Y-2.47
X4.49Y-2.5
X4.49Y-2.53
X4.49Y-2.98
X4.49Y-3.01
X4.49Y-3.04
X4.49Y-3.49
X4.49Y-3.52
X4.49Y-3.55
X4.49Y-4.0
X4.49Y-4.03
X4.49Y-4.06
X4.49Y-4.51
X4.49Y-4.54
X4.49Y-4.57
X4.49Y-5.02
X4.49Y-5.05
X4.49Y-5.08
X4.49Y-5.53
X4.49Y-5.56
X4.49Y-5.59
X4.56Y-2.47
X4.56Y-2.5
X4.56Y-2.53
X4.56Y-2.98
X4.56Y-3.01
X4.56Y-3.04
X4.56Y-3.49
X4.56Y-3.52
X4.56Y-3.55
X4.56Y-4.0
X4.56Y-4.03
X4.56Y-4.06
X4.56Y-4.51
X4.56Y-4.54
X4.56Y-4.57
X4.56Y-5.02
X4.56Y-5.05
X4.56Y-5.08
X4.56Y-5.53
X4.56Y-5.56
X4.56Y-5.59
X5.09Y-2.47
X5.09Y-2.5
X5.09Y-2.53
X5.09Y-2.98
X5.09Y-3.01
X5.09Y-3.04
X5.09Y-3.49
X5.09Y-3.52
X5.09Y-3.55
X5.09Y-4.0
X5.09Y-4.03
X5.09Y-4.06
X5.09Y-4.51
X5.09Y-4.54
X5.09Y-4.57
X5.09Y-5.02
X5.09Y-5.05
X5.09Y-5.08
X5.09Y-5.53
X5.09Y-5.56
X5.09Y-5.59
X5.16Y-2.47
X5.16Y-2.5
X5.16Y-2.53
X5.16Y-2.98
X5.16Y-3.01
X5.16Y-3.04
X5.16Y-3.49
X5.16Y-3.52
X5.16Y-3.55
X5.16Y-4.0
X5.16Y-4.03
X5.16Y-4.06
X5.16Y-4.51
X5.16Y-4.54
X5.16Y-4.57
X5.16Y-5.02
X5.16Y-5.05
X5.16Y-5.08
X5.16Y-5.53
X5.16Y-5.56
X5.16Y-5.59
X5.69Y-2.47
X5.69Y-2.5
X5.69Y-2.53
X5.69Y-2.98
X5.69Y-3.01
X5.69Y-3.04
X5.69Y-3.49
X5.69Y-3.52
X5.69Y-3.55
X5.69Y-4.0
X5.69Y-4.03
X5.69Y-4.06
X5.69Y-4.51
X5.69Y-4.54
X5.69Y-4.57
X5.69Y-5.02
X5.69Y-5.05
X5.69Y-5.08
X5.69Y-5.53
X5.69Y-5.56
X5.69Y-5.59
X5.76Y-2.47
X5.76Y-2.5
X5.76Y-2.53
X5.76Y-2.98
X5.76Y-3.01
X5.76Y-3.04
X5.76Y-3.49
X5.76Y-3.52
X5.76Y-3.55
X5.76Y-4.0
X5.76Y-4.03
X5.76Y-4.06
X5.76Y-4.51
X5.76Y-4.54
X5.76Y-4.57
X5.76Y-5.02
X5.76Y-5.05
X5.76Y-5.08
X5.76Y-5.53
X5.76Y-5.56
X5.76Y-5.59
X6.29Y-2.47
X6.29Y-2.5
X6.29Y-2.53
X6.29Y-2.98
X6.29Y-3.01
X6.29Y-3.04
X6.29Y-3.49
X6.29Y-3.52
X6.29Y-3.55
X6.29Y-4.0
X6.29Y-4.03
X6.29Y-4.06
X6.29Y-4.51
X6.29Y-4.54
X6.29Y-4.57
X6.29Y-5.02
X6.29Y-5.05
X6.29Y-5.08
X6.29Y-5.53
X6.29Y-5.56
X6.29Y-5.59
T3
X2.96Y-2.29
X2.96Y-2.8
X2.96Y-3.31
X2.96Y-3.82
X2.96Y-4.33
X2.96Y-4.84
X2.96Y-5.35
X3.09Y-2.29
X3.09Y-2.8
X3.09Y-3.31
X3.09Y-3.82
X3.09Y-4.33
X3.09Y-4.84
X3.09Y-5.35
X3.56Y-2.29
X3.56Y-2.8
X3.56Y-3.31
X3.56Y-3.82
X3.56Y-4.33
X3.56Y-4.84
X3.56Y-5.35
X3.69Y-2.29
X3.69Y-2.8
X3.69Y-3.31
X3.69Y-3.82
X3.69Y-4.33
X3.69Y-4.84
X3.69Y-5.35
X4.16Y-2.29
X4.16Y-2.8
X4.16Y-3.31
X4.16Y-3.82
X4.16Y-4.33
X4.16Y-4.84
X4.16Y-5.35
X4.29Y-2.29
X4.29Y-2.8
X4.29Y-3.31
X4.29Y-3.82
X4.29Y-4.33
X4.29Y-4.84
X4.29Y-5.35
X4.76Y-2.29
X4.76Y-2.8
X4.76Y-3.31
X4.76Y-3.82
X4.76Y-4.33
X4.76Y-4.84
X4.76Y-5.35
X4.89Y-2.29
X4.89Y-2.8
X4.89Y-3.31
X4.89Y-3.82
X4.89Y-4.33
X4.89Y-4.84
X4.89Y-5.35
X5.36Y-2.29
X5.36Y-2.8
X5.36Y-3.31
X5.36Y-3.82
X5.36Y-4.33
X5.36Y-4.84
X5.36Y-5.35
X5.49Y-2.29
X5.49Y-2.8
X5.49Y-3.31
X5.49Y-3.82
X5.49Y-4.33
X5.49Y-4.84
X5.49Y-5.35
X5.96Y-2.29
X5.96Y-2.8
X5.96Y-3.31
X5.96Y-3.82
X5.96Y-4.33
X5.96Y-4.84
X5.96Y-5.35
X6.09Y-2.29
X6.09Y-2.8
X6.09Y-3.31
X6.09Y-3.82
X6.09Y-4.33
X6.09Y-4.84
X6.09Y-5.35
T5
X2.725Y-2.1
X2.725Y-2.2
X2.725Y-2.3
X2.725Y-2.4
X2.725Y-2.5
X2.725Y-2.61
X2.725Y-2.71
X2.725Y-2.81
X2.725Y-2.91
X2.725Y-3.01
X2.725Y-3.12
X2.725Y-3.22
X2.725Y-3.32
X2.725Y-3.42
X2.725Y-3.52
X2.725Y-3.63
X2.725Y-3.73
X2.725Y-3.83
X2.725Y-3.93
X2.725Y-4.03
X2.725Y-4.14
X2.725Y-4.24
X2.725Y-4.34
X2.725Y-4.44
X2.725Y-4.54
X2.725Y-4.65
X2.725Y-4.75
X2.725Y-4.85
X2.725Y-4.95
X2.725Y-5.05
X2.725Y-5.16
X2.725Y-5.26
X2.725Y-5.36
X2.725Y-5.46
X2.725Y-5.56
X3.325Y-2.1
X3.325Y-2.2
X3.325Y-2.3
X3.325Y-2.4
X3.325Y-2.5
X3.325Y-2.61
X3.325Y-2.71
X3.325Y-2.81
X3.325Y-2.91
X3.325Y-3.01
X3.325Y-3.12
X3.325Y-3.22
X3.325Y-3.32
X3.325Y-3.42
X3.325Y-3.52
X3.325Y-3.63
X3.325Y-3.73
X3.325Y-3.83
X3.325Y-3.93
X3.325Y-4.03
X3.325Y-4.14
X3.325Y-4.24
X3.325Y-4.34
X3.325Y-4.44
X3.325Y-4.54
X3.325Y-4.65
X3.325Y-4.75
X3.325Y-4.85
X3.325Y-4.95
X3.325Y-5.05
X3.325Y-5.16
X3.325Y-5.26
X3.325Y-5.36
X3.325Y-5.46
X3.325Y-5.56
X3.925Y-2.1
X3.925Y-2.2
X3.925Y-2.3
X3.925Y-2.4
X3.925Y-2.5
X3.925Y-2.61
X3.925Y-2.71
X3.925Y-2.81
X3.925Y-2.91
X3.925Y-3.01
X3.925Y-3.12
X3.925Y-3.22
X3.925Y-3.32
X3.925Y-3.42
X3.925Y-3.52
X3.925Y-3.63
X3.925Y-3.73
X3.925Y-3.83
X3.925Y-3.93
X3.925Y-4.03
X3.925Y-4.14
X3.925Y-4.24
X3.925Y-4.34
X3.925Y-4.44
X3.925Y-4.54
X3.925Y-4.65
X3.925Y-4.75
X3.925Y-4.85
X3.925Y-4.95
X3.925Y-5.05
X3.925Y-5.16
X3.925Y-5.26
X3.925Y-5.36
X3.925Y-5.46
X3.925Y-5.56
X4.525Y-2.1
X4.525Y-2.2
X4.525Y-2.3
X4.525Y-2.4
X4.525Y-2.5
X4.525Y-2.61
X4.525Y-2.71
X4.525Y-2.81
X4.525Y-2.91
X4.525Y-3.01
X4.525Y-3.12
X4.525Y-3.22
X4.525Y-3.32
X4.525Y-3.42
X4.525Y-3.52
X4.525Y-3.63
X4.525Y-3.73
X4.525Y-3.83
X4.525Y-3.93
X4.525Y-4.03
X4.525Y-4.14
X4.525Y-4.24
X4.525Y-4.34
X4.525Y-4.44
X4.525Y-4.54
X4.525Y-4.65
X4.525Y-4.75
X4.525Y-4.85
X4.525Y-4.95
X4.525Y-5.05
X4.525Y-5.16
X4.525Y-5.26
X4.525Y-5.36
X4.525Y-5.46
X4.525Y-5.56
X5.125Y-2.1
X5.125Y-2.2
X5.125Y-2.3
X5.125Y-2.4
X5.125Y-2.5
X5.125Y-2.61
X5.125Y-2.71
X5.125Y-2.81
X5.125Y-2.91
X5.125Y-3.01
X5.125Y-3.12
X5.125Y-3.22
X5.125Y-3.32
X5.125Y-3.42
X5.125Y-3.52
X5.125Y-3.63
X5.125Y-3.73
X5.125Y-3.83
X5.125Y-3.93
X5.125Y-4.03
X5.125Y-4.14
X5.125Y-4.24
X5.125Y-4.34
X5.125Y-4.44
X5.125Y-4.54
X5.125Y-4.65
X5.125Y-4.75
X5.125Y-4.85
X5.125Y-4.95
X5.125Y-5.05
X5.125Y-5.16
X5.125Y-5.26
X5.125Y-5.36
X5.125Y-5.46
X5.125Y-5.56
X5.725Y-2.1
X5.725Y-2.2
X5.725Y-2.3
X5.725Y-2.4
X5.725Y-2.5
X5.725Y-2.61
X5.725Y-2.71
X5.725Y-2.81
X5.725Y-2.91
X5.725Y-3.01
X5.725Y-3.12
X5.725Y-3.22
X5.725Y-3.32
X5.725Y-3.42
X5.725Y-3.52
X5.725Y-3.63
X5.725Y-3.73
X5.725Y-3.83
X5.725Y-3.93
X5.725Y-4.03
X5.725Y-4.14
X5.725Y-4.24
X5.725Y-4.34
X5.725Y-4.44
X5.725Y-4.54
X5.725Y-4.65
X5.725Y-4.75
X5.725Y-4.85
X5.725Y-4.95
X5.725Y-5.05
X5.725Y-5.16
X5.725Y-5.26
X5.725Y-5.36
X5.725Y-5.46
X5.725Y-5.56
X6.325Y-2.1
X6.325Y-2.2
X6.325Y-2.3
X6.325Y-2.4
X6.325Y-2.5
X6.325Y-2.61
X6.325Y-2.71
X6.325Y-2.81
X6.325Y-2.91
X6.325Y-3.01
X6.325Y-3.12
X6.325Y-3.22
X6.325Y-3.32
X6.325Y-3.42
X6.325Y-3.52
X6.325Y-3.63
X6.325Y-3.73
X6.325Y-3.83
X6.325Y-3.93
X6.325Y-4.03
X6.325Y-4.14
X6.325Y-4.24
X6.325Y-4.34
X6.325Y-4.44
X6.325Y-4.54
X6.325Y-4.65
X6.325Y-4.75
X6.325Y-4.85
X6.325Y-4.95
X6.325Y-5.05
X6.325Y-5.16
X6.325Y-5.26
X6.325Y-5.36
X6.325Y-5.46
X6.325Y-5.56
T4
G00X2.8549Y-2.2451
M15
G01X2.8549Y-2.2884
M16
G05
G00X2.8549Y-2.4195
M15
G01X2.8549Y-2.4431
M16
G05
G00X2.8549Y-2.7551
M15
G01X2.8549Y-2.7984
M16
G05
G00X2.8549Y-2.9295
M15
G01X2.8549Y-2.9531
M16
G05
G00X2.8549Y-3.2651
M15
G01X2.8549Y-3.3084
M16
G05
G00X2.8549Y-3.4395
M15
G01X2.8549Y-3.4631
M16
G05
G00X2.8549Y-3.7751
M15
G01X2.8549Y-3.8184
M16
G05
G00X2.8549Y-3.9495
M15
G01X2.8549Y-3.9731
M16
G05
G00X2.8549Y-4.2851
M15
G01X2.8549Y-4.3284
M16
G05
G00X2.8549Y-4.4595
M15
G01X2.8549Y-4.4831
M16
G05
G00X2.8549Y-4.7951
M15
G01X2.8549Y-4.8384
M16
G05
G00X2.8549Y-4.9695
M15
G01X2.8549Y-4.9931
M16
G05
G00X2.8549Y-5.3051
M15
G01X2.8549Y-5.3484
M16
G05
G00X2.8549Y-5.4795
M15
G01X2.8549Y-5.5031
M16
G05
G00X3.1951Y-2.2451
M15
G01X3.1951Y-2.2884
M16
G05
G00X3.1951Y-2.4195
M15
G01X3.1951Y-2.4431
M16
G05
G00X3.1951Y-2.7551
M15
G01X3.1951Y-2.7984
M16
G05
G00X3.1951Y-2.9295
M15
G01X3.1951Y-2.9531
M16
G05
G00X3.1951Y-3.2651
M15
G01X3.1951Y-3.3084
M16
G05
G00X3.1951Y-3.4395
M15
G01X3.1951Y-3.4631
M16
G05
G00X3.1951Y-3.7751
M15
G01X3.1951Y-3.8184
M16
G05
G00X3.1951Y-3.9495
M15
G01X3.1951Y-3.9731
M16
G05
G00X3.1951Y-4.2851
M15
G01X3.1951Y-4.3284
M16
G05
G00X3.1951Y-4.4595
M15
G01X3.1951Y-4.4831
M16
G05
G00X3.1951Y-4.7951
M15
G01X3.1951Y-4.8384
M16
G05
G00X3.1951Y-4.9695
M15
G01X3.1951Y-4.9931
M16
G05
G00X3.1951Y-5.3051
M15
G01X3.1951Y-5.3484
M16
G05
G00X3.1951Y-5.4795
M15
G01X3.1951Y-5.5031
M16
G05
G00X3.4549Y-2.2451
M15
G01X3.4549Y-2.2884
M16
G05
G00X3.4549Y-2.4195
M15
G01X3.4549Y-2.4431
M16
G05
G00X3.4549Y-2.7551
M15
G01X3.4549Y-2.7984
M16
G05
G00X3.4549Y-2.9295
M15
G01X3.4549Y-2.9531
M16
G05
G00X3.4549Y-3.2651
M15
G01X3.4549Y-3.3084
M16
G05
G00X3.4549Y-3.4395
M15
G01X3.4549Y-3.4631
M16
G05
G00X3.4549Y-3.7751
M15
G01X3.4549Y-3.8184
M16
G05
G00X3.4549Y-3.9495
M15
G01X3.4549Y-3.9731
M16
G05
G00X3.4549Y-4.2851
M15
G01X3.4549Y-4.3284
M16
G05
G00X3.4549Y-4.4595
M15
G01X3.4549Y-4.4831
M16
G05
G00X3.4549Y-4.7951
M15
G01X3.4549Y-4.8384
M16
G05
G00X3.4549Y-4.9695
M15
G01X3.4549Y-4.9931
M16
G05
G00X3.4549Y-5.3051
M15
G01X3.4549Y-5.3484
M16
G05
G00X3.4549Y-5.4795
M15
G01X3.4549Y-5.5031
M16
G05
G00X3.7951Y-2.2451
M15
G01X3.7951Y-2.2884
M16
G05
G00X3.7951Y-2.4195
M15
G01X3.7951Y-2.4431
M16
G05
G00X3.7951Y-2.7551
M15
G01X3.7951Y-2.7984
M16
G05
G00X3.7951Y-2.9295
M15
G01X3.7951Y-2.9531
M16
G05
G00X3.7951Y-3.2651
M15
G01X3.7951Y-3.3084
M16
G05
G00X3.7951Y-3.4395
M15
G01X3.7951Y-3.4631
M16
G05
G00X3.7951Y-3.7751
M15
G01X3.7951Y-3.8184
M16
G05
G00X3.7951Y-3.9495
M15
G01X3.7951Y-3.9731
M16
G05
G00X3.7951Y-4.2851
M15
G01X3.7951Y-4.3284
M16
G05
G00X3.7951Y-4.4595
M15
G01X3.7951Y-4.4831
M16
G05
G00X3.7951Y-4.7951
M15
G01X3.7951Y-4.8384
M16
G05
G00X3.7951Y-4.9695
M15
G01X3.7951Y-4.9931
M16
G05
G00X3.7951Y-5.3051
M15
G01X3.7951Y-5.3484
M16
G05
G00X3.7951Y-5.4795
M15
G01X3.7951Y-5.5031
M16
G05
G00X4.0549Y-2.2451
M15
G01X4.0549Y-2.2884
M16
G05
G00X4.0549Y-2.4195
M15
G01X4.0549Y-2.4431
M16
G05
G00X4.0549Y-2.7551
M15
G01X4.0549Y-2.7984
M16
G05
G00X4.0549Y-2.9295
M15
G01X4.0549Y-2.9531
M16
G05
G00X4.0549Y-3.2651
M15
G01X4.0549Y-3.3084
M16
G05
G00X4.0549Y-3.4395
M15
G01X4.0549Y-3.4631
M16
G05
G00X4.0549Y-3.7751
M15
G01X4.0549Y-3.8184
M16
G05
G00X4.0549Y-3.9495
M15
G01X4.0549Y-3.9731
M16
G05
G00X4.0549Y-4.2851
M15
G01X4.0549Y-4.3284
M16
G05
G00X4.0549Y-4.4595
M15
G01X4.0549Y-4.4831
M16
G05
G00X4.0549Y-4.7951
M15
G01X4.0549Y-4.8384
M16
G05
G00X4.0549Y-4.9695
M15
G01X4.0549Y-4.9931
M16
G05
G00X4.0549Y-5.3051
M15
G01X4.0549Y-5.3484
M16
G05
G00X4.0549Y-5.4795
M15
G01X4.0549Y-5.5031
M16
G05
G00X4.3951Y-2.2451
M15
G01X4.3951Y-2.2884
M16
G05
G00X4.3951Y-2.4195
M15
G01X4.3951Y-2.4431
M16
G05
G00X4.3951Y-2.7551
M15
G01X4.3951Y-2.7984
M16
G05
G00X4.3951Y-2.9295
M15
G01X4.3951Y-2.9531
M16
G05
G00X4.3951Y-3.2651
M15
G01X4.3951Y-3.3084
M16
G05
G00X4.3951Y-3.4395
M15
G01X4.3951Y-3.4631
M16
G05
G00X4.3951Y-3.7751
M15
G01X4.3951Y-3.8184
M16
G05
G00X4.3951Y-3.9495
M15
G01X4.3951Y-3.9731
M16
G05
G00X4.3951Y-4.2851
M15
G01X4.3951Y-4.3284
M16
G05
G00X4.3951Y-4.4595
M15
G01X4.3951Y-4.4831
M16
G05
G00X4.3951Y-4.7951
M15
G01X4.3951Y-4.8384
M16
G05
G00X4.3951Y-4.9695
M15
G01X4.3951Y-4.9931
M16
G05
G00X4.3951Y-5.3051
M15
G01X4.3951Y-5.3484
M16
G05
G00X4.3951Y-5.4795
M15
G01X4.3951Y-5.5031
M16
G05
G00X4.6549Y-2.2451
M15
G01X4.6549Y-2.2884
M16
G05
G00X4.6549Y-2.4195
M15
G01X4.6549Y-2.4431
M16
G05
G00X4.6549Y-2.7551
M15
G01X4.6549Y-2.7984
M16
G05
G00X4.6549Y-2.9295
M15
G01X4.6549Y-2.9531
M16
G05
G00X4.6549Y-3.2651
M15
G01X4.6549Y-3.3084
M16
G05
G00X4.6549Y-3.4395
M15
G01X4.6549Y-3.4631
M16
G05
G00X4.6549Y-3.7751
M15
G01X4.6549Y-3.8184
M16
G05
G00X4.6549Y-3.9495
M15
G01X4.6549Y-3.9731
M16
G05
G00X4.6549Y-4.2851
M15
G01X4.6549Y-4.3284
M16
G05
G00X4.6549Y-4.4595
M15
G01X4.6549Y-4.4831
M16
G05
G00X4.6549Y-4.7951
M15
G01X4.6549Y-4.8384
M16
G05
G00X4.6549Y-4.9695
M15
G01X4.6549Y-4.9931
M16
G05
G00X4.6549Y-5.3051
M15
G01X4.6549Y-5.3484
M16
G05
G00X4.6549Y-5.4795
M15
G01X4.6549Y-5.5031
M16
G05
G00X4.9951Y-2.2451
M15
G01X4.9951Y-2.2884
M16
G05
G00X4.9951Y-2.4195
M15
G01X4.9951Y-2.4431
M16
G05
G00X4.9951Y-2.7551
M15
G01X4.9951Y-2.7984
M16
G05
G00X4.9951Y-2.9295
M15
G01X4.9951Y-2.9531
M16
G05
G00X4.9951Y-3.2651
M15
G01X4.9951Y-3.3084
M16
G05
G00X4.9951Y-3.4395
M15
G01X4.9951Y-3.4631
M16
G05
G00X4.9951Y-3.7751
M15
G01X4.9951Y-3.8184
M16
G05
G00X4.9951Y-3.9495
M15
G01X4.9951Y-3.9731
M16
G05
G00X4.9951Y-4.2851
M15
G01X4.9951Y-4.3284
M16
G05
G00X4.9951Y-4.4595
M15
G01X4.9951Y-4.4831
M16
G05
G00X4.9951Y-4.7951
M15
G01X4.9951Y-4.8384
M16
G05
G00X4.9951Y-4.9695
M15
G01X4.9951Y-4.9931
M16
G05
G00X4.9951Y-5.3051
M15
G01X4.9951Y-5.3484
M16
G05
G00X4.9951Y-5.4795
M15
G01X4.9951Y-5.5031
M16
G05
G00X5.2549Y-2.2451
M15
G01X5.2549Y-2.2884
M16
G05
G00X5.2549Y-2.4195
M15
G01X5.2549Y-2.4431
M16
G05
G00X5.2549Y-2.7551
M15
G01X5.2549Y-2.7984
M16
G05
G00X5.2549Y-2.9295
M15
G01X5.2549Y-2.9531
M16
G05
G00X5.2549Y-3.2651
M15
G01X5.2549Y-3.3084
M16
G05
G00X5.2549Y-3.4395
M15
G01X5.2549Y-3.4631
M16
G05
G00X5.2549Y-3.7751
M15
G01X5.2549Y-3.8184
M16
G05
G00X5.2549Y-3.9495
M15
G01X5.2549Y-3.9731
M16
G05
G00X5.2549Y-4.2851
M15
G01X5.2549Y-4.3284
M16
G05
G00X5.2549Y-4.4595
M15
G01X5.2549Y-4.4831
M16
G05
G00X5.2549Y-4.7951
M15
G01X5.2549Y-4.8384
M16
G05
G00X5.2549Y-4.9695
M15
G01X5.2549Y-4.9931
M16
G05
G00X5.2549Y-5.3051
M15
G01X5.2549Y-5.3484
M16
G05
G00X5.2549Y-5.4795
M15
G01X5.2549Y-5.5031
M16
G05
G00X5.5951Y-2.2451
M15
G01X5.5951Y-2.2884
M16
G05
G00X5.5951Y-2.4195
M15
G01X5.5951Y-2.4431
M16
G05
G00X5.5951Y-2.7551
M15
G01X5.5951Y-2.7984
M16
G05
G00X5.5951Y-2.9295
M15
G01X5.5951Y-2.9531
M16
G05
G00X5.5951Y-3.2651
M15
G01X5.5951Y-3.3084
M16
G05
G00X5.5951Y-3.4395
M15
G01X5.5951Y-3.4631
M16
G05
G00X5.5951Y-3.7751
M15
G01X5.5951Y-3.8184
M16
G05
G00X5.5951Y-3.9495
M15
G01X5.5951Y-3.9731
M16
G05
G00X5.5951Y-4.2851
M15
G01X5.5951Y-4.3284
M16
G05
G00X5.5951Y-4.4595
M15
G01X5.5951Y-4.4831
M16
G05
G00X5.5951Y-4.7951
M15
G01X5.5951Y-4.8384
M16
G05
G00X5.5951Y-4.9695
M15
G01X5.5951Y-4.9931
M16
G05
G00X5.5951Y-5.3051
M15
G01X5.5951Y-5.3484
M16
G05
G00X5.5951Y-5.4795
M15
G01X5.5951Y-5.5031
M16
G05
G00X5.8549Y-2.2451
M15
G01X5.8549Y-2.2884
M16
G05
G00X5.8549Y-2.4195
M15
G01X5.8549Y-2.4431
M16
G05
G00X5.8549Y-2.7551
M15
G01X5.8549Y-2.7984
M16
G05
G00X5.8549Y-2.9295
M15
G01X5.8549Y-2.9531
M16
G05
G00X5.8549Y-3.2651
M15
G01X5.8549Y-3.3084
M16
G05
G00X5.8549Y-3.4395
M15
G01X5.8549Y-3.4631
M16
G05
G00X5.8549Y-3.7751
M15
G01X5.8549Y-3.8184
M16
G05
G00X5.8549Y-3.9495
M15
G01X5.8549Y-3.9731
M16
G05
G00X5.8549Y-4.2851
M15
G01X5.8549Y-4.3284
M16
G05
G00X5.8549Y-4.4595
M15
G01X5.8549Y-4.4831
M16
G05
G00X5.8549Y-4.7951
M15
G01X5.8549Y-4.8384
M16
G05
G00X5.8549Y-4.9695
M15
G01X5.8549Y-4.9931
M16
G05
G00X5.8549Y-5.3051
M15
G01X5.8549Y-5.3484
M16
G05
G00X5.8549Y-5.4795
M15
G01X5.8549Y-5.5031
M16
G05
G00X6.1951Y-2.2451
M15
G01X6.1951Y-2.2884
M16
G05
G00X6.1951Y-2.4195
M15
G01X6.1951Y-2.4431
M16
G05
G00X6.1951Y-2.7551
M15
G01X6.1951Y-2.7984
M16
G05
G00X6.1951Y-2.9295
M15
G01X6.1951Y-2.9531
M16
G05
G00X6.1951Y-3.2651
M15
G01X6.1951Y-3.3084
M16
G05
G00X6.1951Y-3.4395
M15
G01X6.1951Y-3.4631
M16
G05
G00X6.1951Y-3.7751
M15
G01X6.1951Y-3.8184
M16
G05
G00X6.1951Y-3.9495
M15
G01X6.1951Y-3.9731
M16
G05
G00X6.1951Y-4.2851
M15
G01X6.1951Y-4.3284
M16
G05
G00X6.1951Y-4.4595
M15
G01X6.1951Y-4.4831
M16
G05
G00X6.1951Y-4.7951
M15
G01X6.1951Y-4.8384
M16
G05
G00X6.1951Y-4.9695
M15
G01X6.1951Y-4.9931
M16
G05
G00X6.1951Y-5.3051
M15
G01X6.1951Y-5.3484
M16
G05
G00X6.1951Y-5.4795
M15
G01X6.1951Y-5.5031
M16
G05
T0
M30
