%TF.GenerationSoftware,KiCad,Pcbnew,(6.0.7)*%
%TF.CreationDate,2023-04-16T01:29:03+08:00*%
%TF.ProjectId,typical,74797069-6361-46c2-9e6b-696361645f70,rev?*%
%TF.SameCoordinates,Original*%
%TF.FileFunction,Soldermask,Top*%
%TF.FilePolarity,Negative*%
%FSLAX46Y46*%
G04 Gerber Fmt 4.6, Leading zero omitted, Abs format (unit mm)*
G04 Created by KiCad (PCBNEW (6.0.7)) date 2023-04-16 01:29:03*
%MOMM*%
%LPD*%
G01*
G04 APERTURE LIST*
G04 Aperture macros list*
%AMRoundRect*
0 Rectangle with rounded corners*
0 $1 Rounding radius*
0 $2 $3 $4 $5 $6 $7 $8 $9 X,Y pos of 4 corners*
0 Add a 4 corners polygon primitive as box body*
4,1,4,$2,$3,$4,$5,$6,$7,$8,$9,$2,$3,0*
0 Add four circle primitives for the rounded corners*
1,1,$1+$1,$2,$3*
1,1,$1+$1,$4,$5*
1,1,$1+$1,$6,$7*
1,1,$1+$1,$8,$9*
0 Add four rect primitives between the rounded corners*
20,1,$1+$1,$2,$3,$4,$5,0*
20,1,$1+$1,$4,$5,$6,$7,0*
20,1,$1+$1,$6,$7,$8,$9,0*
20,1,$1+$1,$8,$9,$2,$3,0*%
G04 Aperture macros list end*
%ADD10O,1.700000X1.700000*%
%ADD11R,3.000000X2.300000*%
%ADD12O,1.000000X1.600000*%
%ADD13O,1.000000X2.100000*%
%ADD14R,0.600000X1.450000*%
%ADD15R,0.300000X1.450000*%
%ADD16C,0.650000*%
%ADD17RoundRect,0.200000X0.200000X0.275000X-0.200000X0.275000X-0.200000X-0.275000X0.200000X-0.275000X0*%
G04 APERTURE END LIST*
D10*
%TO.C,J3*%
X160655000Y-131064000D03*
X160655000Y-133604000D03*
X160655000Y-136144000D03*
X160655000Y-138684000D03*
D11*
X160655000Y-141224000D03*
%TD*%
D10*
%TO.C,J3*%
X160655000Y-118110000D03*
X160655000Y-120650000D03*
X160655000Y-123190000D03*
X160655000Y-125730000D03*
D11*
X160655000Y-128270000D03*
%TD*%
D10*
%TO.C,J3*%
X160655000Y-105156000D03*
X160655000Y-107696000D03*
X160655000Y-110236000D03*
X160655000Y-112776000D03*
D11*
X160655000Y-115316000D03*
%TD*%
D10*
%TO.C,J3*%
X160655000Y-92202000D03*
X160655000Y-94742000D03*
X160655000Y-97282000D03*
X160655000Y-99822000D03*
D11*
X160655000Y-102362000D03*
%TD*%
D10*
%TO.C,J3*%
X160655000Y-79248000D03*
X160655000Y-81788000D03*
X160655000Y-84328000D03*
X160655000Y-86868000D03*
D11*
X160655000Y-89408000D03*
%TD*%
D10*
%TO.C,J3*%
X160655000Y-66294000D03*
X160655000Y-68834000D03*
X160655000Y-71374000D03*
X160655000Y-73914000D03*
D11*
X160655000Y-76454000D03*
%TD*%
D12*
%TO.C,J1*%
X148715000Y-139480000D03*
D13*
X148715000Y-135300000D03*
X157355000Y-135300000D03*
D12*
X157355000Y-139480000D03*
D14*
X149785000Y-134385000D03*
X150585000Y-134385000D03*
D15*
X151285000Y-134385000D03*
X152285000Y-134385000D03*
X153785000Y-134385000D03*
X154785000Y-134385000D03*
D14*
X155485000Y-134385000D03*
X156285000Y-134385000D03*
X156285000Y-134385000D03*
X155485000Y-134385000D03*
D15*
X154285000Y-134385000D03*
X153285000Y-134385000D03*
X152785000Y-134385000D03*
X151785000Y-134385000D03*
D14*
X150585000Y-134385000D03*
X149785000Y-134385000D03*
D16*
X155925000Y-135830000D03*
X150145000Y-135830000D03*
%TD*%
D10*
%TO.C,J3*%
X145415000Y-131064000D03*
X145415000Y-133604000D03*
X145415000Y-136144000D03*
X145415000Y-138684000D03*
D11*
X145415000Y-141224000D03*
%TD*%
D17*
%TO.C,R2*%
X156045000Y-130574000D03*
X157695000Y-130574000D03*
%TD*%
%TO.C,R1*%
X148370000Y-130574000D03*
X150020000Y-130574000D03*
%TD*%
%TO.C,R2*%
X140805000Y-130574000D03*
X142455000Y-130574000D03*
%TD*%
D12*
%TO.C,J1*%
X133475000Y-139480000D03*
D13*
X133475000Y-135300000D03*
X142115000Y-135300000D03*
D12*
X142115000Y-139480000D03*
D14*
X134545000Y-134385000D03*
X135345000Y-134385000D03*
D15*
X136045000Y-134385000D03*
X137045000Y-134385000D03*
X138545000Y-134385000D03*
X139545000Y-134385000D03*
D14*
X140245000Y-134385000D03*
X141045000Y-134385000D03*
X141045000Y-134385000D03*
X140245000Y-134385000D03*
D15*
X139045000Y-134385000D03*
X138045000Y-134385000D03*
X137545000Y-134385000D03*
X136545000Y-134385000D03*
D14*
X135345000Y-134385000D03*
X134545000Y-134385000D03*
D16*
X140685000Y-135830000D03*
X134905000Y-135830000D03*
%TD*%
D10*
%TO.C,J3*%
X130175000Y-131064000D03*
X130175000Y-133604000D03*
X130175000Y-136144000D03*
X130175000Y-138684000D03*
D11*
X130175000Y-141224000D03*
%TD*%
D17*
%TO.C,R1*%
X133130000Y-130574000D03*
X134780000Y-130574000D03*
%TD*%
%TO.C,R2*%
X125565000Y-130574000D03*
X127215000Y-130574000D03*
%TD*%
D12*
%TO.C,J1*%
X118235000Y-139480000D03*
D13*
X118235000Y-135300000D03*
X126875000Y-135300000D03*
D12*
X126875000Y-139480000D03*
D14*
X119305000Y-134385000D03*
X120105000Y-134385000D03*
D15*
X120805000Y-134385000D03*
X121805000Y-134385000D03*
X123305000Y-134385000D03*
X124305000Y-134385000D03*
D14*
X125005000Y-134385000D03*
X125805000Y-134385000D03*
X125805000Y-134385000D03*
X125005000Y-134385000D03*
D15*
X123805000Y-134385000D03*
X122805000Y-134385000D03*
X122305000Y-134385000D03*
X121305000Y-134385000D03*
D14*
X120105000Y-134385000D03*
X119305000Y-134385000D03*
D16*
X125445000Y-135830000D03*
X119665000Y-135830000D03*
%TD*%
D10*
%TO.C,J3*%
X114935000Y-131064000D03*
X114935000Y-133604000D03*
X114935000Y-136144000D03*
X114935000Y-138684000D03*
D11*
X114935000Y-141224000D03*
%TD*%
D17*
%TO.C,R1*%
X117890000Y-130574000D03*
X119540000Y-130574000D03*
%TD*%
%TO.C,R2*%
X110325000Y-130574000D03*
X111975000Y-130574000D03*
%TD*%
D12*
%TO.C,J1*%
X102995000Y-139480000D03*
D13*
X102995000Y-135300000D03*
X111635000Y-135300000D03*
D12*
X111635000Y-139480000D03*
D14*
X104065000Y-134385000D03*
X104865000Y-134385000D03*
D15*
X105565000Y-134385000D03*
X106565000Y-134385000D03*
X108065000Y-134385000D03*
X109065000Y-134385000D03*
D14*
X109765000Y-134385000D03*
X110565000Y-134385000D03*
X110565000Y-134385000D03*
X109765000Y-134385000D03*
D15*
X108565000Y-134385000D03*
X107565000Y-134385000D03*
X107065000Y-134385000D03*
X106065000Y-134385000D03*
D14*
X104865000Y-134385000D03*
X104065000Y-134385000D03*
D16*
X110205000Y-135830000D03*
X104425000Y-135830000D03*
%TD*%
D17*
%TO.C,R1*%
X102650000Y-130574000D03*
X104300000Y-130574000D03*
%TD*%
D10*
%TO.C,J3*%
X99695000Y-131064000D03*
X99695000Y-133604000D03*
X99695000Y-136144000D03*
X99695000Y-138684000D03*
D11*
X99695000Y-141224000D03*
%TD*%
D17*
%TO.C,R2*%
X95085000Y-130574000D03*
X96735000Y-130574000D03*
%TD*%
D12*
%TO.C,J1*%
X87755000Y-139480000D03*
D13*
X87755000Y-135300000D03*
X96395000Y-135300000D03*
D12*
X96395000Y-139480000D03*
D14*
X88825000Y-134385000D03*
X89625000Y-134385000D03*
D15*
X90325000Y-134385000D03*
X91325000Y-134385000D03*
X92825000Y-134385000D03*
X93825000Y-134385000D03*
D14*
X94525000Y-134385000D03*
X95325000Y-134385000D03*
X95325000Y-134385000D03*
X94525000Y-134385000D03*
D15*
X93325000Y-134385000D03*
X92325000Y-134385000D03*
X91825000Y-134385000D03*
X90825000Y-134385000D03*
D14*
X89625000Y-134385000D03*
X88825000Y-134385000D03*
D16*
X94965000Y-135830000D03*
X89185000Y-135830000D03*
%TD*%
D10*
%TO.C,J3*%
X84455000Y-131064000D03*
X84455000Y-133604000D03*
X84455000Y-136144000D03*
X84455000Y-138684000D03*
D11*
X84455000Y-141224000D03*
%TD*%
D17*
%TO.C,R1*%
X87410000Y-130574000D03*
X89060000Y-130574000D03*
%TD*%
%TO.C,R2*%
X79845000Y-130574000D03*
X81495000Y-130574000D03*
%TD*%
D12*
%TO.C,J1*%
X72515000Y-139480000D03*
D13*
X72515000Y-135300000D03*
X81155000Y-135300000D03*
D12*
X81155000Y-139480000D03*
D14*
X73585000Y-134385000D03*
X74385000Y-134385000D03*
D15*
X75085000Y-134385000D03*
X76085000Y-134385000D03*
X77585000Y-134385000D03*
X78585000Y-134385000D03*
D14*
X79285000Y-134385000D03*
X80085000Y-134385000D03*
X80085000Y-134385000D03*
X79285000Y-134385000D03*
D15*
X78085000Y-134385000D03*
X77085000Y-134385000D03*
X76585000Y-134385000D03*
X75585000Y-134385000D03*
D14*
X74385000Y-134385000D03*
X73585000Y-134385000D03*
D16*
X79725000Y-135830000D03*
X73945000Y-135830000D03*
%TD*%
D17*
%TO.C,R1*%
X72170000Y-130574000D03*
X73820000Y-130574000D03*
%TD*%
D10*
%TO.C,J3*%
X69215000Y-131064000D03*
X69215000Y-133604000D03*
X69215000Y-136144000D03*
X69215000Y-138684000D03*
D11*
X69215000Y-141224000D03*
%TD*%
D12*
%TO.C,J1*%
X148715000Y-126526000D03*
D13*
X148715000Y-122346000D03*
X157355000Y-122346000D03*
D12*
X157355000Y-126526000D03*
D14*
X149785000Y-121431000D03*
X150585000Y-121431000D03*
D15*
X151285000Y-121431000D03*
X152285000Y-121431000D03*
X153785000Y-121431000D03*
X154785000Y-121431000D03*
D14*
X155485000Y-121431000D03*
X156285000Y-121431000D03*
X156285000Y-121431000D03*
X155485000Y-121431000D03*
D15*
X154285000Y-121431000D03*
X153285000Y-121431000D03*
X152785000Y-121431000D03*
X151785000Y-121431000D03*
D14*
X150585000Y-121431000D03*
X149785000Y-121431000D03*
D16*
X155925000Y-122876000D03*
X150145000Y-122876000D03*
%TD*%
D17*
%TO.C,R2*%
X156045000Y-117620000D03*
X157695000Y-117620000D03*
%TD*%
D10*
%TO.C,J3*%
X145415000Y-118110000D03*
X145415000Y-120650000D03*
X145415000Y-123190000D03*
X145415000Y-125730000D03*
D11*
X145415000Y-128270000D03*
%TD*%
D17*
%TO.C,R1*%
X148370000Y-117620000D03*
X150020000Y-117620000D03*
%TD*%
%TO.C,R2*%
X140805000Y-117620000D03*
X142455000Y-117620000D03*
%TD*%
D10*
%TO.C,J3*%
X130175000Y-118110000D03*
X130175000Y-120650000D03*
X130175000Y-123190000D03*
X130175000Y-125730000D03*
D11*
X130175000Y-128270000D03*
%TD*%
D17*
%TO.C,R1*%
X133130000Y-117620000D03*
X134780000Y-117620000D03*
%TD*%
D12*
%TO.C,J1*%
X133475000Y-126526000D03*
D13*
X133475000Y-122346000D03*
X142115000Y-122346000D03*
D12*
X142115000Y-126526000D03*
D14*
X134545000Y-121431000D03*
X135345000Y-121431000D03*
D15*
X136045000Y-121431000D03*
X137045000Y-121431000D03*
X138545000Y-121431000D03*
X139545000Y-121431000D03*
D14*
X140245000Y-121431000D03*
X141045000Y-121431000D03*
X141045000Y-121431000D03*
X140245000Y-121431000D03*
D15*
X139045000Y-121431000D03*
X138045000Y-121431000D03*
X137545000Y-121431000D03*
X136545000Y-121431000D03*
D14*
X135345000Y-121431000D03*
X134545000Y-121431000D03*
D16*
X140685000Y-122876000D03*
X134905000Y-122876000D03*
%TD*%
D17*
%TO.C,R2*%
X125565000Y-117620000D03*
X127215000Y-117620000D03*
%TD*%
D12*
%TO.C,J1*%
X118235000Y-126526000D03*
D13*
X118235000Y-122346000D03*
X126875000Y-122346000D03*
D12*
X126875000Y-126526000D03*
D14*
X119305000Y-121431000D03*
X120105000Y-121431000D03*
D15*
X120805000Y-121431000D03*
X121805000Y-121431000D03*
X123305000Y-121431000D03*
X124305000Y-121431000D03*
D14*
X125005000Y-121431000D03*
X125805000Y-121431000D03*
X125805000Y-121431000D03*
X125005000Y-121431000D03*
D15*
X123805000Y-121431000D03*
X122805000Y-121431000D03*
X122305000Y-121431000D03*
X121305000Y-121431000D03*
D14*
X120105000Y-121431000D03*
X119305000Y-121431000D03*
D16*
X125445000Y-122876000D03*
X119665000Y-122876000D03*
%TD*%
D10*
%TO.C,J3*%
X114935000Y-118110000D03*
X114935000Y-120650000D03*
X114935000Y-123190000D03*
X114935000Y-125730000D03*
D11*
X114935000Y-128270000D03*
%TD*%
D17*
%TO.C,R1*%
X117890000Y-117620000D03*
X119540000Y-117620000D03*
%TD*%
%TO.C,R2*%
X110325000Y-117620000D03*
X111975000Y-117620000D03*
%TD*%
D12*
%TO.C,J1*%
X102995000Y-126526000D03*
D13*
X102995000Y-122346000D03*
X111635000Y-122346000D03*
D12*
X111635000Y-126526000D03*
D14*
X104065000Y-121431000D03*
X104865000Y-121431000D03*
D15*
X105565000Y-121431000D03*
X106565000Y-121431000D03*
X108065000Y-121431000D03*
X109065000Y-121431000D03*
D14*
X109765000Y-121431000D03*
X110565000Y-121431000D03*
X110565000Y-121431000D03*
X109765000Y-121431000D03*
D15*
X108565000Y-121431000D03*
X107565000Y-121431000D03*
X107065000Y-121431000D03*
X106065000Y-121431000D03*
D14*
X104865000Y-121431000D03*
X104065000Y-121431000D03*
D16*
X110205000Y-122876000D03*
X104425000Y-122876000D03*
%TD*%
D10*
%TO.C,J3*%
X99695000Y-118110000D03*
X99695000Y-120650000D03*
X99695000Y-123190000D03*
X99695000Y-125730000D03*
D11*
X99695000Y-128270000D03*
%TD*%
D17*
%TO.C,R1*%
X102650000Y-117620000D03*
X104300000Y-117620000D03*
%TD*%
%TO.C,R2*%
X95085000Y-117620000D03*
X96735000Y-117620000D03*
%TD*%
D12*
%TO.C,J1*%
X87755000Y-126526000D03*
D13*
X87755000Y-122346000D03*
X96395000Y-122346000D03*
D12*
X96395000Y-126526000D03*
D14*
X88825000Y-121431000D03*
X89625000Y-121431000D03*
D15*
X90325000Y-121431000D03*
X91325000Y-121431000D03*
X92825000Y-121431000D03*
X93825000Y-121431000D03*
D14*
X94525000Y-121431000D03*
X95325000Y-121431000D03*
X95325000Y-121431000D03*
X94525000Y-121431000D03*
D15*
X93325000Y-121431000D03*
X92325000Y-121431000D03*
X91825000Y-121431000D03*
X90825000Y-121431000D03*
D14*
X89625000Y-121431000D03*
X88825000Y-121431000D03*
D16*
X94965000Y-122876000D03*
X89185000Y-122876000D03*
%TD*%
D17*
%TO.C,R1*%
X87410000Y-117620000D03*
X89060000Y-117620000D03*
%TD*%
D10*
%TO.C,J3*%
X84455000Y-118110000D03*
X84455000Y-120650000D03*
X84455000Y-123190000D03*
X84455000Y-125730000D03*
D11*
X84455000Y-128270000D03*
%TD*%
D17*
%TO.C,R2*%
X79845000Y-117620000D03*
X81495000Y-117620000D03*
%TD*%
D12*
%TO.C,J1*%
X72515000Y-126526000D03*
D13*
X72515000Y-122346000D03*
X81155000Y-122346000D03*
D12*
X81155000Y-126526000D03*
D14*
X73585000Y-121431000D03*
X74385000Y-121431000D03*
D15*
X75085000Y-121431000D03*
X76085000Y-121431000D03*
X77585000Y-121431000D03*
X78585000Y-121431000D03*
D14*
X79285000Y-121431000D03*
X80085000Y-121431000D03*
X80085000Y-121431000D03*
X79285000Y-121431000D03*
D15*
X78085000Y-121431000D03*
X77085000Y-121431000D03*
X76585000Y-121431000D03*
X75585000Y-121431000D03*
D14*
X74385000Y-121431000D03*
X73585000Y-121431000D03*
D16*
X79725000Y-122876000D03*
X73945000Y-122876000D03*
%TD*%
D10*
%TO.C,J3*%
X69215000Y-118110000D03*
X69215000Y-120650000D03*
X69215000Y-123190000D03*
X69215000Y-125730000D03*
D11*
X69215000Y-128270000D03*
%TD*%
D17*
%TO.C,R1*%
X72170000Y-117620000D03*
X73820000Y-117620000D03*
%TD*%
%TO.C,R2*%
X156045000Y-104666000D03*
X157695000Y-104666000D03*
%TD*%
D12*
%TO.C,J1*%
X148715000Y-113572000D03*
D13*
X148715000Y-109392000D03*
X157355000Y-109392000D03*
D12*
X157355000Y-113572000D03*
D14*
X149785000Y-108477000D03*
X150585000Y-108477000D03*
D15*
X151285000Y-108477000D03*
X152285000Y-108477000D03*
X153785000Y-108477000D03*
X154785000Y-108477000D03*
D14*
X155485000Y-108477000D03*
X156285000Y-108477000D03*
X156285000Y-108477000D03*
X155485000Y-108477000D03*
D15*
X154285000Y-108477000D03*
X153285000Y-108477000D03*
X152785000Y-108477000D03*
X151785000Y-108477000D03*
D14*
X150585000Y-108477000D03*
X149785000Y-108477000D03*
D16*
X155925000Y-109922000D03*
X150145000Y-109922000D03*
%TD*%
D10*
%TO.C,J3*%
X145415000Y-105156000D03*
X145415000Y-107696000D03*
X145415000Y-110236000D03*
X145415000Y-112776000D03*
D11*
X145415000Y-115316000D03*
%TD*%
D17*
%TO.C,R1*%
X148370000Y-104666000D03*
X150020000Y-104666000D03*
%TD*%
D12*
%TO.C,J1*%
X133475000Y-113572000D03*
D13*
X133475000Y-109392000D03*
X142115000Y-109392000D03*
D12*
X142115000Y-113572000D03*
D14*
X134545000Y-108477000D03*
X135345000Y-108477000D03*
D15*
X136045000Y-108477000D03*
X137045000Y-108477000D03*
X138545000Y-108477000D03*
X139545000Y-108477000D03*
D14*
X140245000Y-108477000D03*
X141045000Y-108477000D03*
X141045000Y-108477000D03*
X140245000Y-108477000D03*
D15*
X139045000Y-108477000D03*
X138045000Y-108477000D03*
X137545000Y-108477000D03*
X136545000Y-108477000D03*
D14*
X135345000Y-108477000D03*
X134545000Y-108477000D03*
D16*
X140685000Y-109922000D03*
X134905000Y-109922000D03*
%TD*%
D10*
%TO.C,J3*%
X130175000Y-105156000D03*
X130175000Y-107696000D03*
X130175000Y-110236000D03*
X130175000Y-112776000D03*
D11*
X130175000Y-115316000D03*
%TD*%
D17*
%TO.C,R1*%
X133130000Y-104666000D03*
X134780000Y-104666000D03*
%TD*%
%TO.C,R2*%
X140805000Y-104666000D03*
X142455000Y-104666000D03*
%TD*%
%TO.C,R2*%
X125565000Y-104666000D03*
X127215000Y-104666000D03*
%TD*%
D10*
%TO.C,J3*%
X114935000Y-105156000D03*
X114935000Y-107696000D03*
X114935000Y-110236000D03*
X114935000Y-112776000D03*
D11*
X114935000Y-115316000D03*
%TD*%
D17*
%TO.C,R1*%
X117890000Y-104666000D03*
X119540000Y-104666000D03*
%TD*%
D12*
%TO.C,J1*%
X118235000Y-113572000D03*
D13*
X118235000Y-109392000D03*
X126875000Y-109392000D03*
D12*
X126875000Y-113572000D03*
D14*
X119305000Y-108477000D03*
X120105000Y-108477000D03*
D15*
X120805000Y-108477000D03*
X121805000Y-108477000D03*
X123305000Y-108477000D03*
X124305000Y-108477000D03*
D14*
X125005000Y-108477000D03*
X125805000Y-108477000D03*
X125805000Y-108477000D03*
X125005000Y-108477000D03*
D15*
X123805000Y-108477000D03*
X122805000Y-108477000D03*
X122305000Y-108477000D03*
X121305000Y-108477000D03*
D14*
X120105000Y-108477000D03*
X119305000Y-108477000D03*
D16*
X125445000Y-109922000D03*
X119665000Y-109922000D03*
%TD*%
D17*
%TO.C,R2*%
X110325000Y-104666000D03*
X111975000Y-104666000D03*
%TD*%
D10*
%TO.C,J3*%
X99695000Y-105156000D03*
X99695000Y-107696000D03*
X99695000Y-110236000D03*
X99695000Y-112776000D03*
D11*
X99695000Y-115316000D03*
%TD*%
D17*
%TO.C,R1*%
X102650000Y-104666000D03*
X104300000Y-104666000D03*
%TD*%
D12*
%TO.C,J1*%
X102995000Y-113572000D03*
D13*
X102995000Y-109392000D03*
X111635000Y-109392000D03*
D12*
X111635000Y-113572000D03*
D14*
X104065000Y-108477000D03*
X104865000Y-108477000D03*
D15*
X105565000Y-108477000D03*
X106565000Y-108477000D03*
X108065000Y-108477000D03*
X109065000Y-108477000D03*
D14*
X109765000Y-108477000D03*
X110565000Y-108477000D03*
X110565000Y-108477000D03*
X109765000Y-108477000D03*
D15*
X108565000Y-108477000D03*
X107565000Y-108477000D03*
X107065000Y-108477000D03*
X106065000Y-108477000D03*
D14*
X104865000Y-108477000D03*
X104065000Y-108477000D03*
D16*
X110205000Y-109922000D03*
X104425000Y-109922000D03*
%TD*%
D17*
%TO.C,R2*%
X95085000Y-104666000D03*
X96735000Y-104666000D03*
%TD*%
%TO.C,R1*%
X87410000Y-104666000D03*
X89060000Y-104666000D03*
%TD*%
D12*
%TO.C,J1*%
X87755000Y-113572000D03*
D13*
X87755000Y-109392000D03*
X96395000Y-109392000D03*
D12*
X96395000Y-113572000D03*
D14*
X88825000Y-108477000D03*
X89625000Y-108477000D03*
D15*
X90325000Y-108477000D03*
X91325000Y-108477000D03*
X92825000Y-108477000D03*
X93825000Y-108477000D03*
D14*
X94525000Y-108477000D03*
X95325000Y-108477000D03*
X95325000Y-108477000D03*
X94525000Y-108477000D03*
D15*
X93325000Y-108477000D03*
X92325000Y-108477000D03*
X91825000Y-108477000D03*
X90825000Y-108477000D03*
D14*
X89625000Y-108477000D03*
X88825000Y-108477000D03*
D16*
X94965000Y-109922000D03*
X89185000Y-109922000D03*
%TD*%
D10*
%TO.C,J3*%
X84455000Y-105156000D03*
X84455000Y-107696000D03*
X84455000Y-110236000D03*
X84455000Y-112776000D03*
D11*
X84455000Y-115316000D03*
%TD*%
D17*
%TO.C,R2*%
X79845000Y-104666000D03*
X81495000Y-104666000D03*
%TD*%
D12*
%TO.C,J1*%
X72515000Y-113572000D03*
D13*
X72515000Y-109392000D03*
X81155000Y-109392000D03*
D12*
X81155000Y-113572000D03*
D14*
X73585000Y-108477000D03*
X74385000Y-108477000D03*
D15*
X75085000Y-108477000D03*
X76085000Y-108477000D03*
X77585000Y-108477000D03*
X78585000Y-108477000D03*
D14*
X79285000Y-108477000D03*
X80085000Y-108477000D03*
X80085000Y-108477000D03*
X79285000Y-108477000D03*
D15*
X78085000Y-108477000D03*
X77085000Y-108477000D03*
X76585000Y-108477000D03*
X75585000Y-108477000D03*
D14*
X74385000Y-108477000D03*
X73585000Y-108477000D03*
D16*
X79725000Y-109922000D03*
X73945000Y-109922000D03*
%TD*%
D10*
%TO.C,J3*%
X69215000Y-105156000D03*
X69215000Y-107696000D03*
X69215000Y-110236000D03*
X69215000Y-112776000D03*
D11*
X69215000Y-115316000D03*
%TD*%
D17*
%TO.C,R1*%
X72170000Y-104666000D03*
X73820000Y-104666000D03*
%TD*%
%TO.C,R2*%
X156045000Y-91712000D03*
X157695000Y-91712000D03*
%TD*%
D12*
%TO.C,J1*%
X148715000Y-100618000D03*
D13*
X148715000Y-96438000D03*
X157355000Y-96438000D03*
D12*
X157355000Y-100618000D03*
D14*
X149785000Y-95523000D03*
X150585000Y-95523000D03*
D15*
X151285000Y-95523000D03*
X152285000Y-95523000D03*
X153785000Y-95523000D03*
X154785000Y-95523000D03*
D14*
X155485000Y-95523000D03*
X156285000Y-95523000D03*
X156285000Y-95523000D03*
X155485000Y-95523000D03*
D15*
X154285000Y-95523000D03*
X153285000Y-95523000D03*
X152785000Y-95523000D03*
X151785000Y-95523000D03*
D14*
X150585000Y-95523000D03*
X149785000Y-95523000D03*
D16*
X155925000Y-96968000D03*
X150145000Y-96968000D03*
%TD*%
D10*
%TO.C,J3*%
X145415000Y-92202000D03*
X145415000Y-94742000D03*
X145415000Y-97282000D03*
X145415000Y-99822000D03*
D11*
X145415000Y-102362000D03*
%TD*%
D17*
%TO.C,R1*%
X148370000Y-91712000D03*
X150020000Y-91712000D03*
%TD*%
%TO.C,R2*%
X140805000Y-91712000D03*
X142455000Y-91712000D03*
%TD*%
D10*
%TO.C,J3*%
X130175000Y-92202000D03*
X130175000Y-94742000D03*
X130175000Y-97282000D03*
X130175000Y-99822000D03*
D11*
X130175000Y-102362000D03*
%TD*%
D12*
%TO.C,J1*%
X133475000Y-100618000D03*
D13*
X133475000Y-96438000D03*
X142115000Y-96438000D03*
D12*
X142115000Y-100618000D03*
D14*
X134545000Y-95523000D03*
X135345000Y-95523000D03*
D15*
X136045000Y-95523000D03*
X137045000Y-95523000D03*
X138545000Y-95523000D03*
X139545000Y-95523000D03*
D14*
X140245000Y-95523000D03*
X141045000Y-95523000D03*
X141045000Y-95523000D03*
X140245000Y-95523000D03*
D15*
X139045000Y-95523000D03*
X138045000Y-95523000D03*
X137545000Y-95523000D03*
X136545000Y-95523000D03*
D14*
X135345000Y-95523000D03*
X134545000Y-95523000D03*
D16*
X140685000Y-96968000D03*
X134905000Y-96968000D03*
%TD*%
D17*
%TO.C,R1*%
X133130000Y-91712000D03*
X134780000Y-91712000D03*
%TD*%
%TO.C,R2*%
X125565000Y-91712000D03*
X127215000Y-91712000D03*
%TD*%
D12*
%TO.C,J1*%
X118235000Y-100618000D03*
D13*
X118235000Y-96438000D03*
X126875000Y-96438000D03*
D12*
X126875000Y-100618000D03*
D14*
X119305000Y-95523000D03*
X120105000Y-95523000D03*
D15*
X120805000Y-95523000D03*
X121805000Y-95523000D03*
X123305000Y-95523000D03*
X124305000Y-95523000D03*
D14*
X125005000Y-95523000D03*
X125805000Y-95523000D03*
X125805000Y-95523000D03*
X125005000Y-95523000D03*
D15*
X123805000Y-95523000D03*
X122805000Y-95523000D03*
X122305000Y-95523000D03*
X121305000Y-95523000D03*
D14*
X120105000Y-95523000D03*
X119305000Y-95523000D03*
D16*
X125445000Y-96968000D03*
X119665000Y-96968000D03*
%TD*%
D10*
%TO.C,J3*%
X114935000Y-92202000D03*
X114935000Y-94742000D03*
X114935000Y-97282000D03*
X114935000Y-99822000D03*
D11*
X114935000Y-102362000D03*
%TD*%
D17*
%TO.C,R1*%
X117890000Y-91712000D03*
X119540000Y-91712000D03*
%TD*%
%TO.C,R2*%
X110325000Y-91712000D03*
X111975000Y-91712000D03*
%TD*%
D12*
%TO.C,J1*%
X102995000Y-100618000D03*
D13*
X102995000Y-96438000D03*
X111635000Y-96438000D03*
D12*
X111635000Y-100618000D03*
D14*
X104065000Y-95523000D03*
X104865000Y-95523000D03*
D15*
X105565000Y-95523000D03*
X106565000Y-95523000D03*
X108065000Y-95523000D03*
X109065000Y-95523000D03*
D14*
X109765000Y-95523000D03*
X110565000Y-95523000D03*
X110565000Y-95523000D03*
X109765000Y-95523000D03*
D15*
X108565000Y-95523000D03*
X107565000Y-95523000D03*
X107065000Y-95523000D03*
X106065000Y-95523000D03*
D14*
X104865000Y-95523000D03*
X104065000Y-95523000D03*
D16*
X110205000Y-96968000D03*
X104425000Y-96968000D03*
%TD*%
D10*
%TO.C,J3*%
X99695000Y-92202000D03*
X99695000Y-94742000D03*
X99695000Y-97282000D03*
X99695000Y-99822000D03*
D11*
X99695000Y-102362000D03*
%TD*%
D17*
%TO.C,R1*%
X102650000Y-91712000D03*
X104300000Y-91712000D03*
%TD*%
D10*
%TO.C,J3*%
X84455000Y-92202000D03*
X84455000Y-94742000D03*
X84455000Y-97282000D03*
X84455000Y-99822000D03*
D11*
X84455000Y-102362000D03*
%TD*%
D17*
%TO.C,R2*%
X95085000Y-91712000D03*
X96735000Y-91712000D03*
%TD*%
D12*
%TO.C,J1*%
X87755000Y-100618000D03*
D13*
X87755000Y-96438000D03*
X96395000Y-96438000D03*
D12*
X96395000Y-100618000D03*
D14*
X88825000Y-95523000D03*
X89625000Y-95523000D03*
D15*
X90325000Y-95523000D03*
X91325000Y-95523000D03*
X92825000Y-95523000D03*
X93825000Y-95523000D03*
D14*
X94525000Y-95523000D03*
X95325000Y-95523000D03*
X95325000Y-95523000D03*
X94525000Y-95523000D03*
D15*
X93325000Y-95523000D03*
X92325000Y-95523000D03*
X91825000Y-95523000D03*
X90825000Y-95523000D03*
D14*
X89625000Y-95523000D03*
X88825000Y-95523000D03*
D16*
X94965000Y-96968000D03*
X89185000Y-96968000D03*
%TD*%
D17*
%TO.C,R1*%
X87410000Y-91712000D03*
X89060000Y-91712000D03*
%TD*%
%TO.C,R2*%
X79845000Y-91712000D03*
X81495000Y-91712000D03*
%TD*%
D12*
%TO.C,J1*%
X72515000Y-100618000D03*
D13*
X72515000Y-96438000D03*
X81155000Y-96438000D03*
D12*
X81155000Y-100618000D03*
D14*
X73585000Y-95523000D03*
X74385000Y-95523000D03*
D15*
X75085000Y-95523000D03*
X76085000Y-95523000D03*
X77585000Y-95523000D03*
X78585000Y-95523000D03*
D14*
X79285000Y-95523000D03*
X80085000Y-95523000D03*
X80085000Y-95523000D03*
X79285000Y-95523000D03*
D15*
X78085000Y-95523000D03*
X77085000Y-95523000D03*
X76585000Y-95523000D03*
X75585000Y-95523000D03*
D14*
X74385000Y-95523000D03*
X73585000Y-95523000D03*
D16*
X79725000Y-96968000D03*
X73945000Y-96968000D03*
%TD*%
D10*
%TO.C,J3*%
X69215000Y-92202000D03*
X69215000Y-94742000D03*
X69215000Y-97282000D03*
X69215000Y-99822000D03*
D11*
X69215000Y-102362000D03*
%TD*%
D17*
%TO.C,R1*%
X72170000Y-91712000D03*
X73820000Y-91712000D03*
%TD*%
%TO.C,R2*%
X156045000Y-78758000D03*
X157695000Y-78758000D03*
%TD*%
D12*
%TO.C,J1*%
X148715000Y-87664000D03*
D13*
X148715000Y-83484000D03*
X157355000Y-83484000D03*
D12*
X157355000Y-87664000D03*
D14*
X149785000Y-82569000D03*
X150585000Y-82569000D03*
D15*
X151285000Y-82569000D03*
X152285000Y-82569000D03*
X153785000Y-82569000D03*
X154785000Y-82569000D03*
D14*
X155485000Y-82569000D03*
X156285000Y-82569000D03*
X156285000Y-82569000D03*
X155485000Y-82569000D03*
D15*
X154285000Y-82569000D03*
X153285000Y-82569000D03*
X152785000Y-82569000D03*
X151785000Y-82569000D03*
D14*
X150585000Y-82569000D03*
X149785000Y-82569000D03*
D16*
X155925000Y-84014000D03*
X150145000Y-84014000D03*
%TD*%
D10*
%TO.C,J3*%
X145415000Y-79248000D03*
X145415000Y-81788000D03*
X145415000Y-84328000D03*
X145415000Y-86868000D03*
D11*
X145415000Y-89408000D03*
%TD*%
D17*
%TO.C,R1*%
X148370000Y-78758000D03*
X150020000Y-78758000D03*
%TD*%
%TO.C,R2*%
X140805000Y-78758000D03*
X142455000Y-78758000D03*
%TD*%
D10*
%TO.C,J3*%
X130175000Y-79248000D03*
X130175000Y-81788000D03*
X130175000Y-84328000D03*
X130175000Y-86868000D03*
D11*
X130175000Y-89408000D03*
%TD*%
D17*
%TO.C,R1*%
X133130000Y-78758000D03*
X134780000Y-78758000D03*
%TD*%
D12*
%TO.C,J1*%
X133475000Y-87664000D03*
D13*
X133475000Y-83484000D03*
X142115000Y-83484000D03*
D12*
X142115000Y-87664000D03*
D14*
X134545000Y-82569000D03*
X135345000Y-82569000D03*
D15*
X136045000Y-82569000D03*
X137045000Y-82569000D03*
X138545000Y-82569000D03*
X139545000Y-82569000D03*
D14*
X140245000Y-82569000D03*
X141045000Y-82569000D03*
X141045000Y-82569000D03*
X140245000Y-82569000D03*
D15*
X139045000Y-82569000D03*
X138045000Y-82569000D03*
X137545000Y-82569000D03*
X136545000Y-82569000D03*
D14*
X135345000Y-82569000D03*
X134545000Y-82569000D03*
D16*
X140685000Y-84014000D03*
X134905000Y-84014000D03*
%TD*%
D17*
%TO.C,R2*%
X125565000Y-78758000D03*
X127215000Y-78758000D03*
%TD*%
D12*
%TO.C,J1*%
X118235000Y-87664000D03*
D13*
X118235000Y-83484000D03*
X126875000Y-83484000D03*
D12*
X126875000Y-87664000D03*
D14*
X119305000Y-82569000D03*
X120105000Y-82569000D03*
D15*
X120805000Y-82569000D03*
X121805000Y-82569000D03*
X123305000Y-82569000D03*
X124305000Y-82569000D03*
D14*
X125005000Y-82569000D03*
X125805000Y-82569000D03*
X125805000Y-82569000D03*
X125005000Y-82569000D03*
D15*
X123805000Y-82569000D03*
X122805000Y-82569000D03*
X122305000Y-82569000D03*
X121305000Y-82569000D03*
D14*
X120105000Y-82569000D03*
X119305000Y-82569000D03*
D16*
X125445000Y-84014000D03*
X119665000Y-84014000D03*
%TD*%
D10*
%TO.C,J3*%
X114935000Y-79248000D03*
X114935000Y-81788000D03*
X114935000Y-84328000D03*
X114935000Y-86868000D03*
D11*
X114935000Y-89408000D03*
%TD*%
D17*
%TO.C,R1*%
X117890000Y-78758000D03*
X119540000Y-78758000D03*
%TD*%
%TO.C,R2*%
X110325000Y-78758000D03*
X111975000Y-78758000D03*
%TD*%
D12*
%TO.C,J1*%
X102995000Y-87664000D03*
D13*
X102995000Y-83484000D03*
X111635000Y-83484000D03*
D12*
X111635000Y-87664000D03*
D14*
X104065000Y-82569000D03*
X104865000Y-82569000D03*
D15*
X105565000Y-82569000D03*
X106565000Y-82569000D03*
X108065000Y-82569000D03*
X109065000Y-82569000D03*
D14*
X109765000Y-82569000D03*
X110565000Y-82569000D03*
X110565000Y-82569000D03*
X109765000Y-82569000D03*
D15*
X108565000Y-82569000D03*
X107565000Y-82569000D03*
X107065000Y-82569000D03*
X106065000Y-82569000D03*
D14*
X104865000Y-82569000D03*
X104065000Y-82569000D03*
D16*
X110205000Y-84014000D03*
X104425000Y-84014000D03*
%TD*%
D10*
%TO.C,J3*%
X99695000Y-79248000D03*
X99695000Y-81788000D03*
X99695000Y-84328000D03*
X99695000Y-86868000D03*
D11*
X99695000Y-89408000D03*
%TD*%
D17*
%TO.C,R1*%
X102650000Y-78758000D03*
X104300000Y-78758000D03*
%TD*%
%TO.C,R2*%
X95085000Y-78758000D03*
X96735000Y-78758000D03*
%TD*%
D12*
%TO.C,J1*%
X87755000Y-87664000D03*
D13*
X87755000Y-83484000D03*
X96395000Y-83484000D03*
D12*
X96395000Y-87664000D03*
D14*
X88825000Y-82569000D03*
X89625000Y-82569000D03*
D15*
X90325000Y-82569000D03*
X91325000Y-82569000D03*
X92825000Y-82569000D03*
X93825000Y-82569000D03*
D14*
X94525000Y-82569000D03*
X95325000Y-82569000D03*
X95325000Y-82569000D03*
X94525000Y-82569000D03*
D15*
X93325000Y-82569000D03*
X92325000Y-82569000D03*
X91825000Y-82569000D03*
X90825000Y-82569000D03*
D14*
X89625000Y-82569000D03*
X88825000Y-82569000D03*
D16*
X94965000Y-84014000D03*
X89185000Y-84014000D03*
%TD*%
D10*
%TO.C,J3*%
X84455000Y-79248000D03*
X84455000Y-81788000D03*
X84455000Y-84328000D03*
X84455000Y-86868000D03*
D11*
X84455000Y-89408000D03*
%TD*%
D17*
%TO.C,R1*%
X87410000Y-78758000D03*
X89060000Y-78758000D03*
%TD*%
%TO.C,R2*%
X79845000Y-78758000D03*
X81495000Y-78758000D03*
%TD*%
D12*
%TO.C,J1*%
X72515000Y-87664000D03*
D13*
X72515000Y-83484000D03*
X81155000Y-83484000D03*
D12*
X81155000Y-87664000D03*
D14*
X73585000Y-82569000D03*
X74385000Y-82569000D03*
D15*
X75085000Y-82569000D03*
X76085000Y-82569000D03*
X77585000Y-82569000D03*
X78585000Y-82569000D03*
D14*
X79285000Y-82569000D03*
X80085000Y-82569000D03*
X80085000Y-82569000D03*
X79285000Y-82569000D03*
D15*
X78085000Y-82569000D03*
X77085000Y-82569000D03*
X76585000Y-82569000D03*
X75585000Y-82569000D03*
D14*
X74385000Y-82569000D03*
X73585000Y-82569000D03*
D16*
X79725000Y-84014000D03*
X73945000Y-84014000D03*
%TD*%
D10*
%TO.C,J3*%
X69215000Y-79248000D03*
X69215000Y-81788000D03*
X69215000Y-84328000D03*
X69215000Y-86868000D03*
D11*
X69215000Y-89408000D03*
%TD*%
D17*
%TO.C,R1*%
X72170000Y-78758000D03*
X73820000Y-78758000D03*
%TD*%
%TO.C,R2*%
X156045000Y-65804000D03*
X157695000Y-65804000D03*
%TD*%
D12*
%TO.C,J1*%
X148715000Y-74710000D03*
D13*
X148715000Y-70530000D03*
X157355000Y-70530000D03*
D12*
X157355000Y-74710000D03*
D14*
X149785000Y-69615000D03*
X150585000Y-69615000D03*
D15*
X151285000Y-69615000D03*
X152285000Y-69615000D03*
X153785000Y-69615000D03*
X154785000Y-69615000D03*
D14*
X155485000Y-69615000D03*
X156285000Y-69615000D03*
X156285000Y-69615000D03*
X155485000Y-69615000D03*
D15*
X154285000Y-69615000D03*
X153285000Y-69615000D03*
X152785000Y-69615000D03*
X151785000Y-69615000D03*
D14*
X150585000Y-69615000D03*
X149785000Y-69615000D03*
D16*
X155925000Y-71060000D03*
X150145000Y-71060000D03*
%TD*%
D10*
%TO.C,J3*%
X145415000Y-66294000D03*
X145415000Y-68834000D03*
X145415000Y-71374000D03*
X145415000Y-73914000D03*
D11*
X145415000Y-76454000D03*
%TD*%
D17*
%TO.C,R1*%
X148370000Y-65804000D03*
X150020000Y-65804000D03*
%TD*%
%TO.C,R2*%
X140805000Y-65804000D03*
X142455000Y-65804000D03*
%TD*%
%TO.C,R1*%
X133130000Y-65804000D03*
X134780000Y-65804000D03*
%TD*%
D10*
%TO.C,J3*%
X130175000Y-66294000D03*
X130175000Y-68834000D03*
X130175000Y-71374000D03*
X130175000Y-73914000D03*
D11*
X130175000Y-76454000D03*
%TD*%
D12*
%TO.C,J1*%
X133475000Y-74710000D03*
D13*
X133475000Y-70530000D03*
X142115000Y-70530000D03*
D12*
X142115000Y-74710000D03*
D14*
X134545000Y-69615000D03*
X135345000Y-69615000D03*
D15*
X136045000Y-69615000D03*
X137045000Y-69615000D03*
X138545000Y-69615000D03*
X139545000Y-69615000D03*
D14*
X140245000Y-69615000D03*
X141045000Y-69615000D03*
X141045000Y-69615000D03*
X140245000Y-69615000D03*
D15*
X139045000Y-69615000D03*
X138045000Y-69615000D03*
X137545000Y-69615000D03*
X136545000Y-69615000D03*
D14*
X135345000Y-69615000D03*
X134545000Y-69615000D03*
D16*
X140685000Y-71060000D03*
X134905000Y-71060000D03*
%TD*%
D12*
%TO.C,J1*%
X118235000Y-74710000D03*
D13*
X118235000Y-70530000D03*
X126875000Y-70530000D03*
D12*
X126875000Y-74710000D03*
D14*
X119305000Y-69615000D03*
X120105000Y-69615000D03*
D15*
X120805000Y-69615000D03*
X121805000Y-69615000D03*
X123305000Y-69615000D03*
X124305000Y-69615000D03*
D14*
X125005000Y-69615000D03*
X125805000Y-69615000D03*
X125805000Y-69615000D03*
X125005000Y-69615000D03*
D15*
X123805000Y-69615000D03*
X122805000Y-69615000D03*
X122305000Y-69615000D03*
X121305000Y-69615000D03*
D14*
X120105000Y-69615000D03*
X119305000Y-69615000D03*
D16*
X125445000Y-71060000D03*
X119665000Y-71060000D03*
%TD*%
D10*
%TO.C,J3*%
X114935000Y-66294000D03*
X114935000Y-68834000D03*
X114935000Y-71374000D03*
X114935000Y-73914000D03*
D11*
X114935000Y-76454000D03*
%TD*%
D17*
%TO.C,R2*%
X125565000Y-65804000D03*
X127215000Y-65804000D03*
%TD*%
%TO.C,R1*%
X117890000Y-65804000D03*
X119540000Y-65804000D03*
%TD*%
%TO.C,R2*%
X110325000Y-65804000D03*
X111975000Y-65804000D03*
%TD*%
D12*
%TO.C,J1*%
X102995000Y-74710000D03*
D13*
X102995000Y-70530000D03*
X111635000Y-70530000D03*
D12*
X111635000Y-74710000D03*
D14*
X104065000Y-69615000D03*
X104865000Y-69615000D03*
D15*
X105565000Y-69615000D03*
X106565000Y-69615000D03*
X108065000Y-69615000D03*
X109065000Y-69615000D03*
D14*
X109765000Y-69615000D03*
X110565000Y-69615000D03*
X110565000Y-69615000D03*
X109765000Y-69615000D03*
D15*
X108565000Y-69615000D03*
X107565000Y-69615000D03*
X107065000Y-69615000D03*
X106065000Y-69615000D03*
D14*
X104865000Y-69615000D03*
X104065000Y-69615000D03*
D16*
X110205000Y-71060000D03*
X104425000Y-71060000D03*
%TD*%
D10*
%TO.C,J3*%
X99695000Y-66294000D03*
X99695000Y-68834000D03*
X99695000Y-71374000D03*
X99695000Y-73914000D03*
D11*
X99695000Y-76454000D03*
%TD*%
D17*
%TO.C,R1*%
X102650000Y-65804000D03*
X104300000Y-65804000D03*
%TD*%
%TO.C,R2*%
X95085000Y-65804000D03*
X96735000Y-65804000D03*
%TD*%
D12*
%TO.C,J1*%
X87755000Y-74710000D03*
D13*
X87755000Y-70530000D03*
X96395000Y-70530000D03*
D12*
X96395000Y-74710000D03*
D14*
X88825000Y-69615000D03*
X89625000Y-69615000D03*
D15*
X90325000Y-69615000D03*
X91325000Y-69615000D03*
X92825000Y-69615000D03*
X93825000Y-69615000D03*
D14*
X94525000Y-69615000D03*
X95325000Y-69615000D03*
X95325000Y-69615000D03*
X94525000Y-69615000D03*
D15*
X93325000Y-69615000D03*
X92325000Y-69615000D03*
X91825000Y-69615000D03*
X90825000Y-69615000D03*
D14*
X89625000Y-69615000D03*
X88825000Y-69615000D03*
D16*
X94965000Y-71060000D03*
X89185000Y-71060000D03*
%TD*%
D17*
%TO.C,R1*%
X87410000Y-65804000D03*
X89060000Y-65804000D03*
%TD*%
D10*
%TO.C,J3*%
X84455000Y-66294000D03*
X84455000Y-68834000D03*
X84455000Y-71374000D03*
X84455000Y-73914000D03*
D11*
X84455000Y-76454000D03*
%TD*%
D17*
%TO.C,R2*%
X79845000Y-65804000D03*
X81495000Y-65804000D03*
%TD*%
D12*
%TO.C,J1*%
X72515000Y-74710000D03*
D13*
X72515000Y-70530000D03*
X81155000Y-70530000D03*
D12*
X81155000Y-74710000D03*
D14*
X73585000Y-69615000D03*
X74385000Y-69615000D03*
D15*
X75085000Y-69615000D03*
X76085000Y-69615000D03*
X77585000Y-69615000D03*
X78585000Y-69615000D03*
D14*
X79285000Y-69615000D03*
X80085000Y-69615000D03*
X80085000Y-69615000D03*
X79285000Y-69615000D03*
D15*
X78085000Y-69615000D03*
X77085000Y-69615000D03*
X76585000Y-69615000D03*
X75585000Y-69615000D03*
D14*
X74385000Y-69615000D03*
X73585000Y-69615000D03*
D16*
X79725000Y-71060000D03*
X73945000Y-71060000D03*
%TD*%
D10*
%TO.C,J3*%
X69215000Y-66294000D03*
X69215000Y-68834000D03*
X69215000Y-71374000D03*
X69215000Y-73914000D03*
D11*
X69215000Y-76454000D03*
%TD*%
D17*
%TO.C,R1*%
X72170000Y-65804000D03*
X73820000Y-65804000D03*
%TD*%
%TO.C,R2*%
X156045000Y-52850000D03*
X157695000Y-52850000D03*
%TD*%
D12*
%TO.C,J1*%
X148715000Y-61756000D03*
D13*
X148715000Y-57576000D03*
X157355000Y-57576000D03*
D12*
X157355000Y-61756000D03*
D14*
X149785000Y-56661000D03*
X150585000Y-56661000D03*
D15*
X151285000Y-56661000D03*
X152285000Y-56661000D03*
X153785000Y-56661000D03*
X154785000Y-56661000D03*
D14*
X155485000Y-56661000D03*
X156285000Y-56661000D03*
X156285000Y-56661000D03*
X155485000Y-56661000D03*
D15*
X154285000Y-56661000D03*
X153285000Y-56661000D03*
X152785000Y-56661000D03*
X151785000Y-56661000D03*
D14*
X150585000Y-56661000D03*
X149785000Y-56661000D03*
D16*
X155925000Y-58106000D03*
X150145000Y-58106000D03*
%TD*%
D10*
%TO.C,J3*%
X145415000Y-53340000D03*
X145415000Y-55880000D03*
X145415000Y-58420000D03*
X145415000Y-60960000D03*
D11*
X145415000Y-63500000D03*
%TD*%
D17*
%TO.C,R1*%
X148370000Y-52850000D03*
X150020000Y-52850000D03*
%TD*%
%TO.C,R2*%
X140805000Y-52850000D03*
X142455000Y-52850000D03*
%TD*%
D12*
%TO.C,J1*%
X133475000Y-61756000D03*
D13*
X133475000Y-57576000D03*
X142115000Y-57576000D03*
D12*
X142115000Y-61756000D03*
D14*
X134545000Y-56661000D03*
X135345000Y-56661000D03*
D15*
X136045000Y-56661000D03*
X137045000Y-56661000D03*
X138545000Y-56661000D03*
X139545000Y-56661000D03*
D14*
X140245000Y-56661000D03*
X141045000Y-56661000D03*
X141045000Y-56661000D03*
X140245000Y-56661000D03*
D15*
X139045000Y-56661000D03*
X138045000Y-56661000D03*
X137545000Y-56661000D03*
X136545000Y-56661000D03*
D14*
X135345000Y-56661000D03*
X134545000Y-56661000D03*
D16*
X140685000Y-58106000D03*
X134905000Y-58106000D03*
%TD*%
D10*
%TO.C,J3*%
X130175000Y-53340000D03*
X130175000Y-55880000D03*
X130175000Y-58420000D03*
X130175000Y-60960000D03*
D11*
X130175000Y-63500000D03*
%TD*%
D17*
%TO.C,R1*%
X133130000Y-52850000D03*
X134780000Y-52850000D03*
%TD*%
D12*
%TO.C,J1*%
X118235000Y-61756000D03*
D13*
X118235000Y-57576000D03*
X126875000Y-57576000D03*
D12*
X126875000Y-61756000D03*
D14*
X119305000Y-56661000D03*
X120105000Y-56661000D03*
D15*
X120805000Y-56661000D03*
X121805000Y-56661000D03*
X123305000Y-56661000D03*
X124305000Y-56661000D03*
D14*
X125005000Y-56661000D03*
X125805000Y-56661000D03*
X125805000Y-56661000D03*
X125005000Y-56661000D03*
D15*
X123805000Y-56661000D03*
X122805000Y-56661000D03*
X122305000Y-56661000D03*
X121305000Y-56661000D03*
D14*
X120105000Y-56661000D03*
X119305000Y-56661000D03*
D16*
X125445000Y-58106000D03*
X119665000Y-58106000D03*
%TD*%
D17*
%TO.C,R1*%
X117890000Y-52850000D03*
X119540000Y-52850000D03*
%TD*%
D10*
%TO.C,J3*%
X114935000Y-53340000D03*
X114935000Y-55880000D03*
X114935000Y-58420000D03*
X114935000Y-60960000D03*
D11*
X114935000Y-63500000D03*
%TD*%
D17*
%TO.C,R2*%
X125565000Y-52850000D03*
X127215000Y-52850000D03*
%TD*%
%TO.C,R2*%
X110325000Y-52850000D03*
X111975000Y-52850000D03*
%TD*%
D12*
%TO.C,J1*%
X102995000Y-61756000D03*
D13*
X102995000Y-57576000D03*
X111635000Y-57576000D03*
D12*
X111635000Y-61756000D03*
D14*
X104065000Y-56661000D03*
X104865000Y-56661000D03*
D15*
X105565000Y-56661000D03*
X106565000Y-56661000D03*
X108065000Y-56661000D03*
X109065000Y-56661000D03*
D14*
X109765000Y-56661000D03*
X110565000Y-56661000D03*
X110565000Y-56661000D03*
X109765000Y-56661000D03*
D15*
X108565000Y-56661000D03*
X107565000Y-56661000D03*
X107065000Y-56661000D03*
X106065000Y-56661000D03*
D14*
X104865000Y-56661000D03*
X104065000Y-56661000D03*
D16*
X110205000Y-58106000D03*
X104425000Y-58106000D03*
%TD*%
D17*
%TO.C,R1*%
X102650000Y-52850000D03*
X104300000Y-52850000D03*
%TD*%
D10*
%TO.C,J3*%
X99695000Y-53340000D03*
X99695000Y-55880000D03*
X99695000Y-58420000D03*
X99695000Y-60960000D03*
D11*
X99695000Y-63500000D03*
%TD*%
D17*
%TO.C,R2*%
X95085000Y-52850000D03*
X96735000Y-52850000D03*
%TD*%
D12*
%TO.C,J1*%
X87755000Y-61756000D03*
D13*
X87755000Y-57576000D03*
X96395000Y-57576000D03*
D12*
X96395000Y-61756000D03*
D14*
X88825000Y-56661000D03*
X89625000Y-56661000D03*
D15*
X90325000Y-56661000D03*
X91325000Y-56661000D03*
X92825000Y-56661000D03*
X93825000Y-56661000D03*
D14*
X94525000Y-56661000D03*
X95325000Y-56661000D03*
X95325000Y-56661000D03*
X94525000Y-56661000D03*
D15*
X93325000Y-56661000D03*
X92325000Y-56661000D03*
X91825000Y-56661000D03*
X90825000Y-56661000D03*
D14*
X89625000Y-56661000D03*
X88825000Y-56661000D03*
D16*
X94965000Y-58106000D03*
X89185000Y-58106000D03*
%TD*%
D10*
%TO.C,J3*%
X84455000Y-53340000D03*
X84455000Y-55880000D03*
X84455000Y-58420000D03*
X84455000Y-60960000D03*
D11*
X84455000Y-63500000D03*
%TD*%
D17*
%TO.C,R1*%
X87410000Y-52850000D03*
X89060000Y-52850000D03*
%TD*%
D10*
%TO.C,J3*%
X160655000Y-53340000D03*
X160655000Y-55880000D03*
X160655000Y-58420000D03*
X160655000Y-60960000D03*
D11*
X160655000Y-63500000D03*
%TD*%
D17*
%TO.C,R2*%
X79845000Y-52850000D03*
X81495000Y-52850000D03*
%TD*%
D12*
%TO.C,J1*%
X72515000Y-61756000D03*
D13*
X72515000Y-57576000D03*
X81155000Y-57576000D03*
D12*
X81155000Y-61756000D03*
D14*
X73585000Y-56661000D03*
X74385000Y-56661000D03*
D15*
X75085000Y-56661000D03*
X76085000Y-56661000D03*
X77585000Y-56661000D03*
X78585000Y-56661000D03*
D14*
X79285000Y-56661000D03*
X80085000Y-56661000D03*
X80085000Y-56661000D03*
X79285000Y-56661000D03*
D15*
X78085000Y-56661000D03*
X77085000Y-56661000D03*
X76585000Y-56661000D03*
X75585000Y-56661000D03*
D14*
X74385000Y-56661000D03*
X73585000Y-56661000D03*
D16*
X79725000Y-58106000D03*
X73945000Y-58106000D03*
%TD*%
D17*
%TO.C,R1*%
X72170000Y-52850000D03*
X73820000Y-52850000D03*
%TD*%
D10*
%TO.C,J3*%
X69215000Y-53340000D03*
X69215000Y-55880000D03*
X69215000Y-58420000D03*
X69215000Y-60960000D03*
D11*
X69215000Y-63500000D03*
%TD*%
M02*
