%TF.GenerationSoftware,KiCad,Pcbnew,(6.0.7)*%
%TF.CreationDate,2023-04-16T01:29:03+08:00*%
%TF.ProjectId,typical,74797069-6361-46c2-9e6b-696361645f70,rev?*%
%TF.SameCoordinates,Original*%
%TF.FileFunction,Paste,Top*%
%TF.FilePolarity,Positive*%
%FSLAX46Y46*%
G04 Gerber Fmt 4.6, Leading zero omitted, Abs format (unit mm)*
G04 Created by KiCad (PCBNEW (6.0.7)) date 2023-04-16 01:29:03*
%MOMM*%
%LPD*%
G01*
G04 APERTURE LIST*
G04 Aperture macros list*
%AMRoundRect*
0 Rectangle with rounded corners*
0 $1 Rounding radius*
0 $2 $3 $4 $5 $6 $7 $8 $9 X,Y pos of 4 corners*
0 Add a 4 corners polygon primitive as box body*
4,1,4,$2,$3,$4,$5,$6,$7,$8,$9,$2,$3,0*
0 Add four circle primitives for the rounded corners*
1,1,$1+$1,$2,$3*
1,1,$1+$1,$4,$5*
1,1,$1+$1,$6,$7*
1,1,$1+$1,$8,$9*
0 Add four rect primitives between the rounded corners*
20,1,$1+$1,$2,$3,$4,$5,0*
20,1,$1+$1,$4,$5,$6,$7,0*
20,1,$1+$1,$6,$7,$8,$9,0*
20,1,$1+$1,$8,$9,$2,$3,0*%
G04 Aperture macros list end*
%ADD10R,0.600000X1.450000*%
%ADD11R,0.300000X1.450000*%
%ADD12RoundRect,0.200000X0.200000X0.275000X-0.200000X0.275000X-0.200000X-0.275000X0.200000X-0.275000X0*%
G04 APERTURE END LIST*
D10*
%TO.C,J1*%
X149785000Y-134385000D03*
X150585000Y-134385000D03*
D11*
X151285000Y-134385000D03*
X152285000Y-134385000D03*
X153785000Y-134385000D03*
X154785000Y-134385000D03*
D10*
X155485000Y-134385000D03*
X156285000Y-134385000D03*
X156285000Y-134385000D03*
X155485000Y-134385000D03*
D11*
X154285000Y-134385000D03*
X153285000Y-134385000D03*
X152785000Y-134385000D03*
X151785000Y-134385000D03*
D10*
X150585000Y-134385000D03*
X149785000Y-134385000D03*
%TD*%
D12*
%TO.C,R2*%
X156045000Y-130574000D03*
X157695000Y-130574000D03*
%TD*%
%TO.C,R1*%
X148370000Y-130574000D03*
X150020000Y-130574000D03*
%TD*%
%TO.C,R2*%
X140805000Y-130574000D03*
X142455000Y-130574000D03*
%TD*%
D10*
%TO.C,J1*%
X134545000Y-134385000D03*
X135345000Y-134385000D03*
D11*
X136045000Y-134385000D03*
X137045000Y-134385000D03*
X138545000Y-134385000D03*
X139545000Y-134385000D03*
D10*
X140245000Y-134385000D03*
X141045000Y-134385000D03*
X141045000Y-134385000D03*
X140245000Y-134385000D03*
D11*
X139045000Y-134385000D03*
X138045000Y-134385000D03*
X137545000Y-134385000D03*
X136545000Y-134385000D03*
D10*
X135345000Y-134385000D03*
X134545000Y-134385000D03*
%TD*%
D12*
%TO.C,R1*%
X133130000Y-130574000D03*
X134780000Y-130574000D03*
%TD*%
%TO.C,R2*%
X125565000Y-130574000D03*
X127215000Y-130574000D03*
%TD*%
D10*
%TO.C,J1*%
X119305000Y-134385000D03*
X120105000Y-134385000D03*
D11*
X120805000Y-134385000D03*
X121805000Y-134385000D03*
X123305000Y-134385000D03*
X124305000Y-134385000D03*
D10*
X125005000Y-134385000D03*
X125805000Y-134385000D03*
X125805000Y-134385000D03*
X125005000Y-134385000D03*
D11*
X123805000Y-134385000D03*
X122805000Y-134385000D03*
X122305000Y-134385000D03*
X121305000Y-134385000D03*
D10*
X120105000Y-134385000D03*
X119305000Y-134385000D03*
%TD*%
D12*
%TO.C,R1*%
X117890000Y-130574000D03*
X119540000Y-130574000D03*
%TD*%
%TO.C,R2*%
X110325000Y-130574000D03*
X111975000Y-130574000D03*
%TD*%
D10*
%TO.C,J1*%
X104065000Y-134385000D03*
X104865000Y-134385000D03*
D11*
X105565000Y-134385000D03*
X106565000Y-134385000D03*
X108065000Y-134385000D03*
X109065000Y-134385000D03*
D10*
X109765000Y-134385000D03*
X110565000Y-134385000D03*
X110565000Y-134385000D03*
X109765000Y-134385000D03*
D11*
X108565000Y-134385000D03*
X107565000Y-134385000D03*
X107065000Y-134385000D03*
X106065000Y-134385000D03*
D10*
X104865000Y-134385000D03*
X104065000Y-134385000D03*
%TD*%
D12*
%TO.C,R1*%
X102650000Y-130574000D03*
X104300000Y-130574000D03*
%TD*%
%TO.C,R2*%
X95085000Y-130574000D03*
X96735000Y-130574000D03*
%TD*%
D10*
%TO.C,J1*%
X88825000Y-134385000D03*
X89625000Y-134385000D03*
D11*
X90325000Y-134385000D03*
X91325000Y-134385000D03*
X92825000Y-134385000D03*
X93825000Y-134385000D03*
D10*
X94525000Y-134385000D03*
X95325000Y-134385000D03*
X95325000Y-134385000D03*
X94525000Y-134385000D03*
D11*
X93325000Y-134385000D03*
X92325000Y-134385000D03*
X91825000Y-134385000D03*
X90825000Y-134385000D03*
D10*
X89625000Y-134385000D03*
X88825000Y-134385000D03*
%TD*%
D12*
%TO.C,R1*%
X87410000Y-130574000D03*
X89060000Y-130574000D03*
%TD*%
%TO.C,R2*%
X79845000Y-130574000D03*
X81495000Y-130574000D03*
%TD*%
D10*
%TO.C,J1*%
X73585000Y-134385000D03*
X74385000Y-134385000D03*
D11*
X75085000Y-134385000D03*
X76085000Y-134385000D03*
X77585000Y-134385000D03*
X78585000Y-134385000D03*
D10*
X79285000Y-134385000D03*
X80085000Y-134385000D03*
X80085000Y-134385000D03*
X79285000Y-134385000D03*
D11*
X78085000Y-134385000D03*
X77085000Y-134385000D03*
X76585000Y-134385000D03*
X75585000Y-134385000D03*
D10*
X74385000Y-134385000D03*
X73585000Y-134385000D03*
%TD*%
D12*
%TO.C,R1*%
X72170000Y-130574000D03*
X73820000Y-130574000D03*
%TD*%
D10*
%TO.C,J1*%
X149785000Y-121431000D03*
X150585000Y-121431000D03*
D11*
X151285000Y-121431000D03*
X152285000Y-121431000D03*
X153785000Y-121431000D03*
X154785000Y-121431000D03*
D10*
X155485000Y-121431000D03*
X156285000Y-121431000D03*
X156285000Y-121431000D03*
X155485000Y-121431000D03*
D11*
X154285000Y-121431000D03*
X153285000Y-121431000D03*
X152785000Y-121431000D03*
X151785000Y-121431000D03*
D10*
X150585000Y-121431000D03*
X149785000Y-121431000D03*
%TD*%
D12*
%TO.C,R2*%
X156045000Y-117620000D03*
X157695000Y-117620000D03*
%TD*%
%TO.C,R1*%
X148370000Y-117620000D03*
X150020000Y-117620000D03*
%TD*%
%TO.C,R2*%
X140805000Y-117620000D03*
X142455000Y-117620000D03*
%TD*%
%TO.C,R1*%
X133130000Y-117620000D03*
X134780000Y-117620000D03*
%TD*%
D10*
%TO.C,J1*%
X134545000Y-121431000D03*
X135345000Y-121431000D03*
D11*
X136045000Y-121431000D03*
X137045000Y-121431000D03*
X138545000Y-121431000D03*
X139545000Y-121431000D03*
D10*
X140245000Y-121431000D03*
X141045000Y-121431000D03*
X141045000Y-121431000D03*
X140245000Y-121431000D03*
D11*
X139045000Y-121431000D03*
X138045000Y-121431000D03*
X137545000Y-121431000D03*
X136545000Y-121431000D03*
D10*
X135345000Y-121431000D03*
X134545000Y-121431000D03*
%TD*%
D12*
%TO.C,R2*%
X125565000Y-117620000D03*
X127215000Y-117620000D03*
%TD*%
D10*
%TO.C,J1*%
X119305000Y-121431000D03*
X120105000Y-121431000D03*
D11*
X120805000Y-121431000D03*
X121805000Y-121431000D03*
X123305000Y-121431000D03*
X124305000Y-121431000D03*
D10*
X125005000Y-121431000D03*
X125805000Y-121431000D03*
X125805000Y-121431000D03*
X125005000Y-121431000D03*
D11*
X123805000Y-121431000D03*
X122805000Y-121431000D03*
X122305000Y-121431000D03*
X121305000Y-121431000D03*
D10*
X120105000Y-121431000D03*
X119305000Y-121431000D03*
%TD*%
D12*
%TO.C,R1*%
X117890000Y-117620000D03*
X119540000Y-117620000D03*
%TD*%
%TO.C,R2*%
X110325000Y-117620000D03*
X111975000Y-117620000D03*
%TD*%
D10*
%TO.C,J1*%
X104065000Y-121431000D03*
X104865000Y-121431000D03*
D11*
X105565000Y-121431000D03*
X106565000Y-121431000D03*
X108065000Y-121431000D03*
X109065000Y-121431000D03*
D10*
X109765000Y-121431000D03*
X110565000Y-121431000D03*
X110565000Y-121431000D03*
X109765000Y-121431000D03*
D11*
X108565000Y-121431000D03*
X107565000Y-121431000D03*
X107065000Y-121431000D03*
X106065000Y-121431000D03*
D10*
X104865000Y-121431000D03*
X104065000Y-121431000D03*
%TD*%
D12*
%TO.C,R1*%
X102650000Y-117620000D03*
X104300000Y-117620000D03*
%TD*%
%TO.C,R2*%
X95085000Y-117620000D03*
X96735000Y-117620000D03*
%TD*%
D10*
%TO.C,J1*%
X88825000Y-121431000D03*
X89625000Y-121431000D03*
D11*
X90325000Y-121431000D03*
X91325000Y-121431000D03*
X92825000Y-121431000D03*
X93825000Y-121431000D03*
D10*
X94525000Y-121431000D03*
X95325000Y-121431000D03*
X95325000Y-121431000D03*
X94525000Y-121431000D03*
D11*
X93325000Y-121431000D03*
X92325000Y-121431000D03*
X91825000Y-121431000D03*
X90825000Y-121431000D03*
D10*
X89625000Y-121431000D03*
X88825000Y-121431000D03*
%TD*%
D12*
%TO.C,R1*%
X87410000Y-117620000D03*
X89060000Y-117620000D03*
%TD*%
%TO.C,R2*%
X79845000Y-117620000D03*
X81495000Y-117620000D03*
%TD*%
D10*
%TO.C,J1*%
X73585000Y-121431000D03*
X74385000Y-121431000D03*
D11*
X75085000Y-121431000D03*
X76085000Y-121431000D03*
X77585000Y-121431000D03*
X78585000Y-121431000D03*
D10*
X79285000Y-121431000D03*
X80085000Y-121431000D03*
X80085000Y-121431000D03*
X79285000Y-121431000D03*
D11*
X78085000Y-121431000D03*
X77085000Y-121431000D03*
X76585000Y-121431000D03*
X75585000Y-121431000D03*
D10*
X74385000Y-121431000D03*
X73585000Y-121431000D03*
%TD*%
D12*
%TO.C,R1*%
X72170000Y-117620000D03*
X73820000Y-117620000D03*
%TD*%
%TO.C,R2*%
X156045000Y-104666000D03*
X157695000Y-104666000D03*
%TD*%
D10*
%TO.C,J1*%
X149785000Y-108477000D03*
X150585000Y-108477000D03*
D11*
X151285000Y-108477000D03*
X152285000Y-108477000D03*
X153785000Y-108477000D03*
X154785000Y-108477000D03*
D10*
X155485000Y-108477000D03*
X156285000Y-108477000D03*
X156285000Y-108477000D03*
X155485000Y-108477000D03*
D11*
X154285000Y-108477000D03*
X153285000Y-108477000D03*
X152785000Y-108477000D03*
X151785000Y-108477000D03*
D10*
X150585000Y-108477000D03*
X149785000Y-108477000D03*
%TD*%
D12*
%TO.C,R1*%
X148370000Y-104666000D03*
X150020000Y-104666000D03*
%TD*%
D10*
%TO.C,J1*%
X134545000Y-108477000D03*
X135345000Y-108477000D03*
D11*
X136045000Y-108477000D03*
X137045000Y-108477000D03*
X138545000Y-108477000D03*
X139545000Y-108477000D03*
D10*
X140245000Y-108477000D03*
X141045000Y-108477000D03*
X141045000Y-108477000D03*
X140245000Y-108477000D03*
D11*
X139045000Y-108477000D03*
X138045000Y-108477000D03*
X137545000Y-108477000D03*
X136545000Y-108477000D03*
D10*
X135345000Y-108477000D03*
X134545000Y-108477000D03*
%TD*%
D12*
%TO.C,R1*%
X133130000Y-104666000D03*
X134780000Y-104666000D03*
%TD*%
%TO.C,R2*%
X140805000Y-104666000D03*
X142455000Y-104666000D03*
%TD*%
%TO.C,R2*%
X125565000Y-104666000D03*
X127215000Y-104666000D03*
%TD*%
%TO.C,R1*%
X117890000Y-104666000D03*
X119540000Y-104666000D03*
%TD*%
D10*
%TO.C,J1*%
X119305000Y-108477000D03*
X120105000Y-108477000D03*
D11*
X120805000Y-108477000D03*
X121805000Y-108477000D03*
X123305000Y-108477000D03*
X124305000Y-108477000D03*
D10*
X125005000Y-108477000D03*
X125805000Y-108477000D03*
X125805000Y-108477000D03*
X125005000Y-108477000D03*
D11*
X123805000Y-108477000D03*
X122805000Y-108477000D03*
X122305000Y-108477000D03*
X121305000Y-108477000D03*
D10*
X120105000Y-108477000D03*
X119305000Y-108477000D03*
%TD*%
D12*
%TO.C,R2*%
X110325000Y-104666000D03*
X111975000Y-104666000D03*
%TD*%
%TO.C,R1*%
X102650000Y-104666000D03*
X104300000Y-104666000D03*
%TD*%
D10*
%TO.C,J1*%
X104065000Y-108477000D03*
X104865000Y-108477000D03*
D11*
X105565000Y-108477000D03*
X106565000Y-108477000D03*
X108065000Y-108477000D03*
X109065000Y-108477000D03*
D10*
X109765000Y-108477000D03*
X110565000Y-108477000D03*
X110565000Y-108477000D03*
X109765000Y-108477000D03*
D11*
X108565000Y-108477000D03*
X107565000Y-108477000D03*
X107065000Y-108477000D03*
X106065000Y-108477000D03*
D10*
X104865000Y-108477000D03*
X104065000Y-108477000D03*
%TD*%
D12*
%TO.C,R2*%
X95085000Y-104666000D03*
X96735000Y-104666000D03*
%TD*%
%TO.C,R1*%
X87410000Y-104666000D03*
X89060000Y-104666000D03*
%TD*%
D10*
%TO.C,J1*%
X88825000Y-108477000D03*
X89625000Y-108477000D03*
D11*
X90325000Y-108477000D03*
X91325000Y-108477000D03*
X92825000Y-108477000D03*
X93825000Y-108477000D03*
D10*
X94525000Y-108477000D03*
X95325000Y-108477000D03*
X95325000Y-108477000D03*
X94525000Y-108477000D03*
D11*
X93325000Y-108477000D03*
X92325000Y-108477000D03*
X91825000Y-108477000D03*
X90825000Y-108477000D03*
D10*
X89625000Y-108477000D03*
X88825000Y-108477000D03*
%TD*%
D12*
%TO.C,R2*%
X79845000Y-104666000D03*
X81495000Y-104666000D03*
%TD*%
D10*
%TO.C,J1*%
X73585000Y-108477000D03*
X74385000Y-108477000D03*
D11*
X75085000Y-108477000D03*
X76085000Y-108477000D03*
X77585000Y-108477000D03*
X78585000Y-108477000D03*
D10*
X79285000Y-108477000D03*
X80085000Y-108477000D03*
X80085000Y-108477000D03*
X79285000Y-108477000D03*
D11*
X78085000Y-108477000D03*
X77085000Y-108477000D03*
X76585000Y-108477000D03*
X75585000Y-108477000D03*
D10*
X74385000Y-108477000D03*
X73585000Y-108477000D03*
%TD*%
D12*
%TO.C,R1*%
X72170000Y-104666000D03*
X73820000Y-104666000D03*
%TD*%
%TO.C,R2*%
X156045000Y-91712000D03*
X157695000Y-91712000D03*
%TD*%
D10*
%TO.C,J1*%
X149785000Y-95523000D03*
X150585000Y-95523000D03*
D11*
X151285000Y-95523000D03*
X152285000Y-95523000D03*
X153785000Y-95523000D03*
X154785000Y-95523000D03*
D10*
X155485000Y-95523000D03*
X156285000Y-95523000D03*
X156285000Y-95523000D03*
X155485000Y-95523000D03*
D11*
X154285000Y-95523000D03*
X153285000Y-95523000D03*
X152785000Y-95523000D03*
X151785000Y-95523000D03*
D10*
X150585000Y-95523000D03*
X149785000Y-95523000D03*
%TD*%
D12*
%TO.C,R1*%
X148370000Y-91712000D03*
X150020000Y-91712000D03*
%TD*%
%TO.C,R2*%
X140805000Y-91712000D03*
X142455000Y-91712000D03*
%TD*%
D10*
%TO.C,J1*%
X134545000Y-95523000D03*
X135345000Y-95523000D03*
D11*
X136045000Y-95523000D03*
X137045000Y-95523000D03*
X138545000Y-95523000D03*
X139545000Y-95523000D03*
D10*
X140245000Y-95523000D03*
X141045000Y-95523000D03*
X141045000Y-95523000D03*
X140245000Y-95523000D03*
D11*
X139045000Y-95523000D03*
X138045000Y-95523000D03*
X137545000Y-95523000D03*
X136545000Y-95523000D03*
D10*
X135345000Y-95523000D03*
X134545000Y-95523000D03*
%TD*%
D12*
%TO.C,R1*%
X133130000Y-91712000D03*
X134780000Y-91712000D03*
%TD*%
%TO.C,R2*%
X125565000Y-91712000D03*
X127215000Y-91712000D03*
%TD*%
D10*
%TO.C,J1*%
X119305000Y-95523000D03*
X120105000Y-95523000D03*
D11*
X120805000Y-95523000D03*
X121805000Y-95523000D03*
X123305000Y-95523000D03*
X124305000Y-95523000D03*
D10*
X125005000Y-95523000D03*
X125805000Y-95523000D03*
X125805000Y-95523000D03*
X125005000Y-95523000D03*
D11*
X123805000Y-95523000D03*
X122805000Y-95523000D03*
X122305000Y-95523000D03*
X121305000Y-95523000D03*
D10*
X120105000Y-95523000D03*
X119305000Y-95523000D03*
%TD*%
D12*
%TO.C,R1*%
X117890000Y-91712000D03*
X119540000Y-91712000D03*
%TD*%
%TO.C,R2*%
X110325000Y-91712000D03*
X111975000Y-91712000D03*
%TD*%
D10*
%TO.C,J1*%
X104065000Y-95523000D03*
X104865000Y-95523000D03*
D11*
X105565000Y-95523000D03*
X106565000Y-95523000D03*
X108065000Y-95523000D03*
X109065000Y-95523000D03*
D10*
X109765000Y-95523000D03*
X110565000Y-95523000D03*
X110565000Y-95523000D03*
X109765000Y-95523000D03*
D11*
X108565000Y-95523000D03*
X107565000Y-95523000D03*
X107065000Y-95523000D03*
X106065000Y-95523000D03*
D10*
X104865000Y-95523000D03*
X104065000Y-95523000D03*
%TD*%
D12*
%TO.C,R1*%
X102650000Y-91712000D03*
X104300000Y-91712000D03*
%TD*%
%TO.C,R2*%
X95085000Y-91712000D03*
X96735000Y-91712000D03*
%TD*%
D10*
%TO.C,J1*%
X88825000Y-95523000D03*
X89625000Y-95523000D03*
D11*
X90325000Y-95523000D03*
X91325000Y-95523000D03*
X92825000Y-95523000D03*
X93825000Y-95523000D03*
D10*
X94525000Y-95523000D03*
X95325000Y-95523000D03*
X95325000Y-95523000D03*
X94525000Y-95523000D03*
D11*
X93325000Y-95523000D03*
X92325000Y-95523000D03*
X91825000Y-95523000D03*
X90825000Y-95523000D03*
D10*
X89625000Y-95523000D03*
X88825000Y-95523000D03*
%TD*%
D12*
%TO.C,R1*%
X87410000Y-91712000D03*
X89060000Y-91712000D03*
%TD*%
%TO.C,R2*%
X79845000Y-91712000D03*
X81495000Y-91712000D03*
%TD*%
D10*
%TO.C,J1*%
X73585000Y-95523000D03*
X74385000Y-95523000D03*
D11*
X75085000Y-95523000D03*
X76085000Y-95523000D03*
X77585000Y-95523000D03*
X78585000Y-95523000D03*
D10*
X79285000Y-95523000D03*
X80085000Y-95523000D03*
X80085000Y-95523000D03*
X79285000Y-95523000D03*
D11*
X78085000Y-95523000D03*
X77085000Y-95523000D03*
X76585000Y-95523000D03*
X75585000Y-95523000D03*
D10*
X74385000Y-95523000D03*
X73585000Y-95523000D03*
%TD*%
D12*
%TO.C,R1*%
X72170000Y-91712000D03*
X73820000Y-91712000D03*
%TD*%
%TO.C,R2*%
X156045000Y-78758000D03*
X157695000Y-78758000D03*
%TD*%
D10*
%TO.C,J1*%
X149785000Y-82569000D03*
X150585000Y-82569000D03*
D11*
X151285000Y-82569000D03*
X152285000Y-82569000D03*
X153785000Y-82569000D03*
X154785000Y-82569000D03*
D10*
X155485000Y-82569000D03*
X156285000Y-82569000D03*
X156285000Y-82569000D03*
X155485000Y-82569000D03*
D11*
X154285000Y-82569000D03*
X153285000Y-82569000D03*
X152785000Y-82569000D03*
X151785000Y-82569000D03*
D10*
X150585000Y-82569000D03*
X149785000Y-82569000D03*
%TD*%
D12*
%TO.C,R1*%
X148370000Y-78758000D03*
X150020000Y-78758000D03*
%TD*%
%TO.C,R2*%
X140805000Y-78758000D03*
X142455000Y-78758000D03*
%TD*%
%TO.C,R1*%
X133130000Y-78758000D03*
X134780000Y-78758000D03*
%TD*%
D10*
%TO.C,J1*%
X134545000Y-82569000D03*
X135345000Y-82569000D03*
D11*
X136045000Y-82569000D03*
X137045000Y-82569000D03*
X138545000Y-82569000D03*
X139545000Y-82569000D03*
D10*
X140245000Y-82569000D03*
X141045000Y-82569000D03*
X141045000Y-82569000D03*
X140245000Y-82569000D03*
D11*
X139045000Y-82569000D03*
X138045000Y-82569000D03*
X137545000Y-82569000D03*
X136545000Y-82569000D03*
D10*
X135345000Y-82569000D03*
X134545000Y-82569000D03*
%TD*%
D12*
%TO.C,R2*%
X125565000Y-78758000D03*
X127215000Y-78758000D03*
%TD*%
D10*
%TO.C,J1*%
X119305000Y-82569000D03*
X120105000Y-82569000D03*
D11*
X120805000Y-82569000D03*
X121805000Y-82569000D03*
X123305000Y-82569000D03*
X124305000Y-82569000D03*
D10*
X125005000Y-82569000D03*
X125805000Y-82569000D03*
X125805000Y-82569000D03*
X125005000Y-82569000D03*
D11*
X123805000Y-82569000D03*
X122805000Y-82569000D03*
X122305000Y-82569000D03*
X121305000Y-82569000D03*
D10*
X120105000Y-82569000D03*
X119305000Y-82569000D03*
%TD*%
D12*
%TO.C,R1*%
X117890000Y-78758000D03*
X119540000Y-78758000D03*
%TD*%
%TO.C,R2*%
X110325000Y-78758000D03*
X111975000Y-78758000D03*
%TD*%
D10*
%TO.C,J1*%
X104065000Y-82569000D03*
X104865000Y-82569000D03*
D11*
X105565000Y-82569000D03*
X106565000Y-82569000D03*
X108065000Y-82569000D03*
X109065000Y-82569000D03*
D10*
X109765000Y-82569000D03*
X110565000Y-82569000D03*
X110565000Y-82569000D03*
X109765000Y-82569000D03*
D11*
X108565000Y-82569000D03*
X107565000Y-82569000D03*
X107065000Y-82569000D03*
X106065000Y-82569000D03*
D10*
X104865000Y-82569000D03*
X104065000Y-82569000D03*
%TD*%
D12*
%TO.C,R1*%
X102650000Y-78758000D03*
X104300000Y-78758000D03*
%TD*%
%TO.C,R2*%
X95085000Y-78758000D03*
X96735000Y-78758000D03*
%TD*%
D10*
%TO.C,J1*%
X88825000Y-82569000D03*
X89625000Y-82569000D03*
D11*
X90325000Y-82569000D03*
X91325000Y-82569000D03*
X92825000Y-82569000D03*
X93825000Y-82569000D03*
D10*
X94525000Y-82569000D03*
X95325000Y-82569000D03*
X95325000Y-82569000D03*
X94525000Y-82569000D03*
D11*
X93325000Y-82569000D03*
X92325000Y-82569000D03*
X91825000Y-82569000D03*
X90825000Y-82569000D03*
D10*
X89625000Y-82569000D03*
X88825000Y-82569000D03*
%TD*%
D12*
%TO.C,R1*%
X87410000Y-78758000D03*
X89060000Y-78758000D03*
%TD*%
%TO.C,R2*%
X79845000Y-78758000D03*
X81495000Y-78758000D03*
%TD*%
D10*
%TO.C,J1*%
X73585000Y-82569000D03*
X74385000Y-82569000D03*
D11*
X75085000Y-82569000D03*
X76085000Y-82569000D03*
X77585000Y-82569000D03*
X78585000Y-82569000D03*
D10*
X79285000Y-82569000D03*
X80085000Y-82569000D03*
X80085000Y-82569000D03*
X79285000Y-82569000D03*
D11*
X78085000Y-82569000D03*
X77085000Y-82569000D03*
X76585000Y-82569000D03*
X75585000Y-82569000D03*
D10*
X74385000Y-82569000D03*
X73585000Y-82569000D03*
%TD*%
D12*
%TO.C,R1*%
X72170000Y-78758000D03*
X73820000Y-78758000D03*
%TD*%
%TO.C,R2*%
X156045000Y-65804000D03*
X157695000Y-65804000D03*
%TD*%
D10*
%TO.C,J1*%
X149785000Y-69615000D03*
X150585000Y-69615000D03*
D11*
X151285000Y-69615000D03*
X152285000Y-69615000D03*
X153785000Y-69615000D03*
X154785000Y-69615000D03*
D10*
X155485000Y-69615000D03*
X156285000Y-69615000D03*
X156285000Y-69615000D03*
X155485000Y-69615000D03*
D11*
X154285000Y-69615000D03*
X153285000Y-69615000D03*
X152785000Y-69615000D03*
X151785000Y-69615000D03*
D10*
X150585000Y-69615000D03*
X149785000Y-69615000D03*
%TD*%
D12*
%TO.C,R1*%
X148370000Y-65804000D03*
X150020000Y-65804000D03*
%TD*%
%TO.C,R2*%
X140805000Y-65804000D03*
X142455000Y-65804000D03*
%TD*%
%TO.C,R1*%
X133130000Y-65804000D03*
X134780000Y-65804000D03*
%TD*%
D10*
%TO.C,J1*%
X134545000Y-69615000D03*
X135345000Y-69615000D03*
D11*
X136045000Y-69615000D03*
X137045000Y-69615000D03*
X138545000Y-69615000D03*
X139545000Y-69615000D03*
D10*
X140245000Y-69615000D03*
X141045000Y-69615000D03*
X141045000Y-69615000D03*
X140245000Y-69615000D03*
D11*
X139045000Y-69615000D03*
X138045000Y-69615000D03*
X137545000Y-69615000D03*
X136545000Y-69615000D03*
D10*
X135345000Y-69615000D03*
X134545000Y-69615000D03*
%TD*%
%TO.C,J1*%
X119305000Y-69615000D03*
X120105000Y-69615000D03*
D11*
X120805000Y-69615000D03*
X121805000Y-69615000D03*
X123305000Y-69615000D03*
X124305000Y-69615000D03*
D10*
X125005000Y-69615000D03*
X125805000Y-69615000D03*
X125805000Y-69615000D03*
X125005000Y-69615000D03*
D11*
X123805000Y-69615000D03*
X122805000Y-69615000D03*
X122305000Y-69615000D03*
X121305000Y-69615000D03*
D10*
X120105000Y-69615000D03*
X119305000Y-69615000D03*
%TD*%
D12*
%TO.C,R2*%
X125565000Y-65804000D03*
X127215000Y-65804000D03*
%TD*%
%TO.C,R1*%
X117890000Y-65804000D03*
X119540000Y-65804000D03*
%TD*%
%TO.C,R2*%
X110325000Y-65804000D03*
X111975000Y-65804000D03*
%TD*%
D10*
%TO.C,J1*%
X104065000Y-69615000D03*
X104865000Y-69615000D03*
D11*
X105565000Y-69615000D03*
X106565000Y-69615000D03*
X108065000Y-69615000D03*
X109065000Y-69615000D03*
D10*
X109765000Y-69615000D03*
X110565000Y-69615000D03*
X110565000Y-69615000D03*
X109765000Y-69615000D03*
D11*
X108565000Y-69615000D03*
X107565000Y-69615000D03*
X107065000Y-69615000D03*
X106065000Y-69615000D03*
D10*
X104865000Y-69615000D03*
X104065000Y-69615000D03*
%TD*%
D12*
%TO.C,R1*%
X102650000Y-65804000D03*
X104300000Y-65804000D03*
%TD*%
%TO.C,R2*%
X95085000Y-65804000D03*
X96735000Y-65804000D03*
%TD*%
D10*
%TO.C,J1*%
X88825000Y-69615000D03*
X89625000Y-69615000D03*
D11*
X90325000Y-69615000D03*
X91325000Y-69615000D03*
X92825000Y-69615000D03*
X93825000Y-69615000D03*
D10*
X94525000Y-69615000D03*
X95325000Y-69615000D03*
X95325000Y-69615000D03*
X94525000Y-69615000D03*
D11*
X93325000Y-69615000D03*
X92325000Y-69615000D03*
X91825000Y-69615000D03*
X90825000Y-69615000D03*
D10*
X89625000Y-69615000D03*
X88825000Y-69615000D03*
%TD*%
D12*
%TO.C,R1*%
X87410000Y-65804000D03*
X89060000Y-65804000D03*
%TD*%
%TO.C,R2*%
X79845000Y-65804000D03*
X81495000Y-65804000D03*
%TD*%
D10*
%TO.C,J1*%
X73585000Y-69615000D03*
X74385000Y-69615000D03*
D11*
X75085000Y-69615000D03*
X76085000Y-69615000D03*
X77585000Y-69615000D03*
X78585000Y-69615000D03*
D10*
X79285000Y-69615000D03*
X80085000Y-69615000D03*
X80085000Y-69615000D03*
X79285000Y-69615000D03*
D11*
X78085000Y-69615000D03*
X77085000Y-69615000D03*
X76585000Y-69615000D03*
X75585000Y-69615000D03*
D10*
X74385000Y-69615000D03*
X73585000Y-69615000D03*
%TD*%
D12*
%TO.C,R1*%
X72170000Y-65804000D03*
X73820000Y-65804000D03*
%TD*%
%TO.C,R2*%
X156045000Y-52850000D03*
X157695000Y-52850000D03*
%TD*%
D10*
%TO.C,J1*%
X149785000Y-56661000D03*
X150585000Y-56661000D03*
D11*
X151285000Y-56661000D03*
X152285000Y-56661000D03*
X153785000Y-56661000D03*
X154785000Y-56661000D03*
D10*
X155485000Y-56661000D03*
X156285000Y-56661000D03*
X156285000Y-56661000D03*
X155485000Y-56661000D03*
D11*
X154285000Y-56661000D03*
X153285000Y-56661000D03*
X152785000Y-56661000D03*
X151785000Y-56661000D03*
D10*
X150585000Y-56661000D03*
X149785000Y-56661000D03*
%TD*%
D12*
%TO.C,R1*%
X148370000Y-52850000D03*
X150020000Y-52850000D03*
%TD*%
%TO.C,R2*%
X140805000Y-52850000D03*
X142455000Y-52850000D03*
%TD*%
D10*
%TO.C,J1*%
X134545000Y-56661000D03*
X135345000Y-56661000D03*
D11*
X136045000Y-56661000D03*
X137045000Y-56661000D03*
X138545000Y-56661000D03*
X139545000Y-56661000D03*
D10*
X140245000Y-56661000D03*
X141045000Y-56661000D03*
X141045000Y-56661000D03*
X140245000Y-56661000D03*
D11*
X139045000Y-56661000D03*
X138045000Y-56661000D03*
X137545000Y-56661000D03*
X136545000Y-56661000D03*
D10*
X135345000Y-56661000D03*
X134545000Y-56661000D03*
%TD*%
D12*
%TO.C,R1*%
X133130000Y-52850000D03*
X134780000Y-52850000D03*
%TD*%
D10*
%TO.C,J1*%
X119305000Y-56661000D03*
X120105000Y-56661000D03*
D11*
X120805000Y-56661000D03*
X121805000Y-56661000D03*
X123305000Y-56661000D03*
X124305000Y-56661000D03*
D10*
X125005000Y-56661000D03*
X125805000Y-56661000D03*
X125805000Y-56661000D03*
X125005000Y-56661000D03*
D11*
X123805000Y-56661000D03*
X122805000Y-56661000D03*
X122305000Y-56661000D03*
X121305000Y-56661000D03*
D10*
X120105000Y-56661000D03*
X119305000Y-56661000D03*
%TD*%
D12*
%TO.C,R1*%
X117890000Y-52850000D03*
X119540000Y-52850000D03*
%TD*%
%TO.C,R2*%
X125565000Y-52850000D03*
X127215000Y-52850000D03*
%TD*%
%TO.C,R2*%
X110325000Y-52850000D03*
X111975000Y-52850000D03*
%TD*%
D10*
%TO.C,J1*%
X104065000Y-56661000D03*
X104865000Y-56661000D03*
D11*
X105565000Y-56661000D03*
X106565000Y-56661000D03*
X108065000Y-56661000D03*
X109065000Y-56661000D03*
D10*
X109765000Y-56661000D03*
X110565000Y-56661000D03*
X110565000Y-56661000D03*
X109765000Y-56661000D03*
D11*
X108565000Y-56661000D03*
X107565000Y-56661000D03*
X107065000Y-56661000D03*
X106065000Y-56661000D03*
D10*
X104865000Y-56661000D03*
X104065000Y-56661000D03*
%TD*%
D12*
%TO.C,R1*%
X102650000Y-52850000D03*
X104300000Y-52850000D03*
%TD*%
%TO.C,R2*%
X95085000Y-52850000D03*
X96735000Y-52850000D03*
%TD*%
D10*
%TO.C,J1*%
X88825000Y-56661000D03*
X89625000Y-56661000D03*
D11*
X90325000Y-56661000D03*
X91325000Y-56661000D03*
X92825000Y-56661000D03*
X93825000Y-56661000D03*
D10*
X94525000Y-56661000D03*
X95325000Y-56661000D03*
X95325000Y-56661000D03*
X94525000Y-56661000D03*
D11*
X93325000Y-56661000D03*
X92325000Y-56661000D03*
X91825000Y-56661000D03*
X90825000Y-56661000D03*
D10*
X89625000Y-56661000D03*
X88825000Y-56661000D03*
%TD*%
D12*
%TO.C,R1*%
X87410000Y-52850000D03*
X89060000Y-52850000D03*
%TD*%
%TO.C,R2*%
X79845000Y-52850000D03*
X81495000Y-52850000D03*
%TD*%
D10*
%TO.C,J1*%
X73585000Y-56661000D03*
X74385000Y-56661000D03*
D11*
X75085000Y-56661000D03*
X76085000Y-56661000D03*
X77585000Y-56661000D03*
X78585000Y-56661000D03*
D10*
X79285000Y-56661000D03*
X80085000Y-56661000D03*
X80085000Y-56661000D03*
X79285000Y-56661000D03*
D11*
X78085000Y-56661000D03*
X77085000Y-56661000D03*
X76585000Y-56661000D03*
X75585000Y-56661000D03*
D10*
X74385000Y-56661000D03*
X73585000Y-56661000D03*
%TD*%
D12*
%TO.C,R1*%
X72170000Y-52850000D03*
X73820000Y-52850000D03*
%TD*%
M02*
