%TF.GenerationSoftware,KiCad,Pcbnew,(6.0.11)*%
%TF.CreationDate,2023-04-14T16:13:46+08:00*%
%TF.ProjectId,typical,74797069-6361-46c2-9e6b-696361645f70,rev?*%
%TF.SameCoordinates,Original*%
%TF.FileFunction,Soldermask,Bot*%
%TF.FilePolarity,Negative*%
%FSLAX46Y46*%
G04 Gerber Fmt 4.6, Leading zero omitted, Abs format (unit mm)*
G04 Created by KiCad (PCBNEW (6.0.11)) date 2023-04-14 16:13:46*
%MOMM*%
%LPD*%
G01*
G04 APERTURE LIST*
%ADD10R,3.000000X2.300000*%
%ADD11O,1.700000X1.700000*%
%ADD12C,0.650000*%
%ADD13O,1.000000X1.600000*%
%ADD14O,1.000000X2.100000*%
G04 APERTURE END LIST*
D10*
%TO.C,J3*%
X226060000Y-179070000D03*
D11*
X226060000Y-176530000D03*
X226060000Y-173990000D03*
X226060000Y-171450000D03*
X226060000Y-168910000D03*
%TD*%
D10*
%TO.C,J3*%
X226060000Y-166116000D03*
D11*
X226060000Y-163576000D03*
X226060000Y-161036000D03*
X226060000Y-158496000D03*
X226060000Y-155956000D03*
%TD*%
D10*
%TO.C,J3*%
X226060000Y-153162000D03*
D11*
X226060000Y-150622000D03*
X226060000Y-148082000D03*
X226060000Y-145542000D03*
X226060000Y-143002000D03*
%TD*%
D10*
%TO.C,J3*%
X226060000Y-140208000D03*
D11*
X226060000Y-137668000D03*
X226060000Y-135128000D03*
X226060000Y-132588000D03*
X226060000Y-130048000D03*
%TD*%
D10*
%TO.C,J3*%
X226060000Y-127254000D03*
D11*
X226060000Y-124714000D03*
X226060000Y-122174000D03*
X226060000Y-119634000D03*
X226060000Y-117094000D03*
%TD*%
D10*
%TO.C,J3*%
X226060000Y-114300000D03*
D11*
X226060000Y-111760000D03*
X226060000Y-109220000D03*
X226060000Y-106680000D03*
X226060000Y-104140000D03*
%TD*%
%TO.C,J3*%
X210820000Y-168910000D03*
X210820000Y-171450000D03*
X210820000Y-173990000D03*
X210820000Y-176530000D03*
D10*
X210820000Y-179070000D03*
%TD*%
D12*
%TO.C,J1*%
X215550000Y-173676000D03*
X221330000Y-173676000D03*
D13*
X222760000Y-177326000D03*
D14*
X222760000Y-173146000D03*
X214120000Y-173146000D03*
D13*
X214120000Y-177326000D03*
%TD*%
D11*
%TO.C,J3*%
X195580000Y-168910000D03*
X195580000Y-171450000D03*
X195580000Y-173990000D03*
X195580000Y-176530000D03*
D10*
X195580000Y-179070000D03*
%TD*%
D12*
%TO.C,J1*%
X200310000Y-173676000D03*
X206090000Y-173676000D03*
D13*
X207520000Y-177326000D03*
D14*
X207520000Y-173146000D03*
X198880000Y-173146000D03*
D13*
X198880000Y-177326000D03*
%TD*%
D11*
%TO.C,J3*%
X180340000Y-168910000D03*
X180340000Y-171450000D03*
X180340000Y-173990000D03*
X180340000Y-176530000D03*
D10*
X180340000Y-179070000D03*
%TD*%
D12*
%TO.C,J1*%
X185070000Y-173676000D03*
X190850000Y-173676000D03*
D13*
X192280000Y-177326000D03*
D14*
X192280000Y-173146000D03*
X183640000Y-173146000D03*
D13*
X183640000Y-177326000D03*
%TD*%
D11*
%TO.C,J3*%
X165100000Y-168910000D03*
X165100000Y-171450000D03*
X165100000Y-173990000D03*
X165100000Y-176530000D03*
D10*
X165100000Y-179070000D03*
%TD*%
D12*
%TO.C,J1*%
X169830000Y-173676000D03*
X175610000Y-173676000D03*
D13*
X177040000Y-177326000D03*
D14*
X177040000Y-173146000D03*
X168400000Y-173146000D03*
D13*
X168400000Y-177326000D03*
%TD*%
D11*
%TO.C,J3*%
X149860000Y-168910000D03*
X149860000Y-171450000D03*
X149860000Y-173990000D03*
X149860000Y-176530000D03*
D10*
X149860000Y-179070000D03*
%TD*%
D12*
%TO.C,J1*%
X154590000Y-173676000D03*
X160370000Y-173676000D03*
D13*
X161800000Y-177326000D03*
D14*
X161800000Y-173146000D03*
X153160000Y-173146000D03*
D13*
X153160000Y-177326000D03*
%TD*%
D11*
%TO.C,J3*%
X134620000Y-168910000D03*
X134620000Y-171450000D03*
X134620000Y-173990000D03*
X134620000Y-176530000D03*
D10*
X134620000Y-179070000D03*
%TD*%
D12*
%TO.C,J1*%
X139350000Y-173676000D03*
X145130000Y-173676000D03*
D13*
X146560000Y-177326000D03*
D14*
X146560000Y-173146000D03*
X137920000Y-173146000D03*
D13*
X137920000Y-177326000D03*
%TD*%
D11*
%TO.C,J3*%
X210820000Y-155956000D03*
X210820000Y-158496000D03*
X210820000Y-161036000D03*
X210820000Y-163576000D03*
D10*
X210820000Y-166116000D03*
%TD*%
D12*
%TO.C,J1*%
X215550000Y-160722000D03*
X221330000Y-160722000D03*
D13*
X222760000Y-164372000D03*
D14*
X222760000Y-160192000D03*
X214120000Y-160192000D03*
D13*
X214120000Y-164372000D03*
%TD*%
D11*
%TO.C,J3*%
X195580000Y-155956000D03*
X195580000Y-158496000D03*
X195580000Y-161036000D03*
X195580000Y-163576000D03*
D10*
X195580000Y-166116000D03*
%TD*%
D12*
%TO.C,J1*%
X200310000Y-160722000D03*
X206090000Y-160722000D03*
D13*
X207520000Y-164372000D03*
D14*
X207520000Y-160192000D03*
X198880000Y-160192000D03*
D13*
X198880000Y-164372000D03*
%TD*%
D11*
%TO.C,J3*%
X180340000Y-155956000D03*
X180340000Y-158496000D03*
X180340000Y-161036000D03*
X180340000Y-163576000D03*
D10*
X180340000Y-166116000D03*
%TD*%
D12*
%TO.C,J1*%
X185070000Y-160722000D03*
X190850000Y-160722000D03*
D13*
X192280000Y-164372000D03*
D14*
X192280000Y-160192000D03*
X183640000Y-160192000D03*
D13*
X183640000Y-164372000D03*
%TD*%
D11*
%TO.C,J3*%
X165100000Y-155956000D03*
X165100000Y-158496000D03*
X165100000Y-161036000D03*
X165100000Y-163576000D03*
D10*
X165100000Y-166116000D03*
%TD*%
D12*
%TO.C,J1*%
X169830000Y-160722000D03*
X175610000Y-160722000D03*
D13*
X177040000Y-164372000D03*
D14*
X177040000Y-160192000D03*
X168400000Y-160192000D03*
D13*
X168400000Y-164372000D03*
%TD*%
D11*
%TO.C,J3*%
X149860000Y-155956000D03*
X149860000Y-158496000D03*
X149860000Y-161036000D03*
X149860000Y-163576000D03*
D10*
X149860000Y-166116000D03*
%TD*%
D12*
%TO.C,J1*%
X154590000Y-160722000D03*
X160370000Y-160722000D03*
D13*
X161800000Y-164372000D03*
D14*
X161800000Y-160192000D03*
X153160000Y-160192000D03*
D13*
X153160000Y-164372000D03*
%TD*%
D11*
%TO.C,J3*%
X134620000Y-155956000D03*
X134620000Y-158496000D03*
X134620000Y-161036000D03*
X134620000Y-163576000D03*
D10*
X134620000Y-166116000D03*
%TD*%
D12*
%TO.C,J1*%
X139350000Y-160722000D03*
X145130000Y-160722000D03*
D13*
X146560000Y-164372000D03*
D14*
X146560000Y-160192000D03*
X137920000Y-160192000D03*
D13*
X137920000Y-164372000D03*
%TD*%
D11*
%TO.C,J3*%
X210820000Y-143002000D03*
X210820000Y-145542000D03*
X210820000Y-148082000D03*
X210820000Y-150622000D03*
D10*
X210820000Y-153162000D03*
%TD*%
D12*
%TO.C,J1*%
X215550000Y-147768000D03*
X221330000Y-147768000D03*
D13*
X222760000Y-151418000D03*
D14*
X222760000Y-147238000D03*
X214120000Y-147238000D03*
D13*
X214120000Y-151418000D03*
%TD*%
D11*
%TO.C,J3*%
X195580000Y-143002000D03*
X195580000Y-145542000D03*
X195580000Y-148082000D03*
X195580000Y-150622000D03*
D10*
X195580000Y-153162000D03*
%TD*%
D12*
%TO.C,J1*%
X200310000Y-147768000D03*
X206090000Y-147768000D03*
D13*
X207520000Y-151418000D03*
D14*
X207520000Y-147238000D03*
X198880000Y-147238000D03*
D13*
X198880000Y-151418000D03*
%TD*%
D11*
%TO.C,J3*%
X180340000Y-143002000D03*
X180340000Y-145542000D03*
X180340000Y-148082000D03*
X180340000Y-150622000D03*
D10*
X180340000Y-153162000D03*
%TD*%
D12*
%TO.C,J1*%
X185070000Y-147768000D03*
X190850000Y-147768000D03*
D13*
X192280000Y-151418000D03*
D14*
X192280000Y-147238000D03*
X183640000Y-147238000D03*
D13*
X183640000Y-151418000D03*
%TD*%
D11*
%TO.C,J3*%
X165100000Y-143002000D03*
X165100000Y-145542000D03*
X165100000Y-148082000D03*
X165100000Y-150622000D03*
D10*
X165100000Y-153162000D03*
%TD*%
D12*
%TO.C,J1*%
X169830000Y-147768000D03*
X175610000Y-147768000D03*
D13*
X177040000Y-151418000D03*
D14*
X177040000Y-147238000D03*
X168400000Y-147238000D03*
D13*
X168400000Y-151418000D03*
%TD*%
D11*
%TO.C,J3*%
X149860000Y-143002000D03*
X149860000Y-145542000D03*
X149860000Y-148082000D03*
X149860000Y-150622000D03*
D10*
X149860000Y-153162000D03*
%TD*%
D12*
%TO.C,J1*%
X154590000Y-147768000D03*
X160370000Y-147768000D03*
D13*
X161800000Y-151418000D03*
D14*
X161800000Y-147238000D03*
X153160000Y-147238000D03*
D13*
X153160000Y-151418000D03*
%TD*%
D11*
%TO.C,J3*%
X134620000Y-143002000D03*
X134620000Y-145542000D03*
X134620000Y-148082000D03*
X134620000Y-150622000D03*
D10*
X134620000Y-153162000D03*
%TD*%
D12*
%TO.C,J1*%
X139350000Y-147768000D03*
X145130000Y-147768000D03*
D13*
X146560000Y-151418000D03*
D14*
X146560000Y-147238000D03*
X137920000Y-147238000D03*
D13*
X137920000Y-151418000D03*
%TD*%
D11*
%TO.C,J3*%
X210820000Y-130048000D03*
X210820000Y-132588000D03*
X210820000Y-135128000D03*
X210820000Y-137668000D03*
D10*
X210820000Y-140208000D03*
%TD*%
D12*
%TO.C,J1*%
X215550000Y-134814000D03*
X221330000Y-134814000D03*
D13*
X222760000Y-138464000D03*
D14*
X222760000Y-134284000D03*
X214120000Y-134284000D03*
D13*
X214120000Y-138464000D03*
%TD*%
D11*
%TO.C,J3*%
X195580000Y-130048000D03*
X195580000Y-132588000D03*
X195580000Y-135128000D03*
X195580000Y-137668000D03*
D10*
X195580000Y-140208000D03*
%TD*%
D12*
%TO.C,J1*%
X200310000Y-134814000D03*
X206090000Y-134814000D03*
D13*
X207520000Y-138464000D03*
D14*
X207520000Y-134284000D03*
X198880000Y-134284000D03*
D13*
X198880000Y-138464000D03*
%TD*%
D11*
%TO.C,J3*%
X180340000Y-130048000D03*
X180340000Y-132588000D03*
X180340000Y-135128000D03*
X180340000Y-137668000D03*
D10*
X180340000Y-140208000D03*
%TD*%
D12*
%TO.C,J1*%
X185070000Y-134814000D03*
X190850000Y-134814000D03*
D13*
X192280000Y-138464000D03*
D14*
X192280000Y-134284000D03*
X183640000Y-134284000D03*
D13*
X183640000Y-138464000D03*
%TD*%
D11*
%TO.C,J3*%
X165100000Y-130048000D03*
X165100000Y-132588000D03*
X165100000Y-135128000D03*
X165100000Y-137668000D03*
D10*
X165100000Y-140208000D03*
%TD*%
D12*
%TO.C,J1*%
X169830000Y-134814000D03*
X175610000Y-134814000D03*
D13*
X177040000Y-138464000D03*
D14*
X177040000Y-134284000D03*
X168400000Y-134284000D03*
D13*
X168400000Y-138464000D03*
%TD*%
D11*
%TO.C,J3*%
X149860000Y-130048000D03*
X149860000Y-132588000D03*
X149860000Y-135128000D03*
X149860000Y-137668000D03*
D10*
X149860000Y-140208000D03*
%TD*%
D12*
%TO.C,J1*%
X154590000Y-134814000D03*
X160370000Y-134814000D03*
D13*
X161800000Y-138464000D03*
D14*
X161800000Y-134284000D03*
X153160000Y-134284000D03*
D13*
X153160000Y-138464000D03*
%TD*%
D11*
%TO.C,J3*%
X134620000Y-130048000D03*
X134620000Y-132588000D03*
X134620000Y-135128000D03*
X134620000Y-137668000D03*
D10*
X134620000Y-140208000D03*
%TD*%
D12*
%TO.C,J1*%
X139350000Y-134814000D03*
X145130000Y-134814000D03*
D13*
X146560000Y-138464000D03*
D14*
X146560000Y-134284000D03*
X137920000Y-134284000D03*
D13*
X137920000Y-138464000D03*
%TD*%
D12*
%TO.C,J1*%
X215550000Y-121860000D03*
X221330000Y-121860000D03*
D13*
X222760000Y-125510000D03*
D14*
X222760000Y-121330000D03*
X214120000Y-121330000D03*
D13*
X214120000Y-125510000D03*
%TD*%
D11*
%TO.C,J3*%
X210820000Y-117094000D03*
X210820000Y-119634000D03*
X210820000Y-122174000D03*
X210820000Y-124714000D03*
D10*
X210820000Y-127254000D03*
%TD*%
D11*
%TO.C,J3*%
X195580000Y-117094000D03*
X195580000Y-119634000D03*
X195580000Y-122174000D03*
X195580000Y-124714000D03*
D10*
X195580000Y-127254000D03*
%TD*%
D12*
%TO.C,J1*%
X200310000Y-121860000D03*
X206090000Y-121860000D03*
D13*
X207520000Y-125510000D03*
D14*
X207520000Y-121330000D03*
X198880000Y-121330000D03*
D13*
X198880000Y-125510000D03*
%TD*%
D11*
%TO.C,J3*%
X180340000Y-117094000D03*
X180340000Y-119634000D03*
X180340000Y-122174000D03*
X180340000Y-124714000D03*
D10*
X180340000Y-127254000D03*
%TD*%
D12*
%TO.C,J1*%
X185070000Y-121860000D03*
X190850000Y-121860000D03*
D13*
X192280000Y-125510000D03*
D14*
X192280000Y-121330000D03*
X183640000Y-121330000D03*
D13*
X183640000Y-125510000D03*
%TD*%
D11*
%TO.C,J3*%
X165100000Y-117094000D03*
X165100000Y-119634000D03*
X165100000Y-122174000D03*
X165100000Y-124714000D03*
D10*
X165100000Y-127254000D03*
%TD*%
D12*
%TO.C,J1*%
X169830000Y-121860000D03*
X175610000Y-121860000D03*
D13*
X177040000Y-125510000D03*
D14*
X177040000Y-121330000D03*
X168400000Y-121330000D03*
D13*
X168400000Y-125510000D03*
%TD*%
D11*
%TO.C,J3*%
X149860000Y-117094000D03*
X149860000Y-119634000D03*
X149860000Y-122174000D03*
X149860000Y-124714000D03*
D10*
X149860000Y-127254000D03*
%TD*%
D12*
%TO.C,J1*%
X154590000Y-121860000D03*
X160370000Y-121860000D03*
D13*
X161800000Y-125510000D03*
D14*
X161800000Y-121330000D03*
X153160000Y-121330000D03*
D13*
X153160000Y-125510000D03*
%TD*%
D11*
%TO.C,J3*%
X134620000Y-117094000D03*
X134620000Y-119634000D03*
X134620000Y-122174000D03*
X134620000Y-124714000D03*
D10*
X134620000Y-127254000D03*
%TD*%
D12*
%TO.C,J1*%
X139350000Y-121860000D03*
X145130000Y-121860000D03*
D13*
X146560000Y-125510000D03*
D14*
X146560000Y-121330000D03*
X137920000Y-121330000D03*
D13*
X137920000Y-125510000D03*
%TD*%
D11*
%TO.C,J3*%
X210820000Y-104140000D03*
X210820000Y-106680000D03*
X210820000Y-109220000D03*
X210820000Y-111760000D03*
D10*
X210820000Y-114300000D03*
%TD*%
D12*
%TO.C,J1*%
X215550000Y-108906000D03*
X221330000Y-108906000D03*
D13*
X222760000Y-112556000D03*
D14*
X222760000Y-108376000D03*
X214120000Y-108376000D03*
D13*
X214120000Y-112556000D03*
%TD*%
D11*
%TO.C,J3*%
X195580000Y-104140000D03*
X195580000Y-106680000D03*
X195580000Y-109220000D03*
X195580000Y-111760000D03*
D10*
X195580000Y-114300000D03*
%TD*%
D12*
%TO.C,J1*%
X200310000Y-108906000D03*
X206090000Y-108906000D03*
D13*
X207520000Y-112556000D03*
D14*
X207520000Y-108376000D03*
X198880000Y-108376000D03*
D13*
X198880000Y-112556000D03*
%TD*%
D11*
%TO.C,J3*%
X180340000Y-104140000D03*
X180340000Y-106680000D03*
X180340000Y-109220000D03*
X180340000Y-111760000D03*
D10*
X180340000Y-114300000D03*
%TD*%
D12*
%TO.C,J1*%
X185070000Y-108906000D03*
X190850000Y-108906000D03*
D13*
X192280000Y-112556000D03*
D14*
X192280000Y-108376000D03*
X183640000Y-108376000D03*
D13*
X183640000Y-112556000D03*
%TD*%
D11*
%TO.C,J3*%
X165100000Y-104140000D03*
X165100000Y-106680000D03*
X165100000Y-109220000D03*
X165100000Y-111760000D03*
D10*
X165100000Y-114300000D03*
%TD*%
D12*
%TO.C,J1*%
X169830000Y-108906000D03*
X175610000Y-108906000D03*
D13*
X177040000Y-112556000D03*
D14*
X177040000Y-108376000D03*
X168400000Y-108376000D03*
D13*
X168400000Y-112556000D03*
%TD*%
D11*
%TO.C,J3*%
X149860000Y-104140000D03*
X149860000Y-106680000D03*
X149860000Y-109220000D03*
X149860000Y-111760000D03*
D10*
X149860000Y-114300000D03*
%TD*%
D12*
%TO.C,J1*%
X154590000Y-108906000D03*
X160370000Y-108906000D03*
D13*
X161800000Y-112556000D03*
D14*
X161800000Y-108376000D03*
X153160000Y-108376000D03*
D13*
X153160000Y-112556000D03*
%TD*%
D12*
%TO.C,J1*%
X139350000Y-108906000D03*
X145130000Y-108906000D03*
D13*
X146560000Y-112556000D03*
D14*
X146560000Y-108376000D03*
X137920000Y-108376000D03*
D13*
X137920000Y-112556000D03*
%TD*%
D11*
%TO.C,J3*%
X134620000Y-104140000D03*
X134620000Y-106680000D03*
X134620000Y-109220000D03*
X134620000Y-111760000D03*
D10*
X134620000Y-114300000D03*
%TD*%
M02*
