%TF.GenerationSoftware,KiCad,Pcbnew,(6.0.7)*%
%TF.CreationDate,2023-04-16T01:29:03+08:00*%
%TF.ProjectId,typical,74797069-6361-46c2-9e6b-696361645f70,rev?*%
%TF.SameCoordinates,Original*%
%TF.FileFunction,Other,ECO1*%
%FSLAX46Y46*%
G04 Gerber Fmt 4.6, Leading zero omitted, Abs format (unit mm)*
G04 Created by KiCad (PCBNEW (6.0.7)) date 2023-04-16 01:29:03*
%MOMM*%
%LPD*%
G01*
G04 APERTURE LIST*
%ADD10C,0.500000*%
%ADD11C,0.150000*%
G04 APERTURE END LIST*
D10*
X107730142Y-47077142D02*
X107730142Y-44077142D01*
X108444428Y-44077142D01*
X108872999Y-44220000D01*
X109158714Y-44505714D01*
X109301571Y-44791428D01*
X109444428Y-45362857D01*
X109444428Y-45791428D01*
X109301571Y-46362857D01*
X109158714Y-46648571D01*
X108872999Y-46934285D01*
X108444428Y-47077142D01*
X107730142Y-47077142D01*
X111158714Y-47077142D02*
X110872999Y-46934285D01*
X110730142Y-46791428D01*
X110587285Y-46505714D01*
X110587285Y-45648571D01*
X110730142Y-45362857D01*
X110872999Y-45220000D01*
X111158714Y-45077142D01*
X111587285Y-45077142D01*
X111872999Y-45220000D01*
X112015857Y-45362857D01*
X112158714Y-45648571D01*
X112158714Y-46505714D01*
X112015857Y-46791428D01*
X111872999Y-46934285D01*
X111587285Y-47077142D01*
X111158714Y-47077142D01*
X113444428Y-45077142D02*
X113444428Y-47077142D01*
X113444428Y-45362857D02*
X113587285Y-45220000D01*
X113872999Y-45077142D01*
X114301571Y-45077142D01*
X114587285Y-45220000D01*
X114730142Y-45505714D01*
X114730142Y-47077142D01*
X116301571Y-44077142D02*
X116015857Y-44648571D01*
X117158714Y-45077142D02*
X118301571Y-45077142D01*
X117587285Y-44077142D02*
X117587285Y-46648571D01*
X117730142Y-46934285D01*
X118015857Y-47077142D01*
X118301571Y-47077142D01*
X121587285Y-45077142D02*
X121587285Y-47077142D01*
X121587285Y-45362857D02*
X121730142Y-45220000D01*
X122015857Y-45077142D01*
X122444428Y-45077142D01*
X122730142Y-45220000D01*
X122872999Y-45505714D01*
X122872999Y-47077142D01*
X125444428Y-46934285D02*
X125158714Y-47077142D01*
X124587285Y-47077142D01*
X124301571Y-46934285D01*
X124158714Y-46648571D01*
X124158714Y-45505714D01*
X124301571Y-45220000D01*
X124587285Y-45077142D01*
X125158714Y-45077142D01*
X125444428Y-45220000D01*
X125587285Y-45505714D01*
X125587285Y-45791428D01*
X124158714Y-46077142D01*
X128015857Y-46934285D02*
X127730142Y-47077142D01*
X127158714Y-47077142D01*
X126872999Y-46934285D01*
X126730142Y-46648571D01*
X126730142Y-45505714D01*
X126872999Y-45220000D01*
X127158714Y-45077142D01*
X127730142Y-45077142D01*
X128015857Y-45220000D01*
X128158714Y-45505714D01*
X128158714Y-45791428D01*
X126730142Y-46077142D01*
X130730142Y-47077142D02*
X130730142Y-44077142D01*
X130730142Y-46934285D02*
X130444428Y-47077142D01*
X129872999Y-47077142D01*
X129587285Y-46934285D01*
X129444428Y-46791428D01*
X129301571Y-46505714D01*
X129301571Y-45648571D01*
X129444428Y-45362857D01*
X129587285Y-45220000D01*
X129872999Y-45077142D01*
X130444428Y-45077142D01*
X130730142Y-45220000D01*
X134158714Y-45077142D02*
X134873000Y-47077142D01*
X135587285Y-45077142D01*
X136730142Y-45934285D02*
X139015857Y-45934285D01*
X141730142Y-46934285D02*
X141444428Y-47077142D01*
X140873000Y-47077142D01*
X140587285Y-46934285D01*
X140444428Y-46791428D01*
X140301571Y-46505714D01*
X140301571Y-45648571D01*
X140444428Y-45362857D01*
X140587285Y-45220000D01*
X140873000Y-45077142D01*
X141444428Y-45077142D01*
X141730142Y-45220000D01*
X144301571Y-45077142D02*
X144301571Y-47077142D01*
X143015857Y-45077142D02*
X143015857Y-46648571D01*
X143158714Y-46934285D01*
X143444428Y-47077142D01*
X143873000Y-47077142D01*
X144158714Y-46934285D01*
X144301571Y-46791428D01*
X145301571Y-45077142D02*
X146444428Y-45077142D01*
X145730142Y-44077142D02*
X145730142Y-46648571D01*
X145873000Y-46934285D01*
X146158714Y-47077142D01*
X146444428Y-47077142D01*
D11*
X72787380Y-44514380D02*
X72215952Y-44514380D01*
X72501666Y-44514380D02*
X72501666Y-43514380D01*
X72406428Y-43657238D01*
X72311190Y-43752476D01*
X72215952Y-43800095D01*
X73358809Y-43942952D02*
X73263571Y-43895333D01*
X73215952Y-43847714D01*
X73168333Y-43752476D01*
X73168333Y-43704857D01*
X73215952Y-43609619D01*
X73263571Y-43562000D01*
X73358809Y-43514380D01*
X73549285Y-43514380D01*
X73644523Y-43562000D01*
X73692142Y-43609619D01*
X73739761Y-43704857D01*
X73739761Y-43752476D01*
X73692142Y-43847714D01*
X73644523Y-43895333D01*
X73549285Y-43942952D01*
X73358809Y-43942952D01*
X73263571Y-43990571D01*
X73215952Y-44038190D01*
X73168333Y-44133428D01*
X73168333Y-44323904D01*
X73215952Y-44419142D01*
X73263571Y-44466761D01*
X73358809Y-44514380D01*
X73549285Y-44514380D01*
X73644523Y-44466761D01*
X73692142Y-44419142D01*
X73739761Y-44323904D01*
X73739761Y-44133428D01*
X73692142Y-44038190D01*
X73644523Y-43990571D01*
X73549285Y-43942952D01*
X74168333Y-44419142D02*
X74215952Y-44466761D01*
X74168333Y-44514380D01*
X74120714Y-44466761D01*
X74168333Y-44419142D01*
X74168333Y-44514380D01*
X74835000Y-43514380D02*
X74930238Y-43514380D01*
X75025476Y-43562000D01*
X75073095Y-43609619D01*
X75120714Y-43704857D01*
X75168333Y-43895333D01*
X75168333Y-44133428D01*
X75120714Y-44323904D01*
X75073095Y-44419142D01*
X75025476Y-44466761D01*
X74930238Y-44514380D01*
X74835000Y-44514380D01*
X74739761Y-44466761D01*
X74692142Y-44419142D01*
X74644523Y-44323904D01*
X74596904Y-44133428D01*
X74596904Y-43895333D01*
X74644523Y-43704857D01*
X74692142Y-43609619D01*
X74739761Y-43562000D01*
X74835000Y-43514380D01*
X75501666Y-43514380D02*
X76120714Y-43514380D01*
X75787380Y-43895333D01*
X75930238Y-43895333D01*
X76025476Y-43942952D01*
X76073095Y-43990571D01*
X76120714Y-44085809D01*
X76120714Y-44323904D01*
X76073095Y-44419142D01*
X76025476Y-44466761D01*
X75930238Y-44514380D01*
X75644523Y-44514380D01*
X75549285Y-44466761D01*
X75501666Y-44419142D01*
X76977857Y-43847714D02*
X76977857Y-44514380D01*
X76739761Y-43466761D02*
X76501666Y-44181047D01*
X77120714Y-44181047D01*
X77692142Y-43514380D02*
X77787380Y-43514380D01*
X77882619Y-43562000D01*
X77930238Y-43609619D01*
X77977857Y-43704857D01*
X78025476Y-43895333D01*
X78025476Y-44133428D01*
X77977857Y-44323904D01*
X77930238Y-44419142D01*
X77882619Y-44466761D01*
X77787380Y-44514380D01*
X77692142Y-44514380D01*
X77596904Y-44466761D01*
X77549285Y-44419142D01*
X77501666Y-44323904D01*
X77454047Y-44133428D01*
X77454047Y-43895333D01*
X77501666Y-43704857D01*
X77549285Y-43609619D01*
X77596904Y-43562000D01*
X77692142Y-43514380D01*
X79215952Y-44514380D02*
X79215952Y-43847714D01*
X79215952Y-43942952D02*
X79263571Y-43895333D01*
X79358809Y-43847714D01*
X79501666Y-43847714D01*
X79596904Y-43895333D01*
X79644523Y-43990571D01*
X79644523Y-44514380D01*
X79644523Y-43990571D02*
X79692142Y-43895333D01*
X79787380Y-43847714D01*
X79930238Y-43847714D01*
X80025476Y-43895333D01*
X80073095Y-43990571D01*
X80073095Y-44514380D01*
X80549285Y-44514380D02*
X80549285Y-43847714D01*
X80549285Y-43942952D02*
X80596904Y-43895333D01*
X80692142Y-43847714D01*
X80835000Y-43847714D01*
X80930238Y-43895333D01*
X80977857Y-43990571D01*
X80977857Y-44514380D01*
X80977857Y-43990571D02*
X81025476Y-43895333D01*
X81120714Y-43847714D01*
X81263571Y-43847714D01*
X81358809Y-43895333D01*
X81406428Y-43990571D01*
X81406428Y-44514380D01*
X67818000Y-51443000D02*
X67818000Y-44625580D01*
X85852000Y-51443000D02*
X85852000Y-44625580D01*
X67818000Y-45212000D02*
X85852000Y-45212000D01*
X67818000Y-45212000D02*
X85852000Y-45212000D01*
X67818000Y-45212000D02*
X68944504Y-45798421D01*
X67818000Y-45212000D02*
X68944504Y-44625579D01*
X85852000Y-45212000D02*
X84725496Y-44625579D01*
X85852000Y-45212000D02*
X84725496Y-45798421D01*
X59881380Y-62467619D02*
X59881380Y-63039047D01*
X59881380Y-62753333D02*
X58881380Y-62753333D01*
X59024238Y-62848571D01*
X59119476Y-62943809D01*
X59167095Y-63039047D01*
X58976619Y-62086666D02*
X58929000Y-62039047D01*
X58881380Y-61943809D01*
X58881380Y-61705714D01*
X58929000Y-61610476D01*
X58976619Y-61562857D01*
X59071857Y-61515238D01*
X59167095Y-61515238D01*
X59309952Y-61562857D01*
X59881380Y-62134285D01*
X59881380Y-61515238D01*
X59786142Y-61086666D02*
X59833761Y-61039047D01*
X59881380Y-61086666D01*
X59833761Y-61134285D01*
X59786142Y-61086666D01*
X59881380Y-61086666D01*
X59881380Y-60562857D02*
X59881380Y-60372380D01*
X59833761Y-60277142D01*
X59786142Y-60229523D01*
X59643285Y-60134285D01*
X59452809Y-60086666D01*
X59071857Y-60086666D01*
X58976619Y-60134285D01*
X58929000Y-60181904D01*
X58881380Y-60277142D01*
X58881380Y-60467619D01*
X58929000Y-60562857D01*
X58976619Y-60610476D01*
X59071857Y-60658095D01*
X59309952Y-60658095D01*
X59405190Y-60610476D01*
X59452809Y-60562857D01*
X59500428Y-60467619D01*
X59500428Y-60277142D01*
X59452809Y-60181904D01*
X59405190Y-60134285D01*
X59309952Y-60086666D01*
X58881380Y-59181904D02*
X58881380Y-59658095D01*
X59357571Y-59705714D01*
X59309952Y-59658095D01*
X59262333Y-59562857D01*
X59262333Y-59324761D01*
X59309952Y-59229523D01*
X59357571Y-59181904D01*
X59452809Y-59134285D01*
X59690904Y-59134285D01*
X59786142Y-59181904D01*
X59833761Y-59229523D01*
X59881380Y-59324761D01*
X59881380Y-59562857D01*
X59833761Y-59658095D01*
X59786142Y-59705714D01*
X59214714Y-58277142D02*
X59881380Y-58277142D01*
X58833761Y-58515238D02*
X59548047Y-58753333D01*
X59548047Y-58134285D01*
X58881380Y-57562857D02*
X58881380Y-57467619D01*
X58929000Y-57372380D01*
X58976619Y-57324761D01*
X59071857Y-57277142D01*
X59262333Y-57229523D01*
X59500428Y-57229523D01*
X59690904Y-57277142D01*
X59786142Y-57324761D01*
X59833761Y-57372380D01*
X59881380Y-57467619D01*
X59881380Y-57562857D01*
X59833761Y-57658095D01*
X59786142Y-57705714D01*
X59690904Y-57753333D01*
X59500428Y-57800952D01*
X59262333Y-57800952D01*
X59071857Y-57753333D01*
X58976619Y-57705714D01*
X58929000Y-57658095D01*
X58881380Y-57562857D01*
X59881380Y-56039047D02*
X59214714Y-56039047D01*
X59309952Y-56039047D02*
X59262333Y-55991428D01*
X59214714Y-55896190D01*
X59214714Y-55753333D01*
X59262333Y-55658095D01*
X59357571Y-55610476D01*
X59881380Y-55610476D01*
X59357571Y-55610476D02*
X59262333Y-55562857D01*
X59214714Y-55467619D01*
X59214714Y-55324761D01*
X59262333Y-55229523D01*
X59357571Y-55181904D01*
X59881380Y-55181904D01*
X59881380Y-54705714D02*
X59214714Y-54705714D01*
X59309952Y-54705714D02*
X59262333Y-54658095D01*
X59214714Y-54562857D01*
X59214714Y-54420000D01*
X59262333Y-54324761D01*
X59357571Y-54277142D01*
X59881380Y-54277142D01*
X59357571Y-54277142D02*
X59262333Y-54229523D01*
X59214714Y-54134285D01*
X59214714Y-53991428D01*
X59262333Y-53896190D01*
X59357571Y-53848571D01*
X59881380Y-53848571D01*
X67318000Y-51943000D02*
X59992580Y-51943000D01*
X67318000Y-64897000D02*
X59992580Y-64897000D01*
X60579000Y-51943000D02*
X60579000Y-64897000D01*
X60579000Y-51943000D02*
X60579000Y-64897000D01*
X60579000Y-51943000D02*
X59992579Y-53069504D01*
X60579000Y-51943000D02*
X61165421Y-53069504D01*
X60579000Y-64897000D02*
X61165421Y-63770496D01*
X60579000Y-64897000D02*
X59992579Y-63770496D01*
X72787380Y-41339380D02*
X72215952Y-41339380D01*
X72501666Y-41339380D02*
X72501666Y-40339380D01*
X72406428Y-40482238D01*
X72311190Y-40577476D01*
X72215952Y-40625095D01*
X73692142Y-40339380D02*
X73215952Y-40339380D01*
X73168333Y-40815571D01*
X73215952Y-40767952D01*
X73311190Y-40720333D01*
X73549285Y-40720333D01*
X73644523Y-40767952D01*
X73692142Y-40815571D01*
X73739761Y-40910809D01*
X73739761Y-41148904D01*
X73692142Y-41244142D01*
X73644523Y-41291761D01*
X73549285Y-41339380D01*
X73311190Y-41339380D01*
X73215952Y-41291761D01*
X73168333Y-41244142D01*
X74168333Y-41244142D02*
X74215952Y-41291761D01*
X74168333Y-41339380D01*
X74120714Y-41291761D01*
X74168333Y-41244142D01*
X74168333Y-41339380D01*
X74596904Y-40434619D02*
X74644523Y-40387000D01*
X74739761Y-40339380D01*
X74977857Y-40339380D01*
X75073095Y-40387000D01*
X75120714Y-40434619D01*
X75168333Y-40529857D01*
X75168333Y-40625095D01*
X75120714Y-40767952D01*
X74549285Y-41339380D01*
X75168333Y-41339380D01*
X76025476Y-40672714D02*
X76025476Y-41339380D01*
X75787380Y-40291761D02*
X75549285Y-41006047D01*
X76168333Y-41006047D01*
X76739761Y-40339380D02*
X76835000Y-40339380D01*
X76930238Y-40387000D01*
X76977857Y-40434619D01*
X77025476Y-40529857D01*
X77073095Y-40720333D01*
X77073095Y-40958428D01*
X77025476Y-41148904D01*
X76977857Y-41244142D01*
X76930238Y-41291761D01*
X76835000Y-41339380D01*
X76739761Y-41339380D01*
X76644523Y-41291761D01*
X76596904Y-41244142D01*
X76549285Y-41148904D01*
X76501666Y-40958428D01*
X76501666Y-40720333D01*
X76549285Y-40529857D01*
X76596904Y-40434619D01*
X76644523Y-40387000D01*
X76739761Y-40339380D01*
X77692142Y-40339380D02*
X77787380Y-40339380D01*
X77882619Y-40387000D01*
X77930238Y-40434619D01*
X77977857Y-40529857D01*
X78025476Y-40720333D01*
X78025476Y-40958428D01*
X77977857Y-41148904D01*
X77930238Y-41244142D01*
X77882619Y-41291761D01*
X77787380Y-41339380D01*
X77692142Y-41339380D01*
X77596904Y-41291761D01*
X77549285Y-41244142D01*
X77501666Y-41148904D01*
X77454047Y-40958428D01*
X77454047Y-40720333D01*
X77501666Y-40529857D01*
X77549285Y-40434619D01*
X77596904Y-40387000D01*
X77692142Y-40339380D01*
X79215952Y-41339380D02*
X79215952Y-40672714D01*
X79215952Y-40767952D02*
X79263571Y-40720333D01*
X79358809Y-40672714D01*
X79501666Y-40672714D01*
X79596904Y-40720333D01*
X79644523Y-40815571D01*
X79644523Y-41339380D01*
X79644523Y-40815571D02*
X79692142Y-40720333D01*
X79787380Y-40672714D01*
X79930238Y-40672714D01*
X80025476Y-40720333D01*
X80073095Y-40815571D01*
X80073095Y-41339380D01*
X80549285Y-41339380D02*
X80549285Y-40672714D01*
X80549285Y-40767952D02*
X80596904Y-40720333D01*
X80692142Y-40672714D01*
X80835000Y-40672714D01*
X80930238Y-40720333D01*
X80977857Y-40815571D01*
X80977857Y-41339380D01*
X80977857Y-40815571D02*
X81025476Y-40720333D01*
X81120714Y-40672714D01*
X81263571Y-40672714D01*
X81358809Y-40720333D01*
X81406428Y-40815571D01*
X81406428Y-41339380D01*
X69215000Y-52840000D02*
X69215000Y-41450580D01*
X84455000Y-52840000D02*
X84455000Y-41450580D01*
X69215000Y-42037000D02*
X84455000Y-42037000D01*
X69215000Y-42037000D02*
X84455000Y-42037000D01*
X69215000Y-42037000D02*
X70341504Y-42623421D01*
X69215000Y-42037000D02*
X70341504Y-41450579D01*
X84455000Y-42037000D02*
X83328496Y-41450579D01*
X84455000Y-42037000D02*
X83328496Y-42623421D01*
M02*
