M48
; DRILL file {KiCad (6.0.7)} date Thu Nov  3 07:54:53 2022
; FORMAT={-:-/ absolute / inch / decimal}
; #@! TF.CreationDate,2022-11-03T07:54:53+08:00
; #@! TF.GenerationSoftware,Kicad,Pcbnew,(6.0.7)
; #@! TF.FileFunction,NonPlated,1,2,NPTH
FMAT,2
INCH
; #@! TA.AperFunction,NonPlated,NPTH,ComponentDrill
T1C0.0256
; #@! TA.AperFunction,NonPlated,NPTH,ComponentDrill
T2C0.0394
%
G90
G05
T1
X4.6312Y-2.3426
X4.6312Y-2.8526
X4.6312Y-3.3626
X4.6312Y-3.8726
X4.6312Y-4.3826
X4.6312Y-4.8926
X4.6312Y-5.4026
X4.8588Y-2.3426
X4.8588Y-2.8526
X4.8588Y-3.3626
X4.8588Y-3.8726
X4.8588Y-4.3826
X4.8588Y-4.8926
X4.8588Y-5.4026
X5.3412Y-2.3426
X5.3412Y-2.8526
X5.3412Y-3.3626
X5.3412Y-3.8726
X5.3412Y-4.3826
X5.3412Y-4.8926
X5.3412Y-5.4026
X5.5688Y-2.3426
X5.5688Y-2.8526
X5.5688Y-3.3626
X5.5688Y-3.8726
X5.5688Y-4.3826
X5.5688Y-4.8926
X5.5688Y-5.4026
X6.0512Y-2.3426
X6.0512Y-2.8526
X6.0512Y-3.3626
X6.0512Y-3.8726
X6.0512Y-4.3826
X6.0512Y-4.8926
X6.0512Y-5.4026
X6.2788Y-2.3426
X6.2788Y-2.8526
X6.2788Y-3.3626
X6.2788Y-3.8726
X6.2788Y-4.3826
X6.2788Y-4.8926
X6.2788Y-5.4026
X6.7612Y-2.3426
X6.7612Y-2.8526
X6.7612Y-3.3626
X6.7612Y-3.8726
X6.7612Y-4.3826
X6.7612Y-4.8926
X6.7612Y-5.4026
X6.9888Y-2.3426
X6.9888Y-2.8526
X6.9888Y-3.3626
X6.9888Y-3.8726
X6.9888Y-4.3826
X6.9888Y-4.8926
X6.9888Y-5.4026
T2
X3.907Y-2.3929
X3.907Y-2.9029
X3.907Y-3.4129
X3.907Y-3.9229
X3.907Y-4.4329
X3.907Y-4.9429
X3.907Y-5.4529
X4.163Y-2.3929
X4.163Y-2.9029
X4.163Y-3.4129
X4.163Y-3.9229
X4.163Y-4.4329
X4.163Y-4.9429
X4.163Y-5.4529
T0
M30
