%TF.GenerationSoftware,KiCad,Pcbnew,(6.0.7)*%
%TF.CreationDate,2022-11-03T07:54:49+08:00*%
%TF.ProjectId,panelization,70616e65-6c69-47a6-9174-696f6e2e6b69,rev?*%
%TF.SameCoordinates,Original*%
%TF.FileFunction,Profile,NP*%
%FSLAX46Y46*%
G04 Gerber Fmt 4.6, Leading zero omitted, Abs format (unit mm)*
G04 Created by KiCad (PCBNEW (6.0.7)) date 2022-11-03 07:54:49*
%MOMM*%
%LPD*%
G01*
G04 APERTURE LIST*
%TA.AperFunction,Profile*%
%ADD10C,0.050000*%
%TD*%
G04 APERTURE END LIST*
D10*
X165608000Y-92202000D02*
X183642000Y-92202000D01*
X183642000Y-92202000D02*
X183642000Y-105156000D01*
X183642000Y-105156000D02*
X165608000Y-105156000D01*
X165608000Y-105156000D02*
X165608000Y-92202000D01*
X147574000Y-53340000D02*
X165608000Y-53340000D01*
X165608000Y-53340000D02*
X165608000Y-66294000D01*
X165608000Y-66294000D02*
X147574000Y-66294000D01*
X147574000Y-66294000D02*
X147574000Y-53340000D01*
X165608000Y-105156000D02*
X183642000Y-105156000D01*
X183642000Y-105156000D02*
X183642000Y-118110000D01*
X183642000Y-118110000D02*
X165608000Y-118110000D01*
X165608000Y-118110000D02*
X165608000Y-105156000D01*
X129540000Y-131064000D02*
X147574000Y-131064000D01*
X147574000Y-131064000D02*
X147574000Y-144018000D01*
X147574000Y-144018000D02*
X129540000Y-144018000D01*
X129540000Y-144018000D02*
X129540000Y-131064000D01*
X129540000Y-53340000D02*
X147574000Y-53340000D01*
X147574000Y-53340000D02*
X147574000Y-66294000D01*
X147574000Y-66294000D02*
X129540000Y-66294000D01*
X129540000Y-66294000D02*
X129540000Y-53340000D01*
X111506000Y-105156000D02*
X129540000Y-105156000D01*
X129540000Y-105156000D02*
X129540000Y-118110000D01*
X129540000Y-118110000D02*
X111506000Y-118110000D01*
X111506000Y-118110000D02*
X111506000Y-105156000D01*
X129540000Y-118110000D02*
X147574000Y-118110000D01*
X147574000Y-118110000D02*
X147574000Y-131064000D01*
X147574000Y-131064000D02*
X129540000Y-131064000D01*
X129540000Y-131064000D02*
X129540000Y-118110000D01*
X147574000Y-105156000D02*
X165608000Y-105156000D01*
X165608000Y-105156000D02*
X165608000Y-118110000D01*
X165608000Y-118110000D02*
X147574000Y-118110000D01*
X147574000Y-118110000D02*
X147574000Y-105156000D01*
X93472000Y-105156000D02*
X111506000Y-105156000D01*
X111506000Y-105156000D02*
X111506000Y-118110000D01*
X111506000Y-118110000D02*
X93472000Y-118110000D01*
X93472000Y-118110000D02*
X93472000Y-105156000D01*
X129540000Y-79248000D02*
X147574000Y-79248000D01*
X147574000Y-79248000D02*
X147574000Y-92202000D01*
X147574000Y-92202000D02*
X129540000Y-92202000D01*
X129540000Y-92202000D02*
X129540000Y-79248000D01*
X129540000Y-92202000D02*
X147574000Y-92202000D01*
X147574000Y-92202000D02*
X147574000Y-105156000D01*
X147574000Y-105156000D02*
X129540000Y-105156000D01*
X129540000Y-105156000D02*
X129540000Y-92202000D01*
X111506000Y-66294000D02*
X129540000Y-66294000D01*
X129540000Y-66294000D02*
X129540000Y-79248000D01*
X129540000Y-79248000D02*
X111506000Y-79248000D01*
X111506000Y-79248000D02*
X111506000Y-66294000D01*
X165608000Y-66294000D02*
X183642000Y-66294000D01*
X183642000Y-66294000D02*
X183642000Y-79248000D01*
X183642000Y-79248000D02*
X165608000Y-79248000D01*
X165608000Y-79248000D02*
X165608000Y-66294000D01*
X165608000Y-118110000D02*
X183642000Y-118110000D01*
X183642000Y-118110000D02*
X183642000Y-131064000D01*
X183642000Y-131064000D02*
X165608000Y-131064000D01*
X165608000Y-131064000D02*
X165608000Y-118110000D01*
X93472000Y-92202000D02*
X111506000Y-92202000D01*
X111506000Y-92202000D02*
X111506000Y-105156000D01*
X111506000Y-105156000D02*
X93472000Y-105156000D01*
X93472000Y-105156000D02*
X93472000Y-92202000D01*
X147574000Y-79248000D02*
X165608000Y-79248000D01*
X165608000Y-79248000D02*
X165608000Y-92202000D01*
X165608000Y-92202000D02*
X147574000Y-92202000D01*
X147574000Y-92202000D02*
X147574000Y-79248000D01*
X93472000Y-79248000D02*
X111506000Y-79248000D01*
X111506000Y-79248000D02*
X111506000Y-92202000D01*
X111506000Y-92202000D02*
X93472000Y-92202000D01*
X93472000Y-92202000D02*
X93472000Y-79248000D01*
X129540000Y-66294000D02*
X147574000Y-66294000D01*
X147574000Y-66294000D02*
X147574000Y-79248000D01*
X147574000Y-79248000D02*
X129540000Y-79248000D01*
X129540000Y-79248000D02*
X129540000Y-66294000D01*
X165608000Y-79248000D02*
X183642000Y-79248000D01*
X183642000Y-79248000D02*
X183642000Y-92202000D01*
X183642000Y-92202000D02*
X165608000Y-92202000D01*
X165608000Y-92202000D02*
X165608000Y-79248000D01*
X147574000Y-118110000D02*
X165608000Y-118110000D01*
X165608000Y-118110000D02*
X165608000Y-131064000D01*
X165608000Y-131064000D02*
X147574000Y-131064000D01*
X147574000Y-131064000D02*
X147574000Y-118110000D01*
X111506000Y-53340000D02*
X129540000Y-53340000D01*
X129540000Y-53340000D02*
X129540000Y-66294000D01*
X129540000Y-66294000D02*
X111506000Y-66294000D01*
X111506000Y-66294000D02*
X111506000Y-53340000D01*
X165608000Y-131064000D02*
X183642000Y-131064000D01*
X183642000Y-131064000D02*
X183642000Y-144018000D01*
X183642000Y-144018000D02*
X165608000Y-144018000D01*
X165608000Y-144018000D02*
X165608000Y-131064000D01*
X93472000Y-53340000D02*
X111506000Y-53340000D01*
X111506000Y-53340000D02*
X111506000Y-66294000D01*
X111506000Y-66294000D02*
X93472000Y-66294000D01*
X93472000Y-66294000D02*
X93472000Y-53340000D01*
X165608000Y-53340000D02*
X183642000Y-53340000D01*
X183642000Y-53340000D02*
X183642000Y-66294000D01*
X183642000Y-66294000D02*
X165608000Y-66294000D01*
X165608000Y-66294000D02*
X165608000Y-53340000D01*
X93472000Y-118110000D02*
X111506000Y-118110000D01*
X111506000Y-118110000D02*
X111506000Y-131064000D01*
X111506000Y-131064000D02*
X93472000Y-131064000D01*
X93472000Y-131064000D02*
X93472000Y-118110000D01*
X111506000Y-79248000D02*
X129540000Y-79248000D01*
X129540000Y-79248000D02*
X129540000Y-92202000D01*
X129540000Y-92202000D02*
X111506000Y-92202000D01*
X111506000Y-92202000D02*
X111506000Y-79248000D01*
X93472000Y-131064000D02*
X111506000Y-131064000D01*
X111506000Y-131064000D02*
X111506000Y-144018000D01*
X111506000Y-144018000D02*
X93472000Y-144018000D01*
X93472000Y-144018000D02*
X93472000Y-131064000D01*
X111506000Y-131064000D02*
X129540000Y-131064000D01*
X129540000Y-131064000D02*
X129540000Y-144018000D01*
X129540000Y-144018000D02*
X111506000Y-144018000D01*
X111506000Y-144018000D02*
X111506000Y-131064000D01*
X147574000Y-131064000D02*
X165608000Y-131064000D01*
X165608000Y-131064000D02*
X165608000Y-144018000D01*
X165608000Y-144018000D02*
X147574000Y-144018000D01*
X147574000Y-144018000D02*
X147574000Y-131064000D01*
X111506000Y-118110000D02*
X129540000Y-118110000D01*
X129540000Y-118110000D02*
X129540000Y-131064000D01*
X129540000Y-131064000D02*
X111506000Y-131064000D01*
X111506000Y-131064000D02*
X111506000Y-118110000D01*
X111506000Y-92202000D02*
X129540000Y-92202000D01*
X129540000Y-92202000D02*
X129540000Y-105156000D01*
X129540000Y-105156000D02*
X111506000Y-105156000D01*
X111506000Y-105156000D02*
X111506000Y-92202000D01*
X147574000Y-66294000D02*
X165608000Y-66294000D01*
X165608000Y-66294000D02*
X165608000Y-79248000D01*
X165608000Y-79248000D02*
X147574000Y-79248000D01*
X147574000Y-79248000D02*
X147574000Y-66294000D01*
X93472000Y-66294000D02*
X111506000Y-66294000D01*
X111506000Y-66294000D02*
X111506000Y-79248000D01*
X111506000Y-79248000D02*
X93472000Y-79248000D01*
X93472000Y-79248000D02*
X93472000Y-66294000D01*
X147574000Y-92202000D02*
X165608000Y-92202000D01*
X165608000Y-92202000D02*
X165608000Y-105156000D01*
X165608000Y-105156000D02*
X147574000Y-105156000D01*
X147574000Y-105156000D02*
X147574000Y-92202000D01*
X129540000Y-105156000D02*
X147574000Y-105156000D01*
X147574000Y-105156000D02*
X147574000Y-118110000D01*
X147574000Y-118110000D02*
X129540000Y-118110000D01*
X129540000Y-118110000D02*
X129540000Y-105156000D01*
M02*
